<svg width="88" height="110" viewBox="0 0 88 110" fill="none" xmlns="http://www.w3.org/2000/svg">
<g style="mix-blend-mode:multiply">
<path d="M11.9911 94.5579C19.4088 102.546 28.874 107.682 38.7084 109.058C47.4687 110.266 56.4639 108.42 64.2508 104.09C69.554 101.17 74.2866 97.1087 78.0123 92.1076C86.6719 80.4608 89.357 64.2156 84.9936 49.7158C82.2413 40.5527 77.0053 33.0679 70.2589 28.6709C62.237 23.4685 51.8656 22.8643 44.3808 27.2277C44.0451 27.4291 43.7095 27.6304 43.4074 27.8654C44.3472 25.7844 44.8842 24.2405 44.8842 24.1733C46.0254 20.4141 46.5288 16.5206 46.3946 12.6607C46.3946 11.8887 46.059 10.5797 45.3206 7.52537C44.9514 5.9814 44.3808 3.69906 44.2801 2.89352C44.3808 2.02084 44.0115 1.11456 43.2395 0.543968C42.0983 -0.328706 40.4537 -0.060179 39.581 1.08101C35.8218 6.14923 31.9619 11.6202 29.8137 17.8632C29.5788 18.5009 29.411 19.1387 29.2096 19.7764C28.7061 19.0715 28.1356 18.4338 27.4979 17.8297C24.4435 14.9767 19.0396 13.5334 15.0454 16.4871C12.9309 18.0646 11.9576 20.5819 12.5953 22.7636C13.1659 24.8111 14.8105 25.8851 16.0859 26.7577C20.2815 29.5772 23.0674 32.8665 25.1483 37.4984C17.0929 38.4718 10.5143 42.0967 6.0502 48.1383C1.11624 54.8176 -0.830501 63.7122 0.646332 72.5732C1.95534 80.4272 5.88234 88.0464 11.9911 94.5915V94.5579ZM34.7477 19.5414C36.0567 15.7822 38.037 12.3586 40.3194 9.00221C40.6551 10.4455 41.125 12.3922 41.1585 12.795C41.2592 16.0843 40.8564 19.4072 39.8831 22.6293C39.0104 25.5494 35.9897 31.289 34.1772 32.9672C33.9422 32.2288 33.7072 31.4568 33.5058 30.6512C32.9688 27.3619 33.4051 23.4685 34.7477 19.5414ZM18.1669 20.6155C18.1669 20.6155 18.3684 20.4812 18.4691 20.4141C20.0802 19.5414 22.5303 20.2463 23.94 21.5889C25.9538 23.4685 26.9609 26.4557 27.6993 29.1408L28.102 30.6848C28.2027 31.054 28.3034 31.4568 28.4041 31.826C28.4712 32.0945 28.5047 32.363 28.5719 32.6315C26.2224 28.436 23.1345 25.1131 18.8718 22.2601C18.469 21.9916 17.6971 21.4546 17.5964 21.2868C17.5964 21.1861 17.7642 20.8504 18.1334 20.5484L18.1669 20.6155ZM5.81523 71.6669C4.53978 64.1821 6.18446 56.7308 10.2457 51.1927C15.2133 44.4798 22.5638 42.7009 27.8335 42.4324C33.8415 42.0967 37.7685 38.8745 41.5613 35.7195C43.3738 34.2427 45.0521 32.8329 46.9988 31.6917C47.0995 31.6246 47.2001 31.5911 47.2673 31.5239C53.0739 28.3018 61.0958 28.9059 67.4059 33.0007C73.1454 36.7264 77.6095 43.2043 79.9925 51.1927C83.886 64.1485 81.503 78.6483 73.8167 88.9862C65.8619 99.6596 52.0334 105.634 39.4132 103.889C30.7872 102.68 22.396 98.1156 15.7839 91.0335C10.38 85.2269 6.92292 78.5141 5.78173 71.7005L5.81523 71.6669Z" fill="#E2E2E2"/>
</g>
</svg>
