<svg width="110" height="99" viewBox="0 0 110 99" fill="none" xmlns="http://www.w3.org/2000/svg">
<g clip-path="url(#clip0_91_519)">
<path d="M21.7827 97.8338C18.3986 94.7701 18.1967 90.8749 18.4765 87.2623C18.9325 82.2422 19.931 77.2166 21.4112 72.4735C28.8027 50.8024 43.3444 35.1589 63.6575 24.9502C68.8313 22.3731 74.4594 20.494 80.4968 18.0997C76.2372 13.7672 69.8099 12.5878 65.1684 8.35519C67.5477 7.0528 69.5355 7.89479 71.2021 8.54841C78.0289 11.257 84.8891 14.0931 91.6553 17.0899C94.8944 18.5578 95.5819 20.1479 93.89 23.0405C90.4457 29.1136 85.4835 33.5413 79.0976 36.1629C78.843 36.2294 78.3612 35.9469 77.5916 35.6035C77.5599 29.7579 84.8938 29.203 86.2076 23.8227C76.8918 24.0787 68.8903 27.8031 61.3432 32.2256C53.4475 36.8753 46.1334 42.1898 40.2099 49.1831C34.3803 56.0156 30.2839 63.7567 26.7359 72.0351C23.0273 80.2194 21.5884 88.7635 21.7827 97.8338Z" fill="#387E32"/>
</g>
<defs>
<clipPath id="clip0_91_519">
<rect width="76.9646" height="93.3668" fill="white" transform="translate(19.6445 99.0039) rotate(-104.644)"/>
</clipPath>
</defs>
</svg>
