<svg width="115" height="106" viewBox="0 0 115 106" fill="none" xmlns="http://www.w3.org/2000/svg">
<g clip-path="url(#clip0_91_523)">
<path d="M86.1513 2.32883C89.8138 5.05364 90.3885 8.9115 90.4566 12.5343C90.4844 17.575 89.9728 22.6732 88.9545 27.5365C83.6766 49.8169 70.7031 66.7835 51.4633 78.8943C46.5607 81.9559 41.1389 84.3664 35.3591 87.329C40.0148 91.2327 46.5256 91.7899 51.5518 95.5577C49.3084 97.0824 47.249 96.435 45.5274 95.9443C38.4722 93.9032 31.3715 91.7386 24.349 89.4049C20.984 88.2545 20.1471 86.7377 21.5535 83.6962C24.3993 77.3205 28.9137 72.4371 35.0186 69.2148C35.2656 69.1242 35.7722 69.3592 36.5713 69.6272C37.1637 75.4427 29.9169 76.6989 29.1255 82.1804C38.3737 81.0317 45.9809 76.5567 53.0689 71.4304C60.482 66.0445 67.2523 60.0526 72.4775 52.5233C77.6245 45.1629 80.9592 37.0645 83.6965 28.4838C86.6027 19.9814 87.2151 11.3386 86.1513 2.32883Z" fill="#FF3184"/>
</g>
<defs>
<clipPath id="clip0_91_523">
<rect width="76.9646" height="93.3668" fill="white" transform="translate(88.167 0.957031) rotate(69.8498)"/>
</clipPath>
</defs>
</svg>
