<svg width="123" height="120" viewBox="0 0 123 120" fill="none" xmlns="http://www.w3.org/2000/svg">
<g style="mix-blend-mode:multiply">
<path d="M84.1573 37.5343C79.7268 32.0968 75.1621 26.4916 67.4087 23.7393C63.2803 22.2625 58.8162 22.8331 54.822 24.6456L42.9402 4.40623C42.4032 3.49999 41.497 1.956 39.8187 1.28471C38.1741 0.613426 36.2945 0.91552 34.247 2.19097L33.6764 2.56018C32.9716 3.03008 32.3003 3.43285 31.7633 3.49998C30.9242 3.5671 30.1857 4.13767 29.9172 4.94322C29.6487 5.74877 29.8501 6.62147 30.4543 7.22563C34.4149 11.1191 37.9056 15.5496 40.8592 20.3157C40.5236 20.1479 40.2551 20.0472 40.0201 19.9465C34.5827 17.6977 28.239 17.4292 22.6002 19.1745C13.8735 21.8933 6.25437 28.8411 1.11902 38.7426C0.749809 39.4139 0.816934 40.2865 1.21971 40.9242C1.7903 41.8641 1.99164 42.1661 9.97996 43.2402C12.6315 43.6094 17.1963 44.1465 18.2033 44.1465C23.7414 44.0122 29.1789 43.0053 34.3813 41.0921L34.6162 40.9914C36.865 40.1523 40.1879 38.944 43.1416 37.3329C41.8661 41.4613 41.8661 46.3282 43.2087 51.3964C44.4841 56.2632 46.7665 60.7608 48.9818 65.1242L49.7874 66.7017C52.0698 71.2329 54.3521 76.0662 55.0569 81.2015C55.4932 84.2894 55.3591 87.4446 55.2248 90.801C55.0234 96.4062 54.7885 102.213 57.3394 107.516C60.4944 114.095 67.8785 118.827 76.1689 119.532C82.714 120.103 89.9304 118.424 97.6166 114.531C104.531 111.04 110.203 106.61 114.332 101.508C115.909 99.5949 117.252 97.5474 118.359 95.4664C123.226 86.2697 123.293 75.1935 118.527 67.2388C114.6 60.6937 108.156 56.7331 101.913 52.9068C97.8516 50.423 93.656 47.8385 90.3331 44.6164C88.0843 42.4347 86.0704 39.9509 84.1237 37.6014L84.1573 37.5343ZM35.7574 6.42006C35.7574 6.42006 35.9589 6.28581 36.0596 6.21868L36.563 5.88302C37.5364 5.27886 38.0398 5.2453 38.2076 5.31243C38.5097 5.44669 38.9796 6.21867 39.181 6.62144L51.0292 26.8272C50.5929 27.1293 50.1565 27.465 49.7202 27.8342C46.3302 20.0137 41.5305 12.6966 35.7239 6.42006H35.7574ZM32.9045 36.9972C28.1384 38.7426 23.1707 39.6824 18.1361 39.7831C17.062 39.7831 10.1478 38.9104 6.38855 38.3062C9.51004 33.1038 15.1489 26.0552 23.9428 23.3029C28.6418 21.8597 33.9114 22.0946 38.409 23.9407C40.0872 24.6455 41.8997 25.6525 43.2423 26.7265C35.4218 25.0483 26.9971 25.7867 19.6465 28.9418C18.5389 29.4117 18.0354 30.6871 18.5053 31.7947C18.9752 32.9024 20.2507 33.4059 21.3583 32.936C28.474 29.9152 36.6637 29.4117 44.115 31.4255C41.497 33.8086 35.8246 35.8896 33.173 36.863L32.938 36.9637L32.9045 36.9972ZM99.6305 56.5988C105.672 60.3245 111.412 63.8487 114.768 69.454C118.762 76.1333 118.661 85.5314 114.5 93.419C109.901 102.079 101.712 107.55 95.6363 110.638C88.6885 114.162 82.2777 115.672 76.5382 115.169C69.7582 114.565 63.7837 110.805 61.2663 105.603C59.1854 101.24 59.3867 96.2383 59.5881 90.9352C59.7224 87.5452 59.8567 84.0209 59.3533 80.5638C58.5477 74.7907 56.0975 69.5883 53.6473 64.7214L52.8417 63.1439C50.7272 59.0155 48.579 54.7192 47.4042 50.2887C46.0281 45.0527 46.2966 40.1523 48.1427 36.4602C48.579 35.5539 49.1832 34.6813 49.8545 33.8422C53.6137 29.2103 60.4944 25.921 65.9318 27.8677C72.5105 30.2172 76.5381 35.1176 80.7672 40.3201C82.7811 42.8039 84.8957 45.3548 87.3123 47.7043C90.9709 51.2621 95.3678 53.9808 99.6305 56.5988Z" fill="#E2E2E2"/>
</g>
</svg>
