<svg width="125" height="82" viewBox="0 0 125 82" fill="none" xmlns="http://www.w3.org/2000/svg">
<g style="mix-blend-mode:multiply">
<path d="M113.624 23.7071C114.556 22.1919 116.092 20.6066 117.694 18.9537C120.732 15.7831 124.205 12.2074 124.619 7.87543C124.874 5.2225 123.89 3.11305 121.87 1.91503C118.335 -0.181512 112.77 1.18944 110.094 2.98204C108.054 4.33505 106.384 6.08885 104.782 7.7417C104.381 8.14653 103.98 8.55151 103.613 8.95616C92.5269 20.1898 76.5844 26.9169 59.8719 27.4721C44.1327 27.9888 27.7948 23.0376 13.8171 13.5765C12.1669 12.4773 9.70802 10.7779 6.95886 11.3961C4.91369 11.8429 3.17693 13.53 2.04877 16.0867C-0.538722 22.0745 0.674334 29.5868 5.23699 35.7394C6.2172 37.077 7.29748 38.2799 8.47805 39.4151C12.1886 43.0212 16.599 45.6503 20.6712 47.7777C26.4937 50.8695 32.2459 53.3575 37.8945 55.2418C36.1527 55.9556 34.344 56.7031 32.6024 57.4504C28.8513 59.0471 24.9326 60.6783 21.5492 61.971C19.6062 62.7194 16.6582 63.842 15.2622 66.5343C13.8661 69.1931 14.4546 72.7145 16.751 75.4551C17.055 75.8227 17.3587 76.1232 17.6625 76.4573C21.4403 80.0966 26.9828 80.941 31.482 81.2537C50.5537 82.5997 69.1915 77.839 83.9766 67.929C99.3636 57.5796 110.356 41.1774 113.557 23.9088C113.591 23.8415 113.624 23.8078 113.657 23.7405L113.624 23.7071ZM112.191 6.12644C114.165 4.80733 118.088 4.11595 119.906 5.18074C120.041 5.24718 120.176 5.34725 120.277 5.44742C120.648 5.78118 120.919 6.38394 120.825 7.52563C120.538 10.5144 117.7 13.4825 114.962 16.3159C114.027 17.2941 113.126 18.2386 112.325 19.1825C109.431 17.6869 107.002 15.3832 105.277 12.6397C105.61 12.3024 105.978 11.9985 106.312 11.6611C106.713 11.2563 107.113 10.8179 107.548 10.4129C109.083 8.82755 110.519 7.30977 112.225 6.15986L112.191 6.12644ZM7.74961 15.0843C8.82246 14.8439 10.1693 15.6761 11.6514 16.7091C26.2692 26.6368 43.4136 31.7853 59.9584 31.2645C75.7648 30.7475 90.9402 24.9641 102.37 15.2391C103.148 16.4099 104.026 17.4794 105.004 18.4814C92.3846 31.7703 74.1312 39.4828 55.8034 39.2071C37.0726 38.9 18.6685 30.2333 6.47889 15.9969C6.84604 15.5923 7.24684 15.2212 7.74979 15.1179L7.74961 15.0843ZM22.3992 44.3788C17.4853 41.7522 11.93 38.3904 8.24618 33.4417C5.13671 29.2284 3.8686 24.0994 4.78646 19.7984C5.76547 20.901 6.77788 21.97 7.85724 23.005C20.5741 35.3255 37.9982 42.6881 55.7219 42.9668C75.1574 43.2704 94.5159 35.0487 107.87 20.9505C108.544 21.417 109.217 21.8499 109.924 22.2491C109.924 22.2491 109.924 22.2827 109.924 22.3163C109.925 22.3834 109.892 22.4843 109.892 22.5514C108.794 24.4367 107.763 26.3551 106.766 28.2398C105.337 30.9994 104.007 33.5907 102.341 36.0159C94.7795 47.2316 80.4518 54.6889 64.9152 55.4395C58.8079 55.7392 52.4608 55.1002 45.9414 53.5559C45.4679 52.8535 44.5264 52.5227 43.6889 52.8291C43.6218 52.8294 43.555 52.897 43.4544 52.9311C36.5978 51.0865 29.5681 48.2357 22.3657 44.4125L22.3992 44.3788ZM22.8762 65.4885C26.3266 64.1619 30.2453 62.5309 34.03 60.934C37.3122 59.5411 40.6951 58.1475 43.7433 56.9236C51.1036 58.7993 58.2233 59.5686 65.1359 59.2312C66.7802 59.1557 68.4239 58.9795 70.034 58.7698C64.075 61.8211 57.6114 64.6401 50.8755 66.7219C39.3807 70.2377 28.1404 71 18.3291 68.969C18.3948 68.7002 18.4608 68.4648 18.5603 68.2293C19.2249 66.9169 20.9664 66.1695 22.8424 65.4551L22.8762 65.4885ZM81.8122 64.7514C67.7297 74.2214 49.9635 78.7427 31.7313 77.4596C27.6013 77.1786 22.5291 76.3989 19.7263 73.0903C29.7037 74.7847 40.5405 73.8903 52.0018 70.3746C63.7981 66.7565 74.6099 60.9281 83.6456 55.6795C83.9468 55.5101 84.147 55.2743 84.3134 55.0049C91.9501 51.8444 98.5378 47.0445 103.407 40.978C98.3532 50.3348 90.877 58.6299 81.8122 64.7514Z" fill="#E2E2E2"/>
</g>
</svg>
