<svg width="48" height="48" viewBox="0 0 48 48" fill="none" xmlns="http://www.w3.org/2000/svg">
<rect width="48" height="48" rx="24" fill="white"/>
<path d="M27.9955 34.0729C26.9597 34.0729 25.8688 33.8479 24.7413 33.4146C23.6413 32.9896 22.5322 32.4062 21.4505 31.6979C20.378 30.9812 19.3422 30.1812 18.3613 29.3062C17.3897 28.4146 16.5097 27.4729 15.7305 26.5062C14.9422 25.5062 14.3097 24.5062 13.8605 23.5396C13.3838 22.5062 13.1455 21.5062 13.1455 20.5646C13.1455 19.9146 13.2738 19.2979 13.5213 18.7229C13.778 18.1312 14.1905 17.5812 14.7497 17.1062C15.4555 16.4729 16.2622 16.1562 17.1238 16.1562C17.4813 16.1562 17.848 16.2312 18.1597 16.3646C18.5172 16.5146 18.8197 16.7396 19.0397 17.0396L21.1663 19.7646C21.3588 20.0062 21.5055 20.2396 21.6063 20.4729C21.7255 20.7229 21.7897 20.9729 21.7897 21.2146C21.7897 21.5312 21.6888 21.8396 21.4963 22.1312C21.3588 22.3562 21.148 22.5979 20.8822 22.8396L20.2588 23.4312C20.268 23.4562 20.2772 23.4729 20.2863 23.4896C20.3963 23.6646 20.6163 23.9646 21.038 24.4146C21.4872 24.8812 21.9088 25.3062 22.3305 25.6979C22.8713 26.1812 23.3205 26.5646 23.7422 26.8812C24.2647 27.2812 24.6038 27.4812 24.8055 27.5729L24.7872 27.6146L25.4563 27.0146C25.7405 26.7562 26.0155 26.5646 26.2813 26.4396C26.7855 26.1562 27.4272 26.1062 28.0688 26.3479C28.3072 26.4396 28.5638 26.5646 28.8388 26.7396L31.8822 28.7062C32.2213 28.9146 32.4688 29.1812 32.6155 29.4979C32.753 29.8146 32.8172 30.1062 32.8172 30.3979C32.8172 30.7979 32.7163 31.1979 32.5238 31.5729C32.3313 31.9479 32.093 32.2729 31.7905 32.5729C31.268 33.0979 30.6997 33.4729 30.0397 33.7146C29.4072 33.9479 28.7197 34.0729 27.9955 34.0729ZM17.1238 17.4062C16.6197 17.4062 16.1522 17.6062 15.703 18.0062C15.2813 18.3646 14.988 18.7562 14.8047 19.1812C14.6122 19.6146 14.5205 20.0729 14.5205 20.5646C14.5205 21.3396 14.7222 22.1812 15.1255 23.0479C15.538 23.9312 16.1155 24.8479 16.8488 25.7646C17.5822 26.6812 18.4163 27.5729 19.333 28.4146C20.2497 29.2396 21.2397 30.0062 22.2572 30.6812C23.2472 31.3396 24.2647 31.8729 25.273 32.2562C26.8405 32.8646 28.3072 33.0062 29.5172 32.5479C29.9847 32.3729 30.3972 32.1062 30.773 31.7229C30.9838 31.5146 31.1488 31.2896 31.2863 31.0229C31.3963 30.8146 31.4513 30.5979 31.4513 30.3812C31.4513 30.2479 31.4238 30.1146 31.3505 29.9646C31.323 29.9146 31.268 29.8229 31.0938 29.7146L28.0505 27.7479C27.8672 27.6312 27.7022 27.5479 27.5463 27.4896C27.3447 27.4146 27.2622 27.3396 26.9505 27.5146C26.7672 27.5979 26.6022 27.7229 26.4188 27.8896L25.7222 28.5146C25.3647 28.8312 24.8147 28.9062 24.393 28.7646L24.1455 28.6646C23.7697 28.4812 23.3297 28.1979 22.8438 27.8229C22.4038 27.4812 21.9272 27.0812 21.3497 26.5646C20.9005 26.1479 20.4513 25.7062 19.9838 25.2146C19.553 24.7562 19.2413 24.3646 19.0488 24.0396L18.9388 23.7896C18.8838 23.5979 18.8655 23.4896 18.8655 23.3729C18.8655 23.0729 18.9847 22.8062 19.2138 22.5979L19.9013 21.9479C20.0847 21.7812 20.2222 21.6229 20.3138 21.4812C20.3872 21.3729 20.4147 21.2812 20.4147 21.1979C20.4147 21.1312 20.3872 21.0312 20.3413 20.9312C20.2772 20.7979 20.1763 20.6479 20.048 20.4896L17.9213 17.7562C17.8297 17.6396 17.7197 17.5562 17.5822 17.4979C17.4355 17.4396 17.2797 17.4062 17.1238 17.4062ZM24.7872 27.6229L24.6405 28.1896L24.888 27.6062C24.8422 27.5979 24.8055 27.6062 24.7872 27.6229Z" fill="#FF3184"/>
<path d="M28.9583 23.237C28.5825 23.237 28.2708 22.9536 28.2708 22.612C28.2708 22.312 27.9408 21.687 27.3908 21.1536C26.85 20.6286 26.2542 20.3203 25.75 20.3203C25.3742 20.3203 25.0625 20.037 25.0625 19.6953C25.0625 19.3536 25.3742 19.0703 25.75 19.0703C26.6392 19.0703 27.5742 19.5036 28.39 20.2953C29.1508 21.037 29.6458 21.9453 29.6458 22.612C29.6458 22.9536 29.3342 23.237 28.9583 23.237Z" fill="#FF3184"/>
<path d="M32.1667 23.2396C31.7908 23.2396 31.4792 22.9563 31.4792 22.6146C31.4792 19.7396 28.9125 17.4062 25.75 17.4062C25.3742 17.4062 25.0625 17.1229 25.0625 16.7812C25.0625 16.4396 25.3742 16.1562 25.75 16.1562C29.6642 16.1562 32.8542 19.0563 32.8542 22.6146C32.8542 22.9563 32.5425 23.2396 32.1667 23.2396Z" fill="#FF3184"/>
</svg>
