<svg width="253" height="266" viewBox="0 0 253 266" fill="none" xmlns="http://www.w3.org/2000/svg">
<path d="M171.489 95.0096L153.756 121.238L157.92 89.4815C136.166 81.0817 107.854 72.0118 81.2658 65.1436L77.9392 84.7671L73.7751 63.253C53.1457 58.2035 34.072 54.6857 20.5744 54.0874L19.665 66.0769L15.5008 54.0156C8.24943 54.1353 3.24759 55.4036 1.3809 58.1557C-3.45336 65.335 5.4015 85.7961 19.8085 109.727L53.4329 94.7942L28.0411 122.817C40.3182 141.723 54.9646 161.586 68.4144 178.146L98.6644 137.176L78.3222 189.992C80.5001 192.505 82.6299 194.922 84.6641 197.147C99.8609 213.827 128.842 227.588 157.92 238.357L199.466 193.486L175.342 244.483C206.909 255.037 235.22 261.905 241.706 264.872C255.251 271.07 300.483 201.192 292.418 189.824C284.352 178.457 246.564 141.125 246.564 141.125C246.564 141.125 223.613 119.706 178.956 98.3839C176.659 97.283 174.146 96.1582 171.465 94.9856L171.489 95.0096Z" fill="#F1BED8"/>
<path d="M23.0874 75.125C23.0874 75.125 146.887 127.247 305.485 250.851" stroke="#DA0283" stroke-width="2.39311" stroke-miterlimit="10"/>
<path d="M260.421 79.7889L240.749 90.5339L253.672 71.9156C242.735 59.5671 227.874 44.682 213.395 31.7353L204.923 43.0069L209.303 28.1217C197.983 18.2382 187.118 9.8384 178.837 5.10005L174.386 12.3272L175.678 3.40093C171.083 1.12748 167.517 0.289884 165.459 1.41464C160.074 4.35817 158.997 20.1048 160.314 39.824L186.28 41.3556L161.223 50.7366C162.803 66.6029 165.555 83.8572 168.642 98.6227L200.95 82.6845L171.011 109.272C171.562 111.569 172.112 113.771 172.687 115.829C176.827 131.241 190.564 149.309 205.354 165.51L246.038 150.792L214.328 175.035C230.746 191.93 246.301 205.427 249.413 209.4C255.922 217.68 307.041 188.46 305.653 178.696C304.265 168.932 292.658 133.203 292.658 133.203C292.658 133.203 285.191 112.287 264.035 84.4076C262.958 82.9717 261.737 81.4402 260.421 79.8368V79.7889Z" fill="#F1BED8"/>
<path d="M173.571 19.1016C173.571 19.1016 234.478 92.0435 294.045 221.223" stroke="#DA0283" stroke-width="2.39311" stroke-miterlimit="10"/>
<path d="M231.343 165.858C231.343 165.858 187.523 157.65 169 179.355C150.477 201.061 199.968 220.206 231.343 165.858Z" fill="#FE0066"/>
<path d="M231.343 165.859C231.343 165.859 202.769 200.057 212.629 226.836C222.512 253.615 263.412 219.8 231.343 165.859Z" fill="#FE0066"/>
<path d="M231.343 165.86C231.343 165.86 247.21 207.524 275.402 212C303.594 216.475 294.093 164.257 231.343 165.86Z" fill="#FE0066"/>
<path d="M231.343 165.866C231.343 165.866 275.45 172.399 293.135 150C310.821 127.6 260.636 110.346 231.343 165.866Z" fill="#FE0066"/>
<path d="M231.343 165.864C231.343 165.864 258.602 130.589 247.713 104.217C236.823 77.8451 197.24 113.191 231.343 165.864Z" fill="#FE0066"/>
<path d="M231.343 165.865C231.343 165.865 213.896 124.848 185.561 121.449C157.225 118.051 168.713 169.862 231.343 165.865Z" fill="#FE0066"/>
<path d="M228.184 153.895C234.646 152.507 241.011 156.6 242.399 163.061C243.788 169.522 239.695 175.888 233.234 177.276C226.772 178.664 220.406 174.572 219.018 168.11C217.63 161.649 221.722 155.283 228.184 153.895Z" fill="white"/>
</svg>
