<svg width="1920" height="996" viewBox="0 0 1920 996" fill="none" xmlns="http://www.w3.org/2000/svg">
<path d="M1777.7 80.0136C1788.22 83.2619 1798.21 86.3437 1807.32 89.1477L1807.24 89.0645C1807.32 88.5925 1809.1 88.7035 1811.15 88.8979C1827.59 98.5317 1842.44 108.832 1855.68 118.577C1868.79 128.738 1880.36 138.233 1889.72 147.839C1894.44 152.559 1898.69 157.112 1902.41 161.471C1906.1 165.941 1909.24 170.3 1911.85 174.381C1917.07 182.571 1920.12 189.928 1920.73 196.286C1918.29 197.438 1910.59 195.253 1903.66 193.283C1899.73 192.167 1896.04 191.12 1893.69 190.789C1892.35 189.604 1891.08 188.471 1889.85 187.377C1885.26 183.294 1881.31 179.773 1876.73 176.269C1873.81 174.075 1870.65 171.91 1866.84 169.744C1863.01 167.69 1858.54 165.635 1853.13 163.498C1849.63 163.053 1845.44 162.082 1840.8 160.805C1839.99 160.581 1839.16 160.355 1838.32 160.126C1838.17 160.084 1838.02 160.043 1837.87 160.001L1837.87 160C1834.03 158.954 1829.93 157.834 1825.73 156.557C1820.45 154.947 1814.95 153.253 1809.57 151.587C1804.15 150.06 1798.82 148.561 1793.85 147.284C1788.89 146.007 1784.33 144.896 1780.39 144.202C1776.42 143.591 1773.14 143.342 1770.78 143.564C1766.09 144.036 1765.2 146.507 1770.2 152.17C1759.93 150.477 1751.79 148.367 1745.05 146.562C1738.33 144.702 1733.11 142.675 1728.89 140.537C1720.72 136.302 1716.16 132.041 1711.63 127.805L1711.23 127.433C1706.54 123.158 1701.74 118.91 1692.6 115.884C1688.02 114.44 1682.36 113.246 1675.14 112.441C1667.92 111.525 1659.09 111.358 1648.24 111.747C1644.41 112.608 1639.82 112.83 1634.74 112.719C1629.66 112.746 1624.11 112.358 1618.42 111.775C1610.46 110.86 1602.21 109.81 1594.6 108.842C1591.36 108.429 1588.23 108.031 1585.3 107.666C1575.5 106.333 1567.83 105.917 1565.17 106.916C1562.5 107.916 1564.84 110.525 1574.78 115.884C1569.94 118.341 1567.45 118.904 1557.73 121.093L1557.56 121.131C1552.4 119.882 1548.15 118.466 1545.01 117.105C1541.85 115.8 1539.79 114.468 1539.02 113.191C1537.43 110.72 1540.99 108.193 1551.12 107.333C1550.87 104.473 1535.41 104.168 1525.13 104.029C1516.44 106.139 1509.23 109.72 1502.45 113.413C1499.94 114.811 1497.49 116.209 1495.05 117.604C1490.89 119.977 1486.74 122.342 1482.35 124.685L1460.39 129.016C1452.39 127.072 1450.84 125.351 1452.78 123.546C1454.73 121.742 1460.06 120.048 1465.64 118.438C1466.15 118.287 1466.67 118.135 1467.19 117.984C1477.89 114.861 1488.59 111.737 1476.88 108.082C1452.37 108.055 1447.95 112.275 1443.95 116.3L1443.68 116.576C1439.76 120.538 1435.85 124.49 1412.97 125.656C1409.07 125.974 1404.71 126.369 1400.05 126.792L1400.05 126.792C1383.08 128.331 1362.18 130.227 1345.59 129.987C1324.38 129.654 1310.89 126.073 1322.91 117.161C1314.97 117.938 1307.19 117.855 1299.39 116.828C1295.5 116.356 1291.62 115.828 1287.73 115.134C1285.27 114.621 1282.79 114.119 1280.29 113.613C1278.87 113.326 1277.44 113.038 1276.02 112.746L1270.1 111.58C1269.24 111.387 1268.38 111.189 1267.52 110.989C1266.39 110.731 1265.26 110.471 1264.13 110.22C1260.11 109.359 1256.05 108.582 1251.89 107.943C1247.75 107.111 1243.5 106.416 1239.12 105.917C1237.71 105.738 1236.29 105.617 1234.85 105.495C1234.05 105.426 1233.24 105.358 1232.43 105.278C1230.15 105.028 1227.85 104.806 1225.49 104.667C1222.1 105.66 1220.44 107.466 1218.72 109.337C1217.65 110.499 1216.56 111.686 1215.02 112.719C1214.02 113.385 1212.8 113.996 1211.27 114.44C1209.74 114.829 1207.88 115.079 1205.58 115.134C1203.28 115.19 1200.5 115.023 1197.17 114.607C1195.5 114.384 1193.67 114.107 1191.7 113.746C1190.13 113.415 1188.48 112.945 1186.73 112.446C1186.27 112.316 1185.81 112.184 1185.34 112.052C1179.35 106.367 1175.31 101.954 1171.88 98.1998L1171.87 98.1984C1168.03 93.9974 1164.94 90.6202 1160.71 87.2043C1156.77 83.9005 1152.19 80.1246 1145.92 75.4049C1145.35 74.9878 1144.78 74.5596 1144.19 74.1215C1138.19 69.6605 1130.81 64.1719 1120.65 58.9135C1126.51 59.1356 1127.62 57.8308 1126.32 55.3598C1125.04 52.9444 1121.29 49.7239 1117.82 47.142C1117.34 46.7646 1116.87 46.4007 1116.41 46.0488C1115.24 45.1579 1114.18 44.3445 1113.41 43.5883C1112.32 42.6443 1111.77 41.7559 1112.32 41.0618C1112.88 40.34 1114.49 39.8125 1117.65 39.8125C1119.81 39.8316 1122.72 40.087 1126.39 40.8317C1122.82 39.9137 1119.77 39.0302 1117.1 38.1467C1116.19 37.8262 1115.33 37.5353 1114.5 37.2576C1113.54 36.9339 1112.63 36.6281 1111.77 36.3143C1110.19 35.7313 1108.74 35.0927 1107.44 34.4541C1104.83 33.0937 1102.63 32.2886 1100.55 31.5945C1098.47 30.9837 1096.47 30.5951 1094.33 31.2336C1094.39 29.7344 1096.39 28.6239 1099.89 27.8187C1101.63 27.43 1103.74 27.0136 1106.13 26.847C1108.49 26.7915 1111.18 26.847 1114.04 26.9859C1119.82 27.2357 1126.26 28.6516 1132.34 30.484C1138.45 32.3442 1144.22 34.6763 1149.28 36.8696C1151.01 37.6294 1152.66 38.3632 1154.23 39.0578C1161.81 42.4234 1167.32 44.8653 1169.71 44.8653C1171.13 44.8931 1171.43 44.088 1170.21 42.2001C1168.93 40.2844 1166.27 37.2582 1160.94 32.5107C1154.77 26.9303 1146.53 21.9052 1136.2 18.2404C1131.06 16.408 1125.48 14.9366 1119.62 14.0482C1116.71 13.715 1113.79 13.4651 1110.93 13.243C1110.23 13.2014 1109.51 13.1528 1108.8 13.1042C1108.08 13.0556 1107.37 13.0071 1106.66 12.9654C1105.95 12.9793 1105.24 13.0001 1104.54 13.0209C1103.83 13.0418 1103.12 13.0626 1102.41 13.0765C1101.87 13.098 1101.32 13.1185 1100.78 13.139C1098.52 13.224 1096.28 13.3085 1094.11 13.4651C1093.47 13.5518 1092.83 13.6385 1092.2 13.7247C1090.19 13.9978 1088.22 14.267 1086.25 14.5202C1085.75 14.5979 1085.24 14.6668 1084.74 14.7356C1083.97 14.8389 1083.21 14.9422 1082.48 15.0754L1078.9 15.825C1077.94 16.0157 1077 16.2063 1076.06 16.3951C1074.68 16.6738 1073.32 16.9484 1071.98 17.2132C1067.68 18.296 1063.54 19.2122 1059.77 19.9062C1056.1 20.7114 1052.6 21.1833 1049.33 21.2666C1046.66 20.7113 1045.44 19.7119 1045.55 18.3792C1045.66 17.0466 1047 15.3253 1049.66 13.4929C1050.97 12.549 1052.58 11.5772 1054.41 10.55C1055.32 10.0503 1056.32 9.52276 1057.35 8.99526C1058 8.73612 1058.67 8.4581 1059.35 8.1722C1059.84 7.96801 1060.34 7.75981 1060.85 7.5516C1063.29 6.57989 1065.96 5.58038 1068.82 4.60866C1071.82 3.77577 1075.01 2.97063 1078.37 2.22102C1080.92 1.54973 1083.78 1.21624 1086.68 0.878033C1087.5 0.782629 1088.32 0.686849 1089.14 0.583004C1089.6 0.535715 1090.06 0.485137 1090.52 0.434471C1091.95 0.27692 1093.39 0.118519 1094.86 0.055496C1096.83 0.0277327 1098.8 0 1100.8 0C1101.46 0.0091964 1102.13 0.0214387 1102.79 0.0336999C1104.14 0.0584545 1105.49 0.0832863 1106.83 0.0832863C1108.17 0.12016 1109.51 0.279454 1110.84 0.439229C1111.52 0.520055 1112.2 0.601004 1112.88 0.66629C1113.76 0.781433 1114.64 0.888639 1115.51 0.995705C1118.66 1.37914 1121.78 1.76077 1124.84 2.49867C1140.67 5.96908 1152.47 11.7438 1160.16 15.5752C1160.57 15.7938 1161 16.0208 1161.44 16.2553C1164.76 18.0168 1168.87 20.2031 1172.82 22.4327C1177.34 24.9314 1181.65 27.4301 1185.09 29.5678C1191.86 33.538 1196.83 37.2027 1193.92 39.6736C1195.19 39.8472 1196.43 40.0744 1197.65 40.2994C1198.18 40.3982 1198.72 40.4966 1199.25 40.5898C1201.05 40.8119 1202.83 41.0618 1204.55 41.3672C1207.78 41.8884 1210.87 42.6542 1213.92 43.4121L1214.52 43.5605C1217.85 44.2268 1221.07 45.0042 1224.21 45.9482C1224.59 46.0685 1224.97 46.1889 1225.35 46.3088C1226.54 46.687 1227.72 47.0613 1228.9 47.4196C1230.48 47.8361 1232.07 48.2802 1233.65 48.7522C1236.79 49.6961 1239.9 50.7789 1242.95 51.9172L1243.55 52.1084C1246.49 53.0446 1249.45 53.987 1252.36 55.0267C1256.19 56.47 1260.12 57.7431 1264.07 59.0238C1266.5 59.8125 1268.94 60.6041 1271.38 61.44C1297.06 69.7134 1325.04 75.3494 1355.47 67.1315C1363.67 67.6539 1369.34 69.26 1374.92 70.8409C1383.57 73.2928 1392.02 75.6841 1409.33 73.878C1404.14 68.5474 1418.22 66.3541 1436.32 64.9382C1442.89 64.4057 1450.01 64.0768 1456.9 63.7581C1469.06 63.1961 1480.54 62.6659 1487.13 61.1069C1511.28 60.6904 1537.46 60.4683 1561.95 62.0508C1562.76 62.0989 1563.58 62.1465 1564.39 62.1941C1569.66 62.503 1574.86 62.8078 1579.94 63.2169C1585.77 63.7999 1591.46 64.4107 1596.93 65.0493C1598.45 65.2419 1599.95 65.4218 1601.44 65.5994C1605.3 66.0619 1609.05 66.5098 1612.62 67.1315C1617.56 67.9922 1622.25 68.8528 1626.58 69.7412C1631.25 70.0743 1636.58 70.2132 1641.6 70.2132C1646.6 70.3242 1651.32 70.241 1654.82 69.9078C1661.79 69.2693 1663.78 67.6867 1653.07 64.8271C1659.76 65.7433 1666.12 67.4924 1672.25 69.4358C1675.13 70.429 1677.95 71.4775 1680.73 72.5118C1683.86 73.6751 1686.94 74.8204 1689.99 75.8491C1701.57 79.6527 1712.62 82.5123 1724.84 79.0975C1712.04 75.6108 1704.92 73.0796 1699.29 71.0814C1698.56 70.8202 1697.85 70.5682 1697.16 70.3243C1695.93 69.8758 1694.77 69.4354 1693.61 68.9963C1689.08 67.2879 1684.61 65.5984 1677.17 63.5222C1687.88 62.6616 1699.21 62.8004 1710.62 64.1885C1716.31 64.9104 1722.06 65.8266 1727.78 66.8816L1736.36 68.5752C1739.02 69.1705 1741.64 69.8383 1744.28 70.511L1744.85 70.6574C1756.12 73.6003 1767.26 76.571 1777.7 80.0136Z" fill="#FF3184"/>
<path d="M1064.71 35.7312C1063.58 41.854 1073.24 45.6491 1084.94 50.2497C1090.86 52.5749 1097.3 55.1059 1103.13 58.2472C1100.47 62.7171 1098.3 67.2147 1096.58 71.6568C1090.92 68.5751 1081.23 69.2415 1070.71 73.5448C1061.24 77.3219 1051.26 83.7681 1041.86 89.8375L1041.84 89.8509C1040.75 90.5579 1039.66 91.2598 1038.58 91.9517C1035.86 95.0769 1039.26 94.0682 1042.67 93.0566C1043.32 92.864 1043.97 92.6713 1044.58 92.507C1046.47 92.035 1048 91.8129 1047.86 92.5903C1047.75 93.3954 1046.02 95.089 1041.36 98.9481C1040.03 98.8711 1039.2 98.192 1038.38 97.5109C1037.11 96.4739 1035.85 95.4324 1032.78 96.5049C1028.64 100.281 1026.51 103.307 1024.95 106.139C1024.34 107.256 1023.82 108.333 1023.3 109.41C1022.53 111.007 1021.76 112.604 1020.68 114.329C1019.79 115.773 1018.68 117.272 1017.18 118.938C1015.62 120.631 1013.65 122.464 1011.13 124.546C1008.54 126.628 1005.24 128.96 1001.1 131.598C996.745 134.18 991.553 137.15 985.251 140.288C983.988 140.468 982.731 140.65 981.479 140.832C976.18 141.601 970.965 142.358 965.733 142.897C923.089 163.387 876.003 177.574 827.667 180.877C803.568 182.543 779.22 181.433 755.677 177.213C754.329 176.958 752.982 176.71 751.637 176.462C750.045 176.168 748.456 175.876 746.876 175.575C743.961 174.908 741.075 174.187 738.188 173.465L738.186 173.465C737.591 173.31 736.997 173.156 736.405 173.002C734.12 172.407 731.85 171.817 729.579 171.244C726.776 170.411 724 169.523 721.225 168.634L721.223 168.634C710.228 164.997 699.706 160.86 689.878 156.251C681.438 156.779 667.057 152.337 652.314 147.09C650.536 146.459 648.752 145.822 646.967 145.184C633.898 140.514 620.829 135.845 610.447 134.013L611.336 130.015C603.756 130.904 595.483 127.433 587.154 123.768L586.32 123.384L586.315 123.382L586.31 123.379C584.488 122.539 582.684 121.706 580.879 120.937C580.247 120.667 579.614 120.384 578.981 120.101L578.979 120.1C577.528 119.452 576.073 118.801 574.605 118.299C570.413 116.8 566.276 115.523 562.389 114.856C560.224 113.635 558.003 112.635 555.754 111.664L548.952 108.637C547.813 106.777 549.84 106.055 553.366 105.806C555.143 105.695 557.281 105.695 559.585 105.75C561.079 105.75 562.62 105.925 564.17 106.101C565.01 106.197 565.853 106.293 566.693 106.361C571.468 106.805 576.076 107.11 578.853 106.5C581.601 106.028 582.573 104.556 579.908 101.308C564.832 94.8669 550.729 94.6448 537.597 95.6998C534.293 95.9496 531.072 96.1717 527.852 96.3106C526.592 96.3649 525.331 96.4575 524.071 96.55C522.111 96.694 520.15 96.8381 518.19 96.8381C514.97 96.8936 511.721 96.7548 508.445 96.3661C505.141 96.144 501.754 95.6998 498.256 94.8669C494.869 94.7281 491.954 94.617 489.4 94.728C486.845 94.8946 484.68 95.089 482.792 95.3388C479.016 95.8386 476.379 96.5327 474.102 97.3101C472.497 97.8646 471.059 98.5044 469.517 99.19C466.661 100.461 463.45 101.889 458.166 103.224C456.267 105.583 457.916 106.384 459.784 107.292C461.521 108.137 463.448 109.073 462.886 111.442C460.481 111.799 458.165 112.169 455.93 112.527C451.402 113.25 447.207 113.92 443.285 114.329C441.703 114.471 440.165 114.622 438.667 114.769C434.62 115.165 430.867 115.533 427.321 115.634C417.604 115.856 409.525 115.717 401.529 115.162C401.044 115.146 400.56 115.129 400.075 115.113C384.683 114.591 369.203 114.065 344.226 124.213C344.021 125.193 341.216 127.617 337.946 130.441L337.945 130.442C335.013 132.976 331.706 135.832 329.567 138.261C325.041 143.508 325.68 146.784 345.42 141.842C348.852 139.559 352.329 137.397 355.822 135.224C357.894 133.936 359.972 132.643 362.05 131.32C365.057 131.266 368.077 131.365 371.077 131.464L371.08 131.464L371.086 131.464L371.099 131.464L371.101 131.464C372.69 131.517 374.274 131.569 375.848 131.598C374.652 132.009 373.36 132.427 372.006 132.866L372 132.867L371.998 132.868C369.425 133.701 366.625 134.607 363.827 135.679C359.523 137.261 355.137 138.955 351.333 140.565C343.754 143.897 338.534 147.173 340.839 148.755C328.9 144.924 306.523 158.361 291.198 168.412C290.457 168.891 289.732 169.362 289.024 169.822C282.352 174.153 277.201 177.497 275.068 177.823C272.708 178.184 273.957 174.686 281.037 164.941C287.339 163.081 292.447 161.388 296.778 159.833C301.109 158.306 304.663 156.834 307.828 155.141C314.158 151.726 319.044 148.006 325.541 141.842C298.444 152.087 272.624 162.248 247.887 172.521C223.206 182.793 199.718 193.204 177.508 204.476L167.596 217.275C163.57 211.75 139.916 218.913 117.511 227.714C114.694 229.634 111.475 231.463 108.567 233.115C102.561 236.527 97.8797 239.186 100.798 240.346C100.159 241.762 104.907 240.291 111.82 237.709C117.653 235.418 125.114 232.464 132.134 229.685L135.779 228.241C151.771 222.078 163.959 218.83 147.301 233.794C121.565 245.066 94.1623 255.588 68.2592 263.112C42.3839 270.691 18.0633 275.161 -0.732422 276.105C5.45878 273.607 11.2336 271.469 16.814 269.414C22.3666 267.249 27.6416 265.028 32.9166 262.668C43.3833 257.754 53.628 251.785 64.5112 242.151C98.5206 223.563 133.497 204.899 168.469 186.237L168.471 186.237C175.808 182.321 183.145 178.406 190.473 174.492C194.127 172.544 197.777 170.598 201.423 168.655C239.959 148.116 277.948 127.867 314.269 107.805C316.336 109.12 321.6 108.647 326.613 108.197C333.451 107.583 339.82 107.011 336.952 111.081C340.541 111.192 345.919 109.496 351.607 107.702C353.004 107.262 354.419 106.815 355.831 106.389C363.021 104.39 370.157 102.946 374.043 105.167C389.813 98.6427 406.749 92.8124 424.323 88.7867C431.1 87.001 438.01 85.7655 444.951 84.5247L444.952 84.5245C446.967 84.1641 448.985 83.8033 451.003 83.4285L464.524 81.7072C465.367 81.6134 466.21 81.508 467.054 81.4026C468.459 81.2269 469.865 81.0512 471.27 80.9298L478.017 80.4856C496.007 78.9864 513.859 79.5971 530.822 81.0408C533.322 81.3204 535.812 81.6097 538.287 81.8973L538.303 81.8992L538.308 81.8997C540.004 82.0967 541.692 82.2929 543.371 82.4845C545.454 82.6789 547.48 83.012 549.507 83.4007L550.425 83.5643C552.138 83.8701 553.835 84.1729 555.532 84.4557C557.528 84.8161 559.497 85.1489 561.465 85.4816L561.467 85.4818L561.469 85.4822L561.473 85.4829C563.444 85.7883 565.388 86.1492 567.276 86.6767C571.079 87.5929 574.855 88.4814 578.52 89.342C575.077 85.5107 575.632 83.6227 578.853 82.9287C580.463 82.5955 582.74 82.5123 585.433 82.7344C588.126 83.0398 591.263 83.5673 594.678 84.2058C600.792 85.4412 607.63 87.3721 614.128 89.2068C622.087 91.4542 629.535 93.5574 634.518 94.0617C646.328 103.49 668.367 111.642 686.806 118.462C689.434 119.435 691.989 120.38 694.431 121.297C695.48 120.921 697.81 121.183 700.252 121.457C704.469 121.931 709.021 122.443 707.896 119.771C697.783 117.091 692.594 114.117 685.871 110.264L685.87 110.264L685.869 110.263L685.868 110.262C682.699 108.446 679.19 106.435 674.664 104.168C680.3 100.715 690.335 106.249 702.228 112.807C710.134 117.167 718.861 121.98 727.664 124.907C723.333 125.24 718.974 125.517 714.587 125.656C720.561 127.835 726.692 130.269 732.965 132.76C745.875 137.885 759.386 143.25 773.362 147.117C793.99 152.892 815.479 155.196 833.192 150.144L817.95 146.284C814.615 145.345 811.316 144.295 808.055 143.257L808.048 143.255L808.042 143.253L808.039 143.252C806.391 142.727 804.753 142.206 803.124 141.703C809.355 141.464 815.789 141.334 822.335 141.203L822.337 141.203C838.512 140.877 855.374 140.538 871.561 138.483C894.215 135.734 915.26 129.488 928.198 118.882C923.288 120.191 917.876 121.858 912.262 123.589C902.033 126.741 891.13 130.101 881.361 131.875C877.928 132.695 874.589 133.066 871.564 133.402C871.311 133.43 871.06 133.458 870.811 133.486C867.59 133.791 864.703 133.985 862.26 133.846C857.374 133.402 854.431 131.986 854.292 129.127C854.514 127.572 856.652 126.184 859.983 124.99C863.315 123.768 867.757 122.408 872.699 121.409C874.452 121.064 876.247 120.67 878.061 120.272C881.362 119.549 884.728 118.811 888.024 118.327C889.53 118.072 891.006 117.804 892.438 117.545C895.838 116.93 898.988 116.36 901.684 116.106C918.231 114.135 933.25 108.998 946.577 102.141C949.15 100.833 951.624 99.3593 954.075 97.8992C954.797 97.4688 955.518 97.0395 956.238 96.616C956.629 96.3789 957.021 96.14 957.414 95.9003C957.804 95.663 958.194 95.4248 958.583 95.1867C959.368 94.7076 960.153 94.2285 960.93 93.7564C962.43 92.7014 963.901 91.6742 965.4 90.6469C966.227 90.0543 967.051 89.4705 967.873 88.8886L967.874 88.8875C969.977 87.3981 972.062 85.9213 974.118 84.3446C975.099 83.5729 976.077 82.811 977.054 82.0499L977.063 82.0429L977.069 82.0383L977.077 82.0322C978.94 80.5814 980.798 79.1334 982.669 77.626C983.677 76.8224 984.686 76.0162 985.696 75.2086C996.065 66.9206 1006.61 58.4911 1018.68 51.3064C1031.87 43.5327 1047.19 37.0916 1064.57 35.7867L1064.71 35.7312Z" fill="#FF3184"/>
<path d="M1329.46 64.4107C1325.74 64.9382 1321.44 65.0493 1317.08 64.9937C1312.72 64.8827 1308.3 64.6884 1304.58 63.9943C1297.09 62.7172 1292.03 60.6349 1294.2 57.9696L1291.45 54.5548C1294.48 54.7214 1299.89 55.0268 1305.92 55.3877C1307.55 55.4775 1309.24 55.5572 1310.94 55.6377L1310.94 55.6378C1315.56 55.8559 1320.3 56.0799 1324.38 56.526C1335.71 57.4422 1342.45 59.4967 1329.46 64.4385V64.4107Z" fill="#FF3184"/>
<path d="M1332.74 141.148L1327.02 140.038V140.066C1323.99 138.761 1325.3 138.094 1327.57 137.428C1328.14 137.255 1328.77 137.086 1329.42 136.912L1329.43 136.909C1331.37 136.388 1333.44 135.831 1334.32 135.04C1328.77 134.624 1323.35 135.068 1319.35 135.957C1315.36 136.845 1312.83 138.233 1313.05 139.594C1318.55 139.455 1327.04 140.121 1332.74 141.148Z" fill="#FF3184"/>
<path d="M968.837 67.4697L968.927 67.4091H969.01L968.837 67.4697Z" fill="#FF3184"/>
<path d="M967.786 67.8386L968.837 67.4697C966.97 68.7347 965.258 69.8644 963.677 70.9073C960.546 72.9728 957.931 74.6984 955.656 76.4599C954.762 77.1628 953.912 77.8193 953.104 78.4422L953.097 78.448C950.846 80.1847 948.934 81.6603 947.382 83.1508C945.244 85.122 943.69 86.9267 942.44 88.648C941.163 90.3138 940.108 91.813 939.081 93.3677L938.813 93.7579L938.811 93.7605L938.809 93.7632L938.807 93.766C936.816 96.6668 934.769 99.6494 930.336 102.835C928.003 104.445 925.005 106.139 921.118 107.999C917.393 109.808 912.623 111.311 906.807 113.144L906.043 113.385C908.181 109.443 902.906 108.332 895.16 108.193C893.216 108.193 891.134 108.277 888.968 108.443C888.122 108.497 887.254 108.539 886.376 108.581C885.006 108.647 883.609 108.713 882.222 108.832C879.191 109.072 876.147 109.46 873.23 109.832L873.226 109.832C871.763 110.019 870.332 110.201 868.951 110.359C854.914 116.327 837.023 116.269 823.306 116.224L823.302 116.224C822.858 116.223 822.419 116.221 821.985 116.22C821.294 116.218 820.615 116.217 819.949 116.217C815.118 115.745 813.092 113.302 814.591 111.386C816.09 109.498 821.004 107.388 830.138 107.111C841.549 109.498 853.987 109.581 866.341 107.333C872.32 106.479 878.222 104.829 884.145 103.173L884.859 102.974C886.982 102.4 889.066 101.655 891.146 100.911L891.151 100.909C892.089 100.574 893.026 100.239 893.966 99.9199C894.639 99.6768 895.315 99.4379 895.991 99.1988L895.996 99.1972C898.331 98.3719 900.674 97.544 902.933 96.5327C904.403 95.9226 905.866 95.3125 907.329 94.7024C908.795 94.0909 910.261 93.4794 911.734 92.868C913.421 92.1449 915.071 91.3568 916.711 90.5735L916.714 90.5723C917.906 90.0026 919.093 89.4355 920.285 88.8979C923.263 87.6319 926.137 86.2093 928.983 84.8001L928.985 84.7995C931.631 83.4894 934.254 82.191 936.915 81.0408C938.07 80.4991 939.204 79.9324 940.333 79.3682L940.334 79.3677C941.866 78.6021 943.389 77.8412 944.939 77.154C946.171 76.5767 947.414 76.041 948.65 75.5084C950.089 74.8883 951.518 74.2723 952.907 73.6003C957.745 71.3613 962.631 69.6471 967.786 67.8386Z" fill="#FF3184"/>
<path d="M814.047 126.379L814.063 126.378V126.406L814.047 126.379Z" fill="#FF3184"/>
<path d="M758.425 106.633C760.894 107.524 763.718 108.439 766.782 109.248C768.083 109.604 769.411 110.003 770.763 110.41C772.471 110.923 774.218 111.449 776 111.914C779.22 112.691 782.496 113.552 785.717 114.44C787.404 114.964 789.085 115.381 790.737 115.791C792.238 116.163 793.716 116.531 795.156 116.966C797.965 117.739 800.582 118.68 802.985 119.543L803.541 119.743C808.604 121.514 812.482 123.671 814.047 126.379C805.55 126.627 791.29 125.376 779.609 121.742C773.723 120.187 768.504 117.883 764.783 115.717C761.063 113.579 758.898 111.358 759.064 109.276C758.321 108.877 758.373 108.269 758.43 107.611C758.458 107.291 758.487 106.959 758.425 106.633Z" fill="#FF3184"/>
<path d="M752.595 104.334C754.179 105.013 756.152 105.813 758.425 106.633C758.235 105.628 757.186 104.683 752.595 104.334Z" fill="#FF3184"/>
<path d="M790.446 140.223L790.437 140.204L790.464 140.232L790.446 140.223Z" fill="#FF3184"/>
<path d="M776.055 136.262C781.433 136.983 786.479 138.368 790.446 140.223C791.92 143.287 788.039 143.534 783.19 142.536C780.944 142.062 778.503 141.403 776.274 140.801C773.681 140.102 771.376 139.48 770.003 139.316L759.925 134.818C764.675 134.974 769.91 135.567 774.995 136.142L776.055 136.262Z" fill="#FF3184"/>
<path d="M649.094 77.9313C636.9 71.7721 644.169 72.6065 650.787 73.3661C657.414 74.1267 663.388 74.8124 648.511 68.3252L666.112 74.5163L668.75 85.7327L649.094 77.9313Z" fill="#FF3184"/>
<path d="M611.863 55.6044L611.974 55.6096V55.6374L611.863 55.6044Z" fill="#FF3184"/>
<path d="M611.863 55.6044C607.682 55.405 603.602 54.823 598.759 53.7773C593.956 52.5557 588.403 51.0842 581.435 48.5856L590.124 47.0031C591.568 46.9754 592.984 47.2529 594.456 47.8082C595.896 48.379 597.39 49.1628 599.042 50.0292L599.148 50.0848C600.841 50.9732 602.729 51.945 604.839 52.8889C606.893 53.8748 609.19 54.8066 611.863 55.6044Z" fill="#FF3184"/>
<path d="M638.793 87.704C630.693 86.0382 629.103 83.9405 627.213 81.4459C626.111 79.9907 624.906 78.4004 622.247 76.682C625.051 76.21 632.463 79.9025 637.405 83.3174C642.375 86.7323 645.012 89.7584 638.793 87.704Z" fill="#FF3184"/>
<path d="M520.661 114.135C516.857 114.69 513.554 115.717 510.972 117.494L510.944 117.549C516.608 118.021 521.383 118.077 525.686 118.021C529.962 118.16 533.765 118.021 537.513 117.772C541.289 117.411 544.926 117.327 548.924 117.272C550.923 117.244 553.005 117.216 555.226 117.216C556.337 117.244 557.475 117.244 558.669 117.244C559.751 117.296 560.858 117.419 562.01 117.547L562.278 117.577L558.558 117.133L554.81 116.772C552.311 116.494 549.84 116.134 547.397 115.773C542.794 114.9 538.191 114.506 533.852 114.134L533.21 114.079C528.685 113.69 524.465 113.468 520.661 114.135Z" fill="#FF3184"/>
<path d="M1520.36 49.3908C1531.58 52.3337 1544.85 50.3902 1552.76 48.7522C1552.09 48.4102 1551.41 48.0578 1550.74 47.7048C1549.49 47.055 1548.24 46.403 1546.98 45.8093L1520.36 49.363V49.3908Z" fill="#FF3184"/>
<path d="M1368.1 59.2771C1358.23 58.774 1353.45 58.5303 1360.11 52.6946V52.7224C1379.88 49.3631 1404.89 46.9754 1430.02 45.8649C1442.57 45.3374 1455.12 45.1153 1466.83 45.4207C1470.57 45.5097 1474.21 45.6103 1477.73 45.7076L1477.75 45.708C1479.71 45.7622 1481.63 45.8153 1483.52 45.8649C1487.53 46.034 1491.34 46.3318 1494.92 46.6114C1496.04 46.699 1497.13 46.7848 1498.21 46.8643C1496.34 47.3825 1494.49 47.8824 1492.63 48.3816C1488.42 49.5142 1484.23 50.6432 1480.05 51.9727C1472.58 52.1393 1465 52.7502 1457.42 53.5831C1451.96 54.1834 1446.54 55.0433 1441.12 55.903L1441.11 55.904C1439.02 56.2367 1436.92 56.5694 1434.82 56.8869C1419.91 59.3301 1405.11 61.7454 1390.71 61.8842C1382.23 59.9975 1374.19 59.5879 1368.1 59.2771Z" fill="#FF3184"/>
<path d="M1777.7 799.685C1788.22 802.933 1798.21 806.015 1807.32 808.819L1807.24 808.736C1807.32 808.264 1809.1 808.375 1811.15 808.569C1827.59 818.203 1842.44 828.503 1855.68 838.248C1868.79 848.41 1880.36 857.904 1889.72 867.511C1894.44 872.23 1898.69 876.784 1902.41 881.142C1906.1 885.612 1909.24 889.971 1911.85 894.052C1917.07 902.242 1920.12 909.6 1920.73 915.957C1918.29 917.109 1910.59 914.924 1903.66 912.955C1899.73 911.839 1896.04 910.792 1893.69 910.46C1892.35 909.276 1891.08 908.142 1889.85 907.049C1885.26 902.965 1881.31 899.444 1876.73 895.94C1873.81 893.747 1870.65 891.581 1866.84 889.416C1863.01 887.361 1858.54 885.307 1853.13 883.169C1849.63 882.725 1845.44 881.753 1840.8 880.476C1839.84 880.212 1838.86 879.945 1837.87 879.672C1834.04 878.626 1829.93 877.506 1825.73 876.228C1820.45 874.618 1814.95 872.924 1809.57 871.259C1804.15 869.732 1798.82 868.232 1793.85 866.955C1788.89 865.678 1784.33 864.568 1780.39 863.874C1776.42 863.263 1773.14 863.013 1770.78 863.235C1766.09 863.707 1765.2 866.178 1770.2 871.842C1759.93 870.148 1751.79 868.038 1745.05 866.233C1738.33 864.373 1733.11 862.347 1728.89 860.209C1720.72 855.974 1716.16 851.713 1711.63 847.476L1711.23 847.105C1706.54 842.829 1701.74 838.581 1692.6 835.555C1688.02 834.111 1682.36 832.918 1675.14 832.112C1667.92 831.196 1659.09 831.03 1648.24 831.418C1644.41 832.279 1639.82 832.501 1634.74 832.39C1629.66 832.418 1624.11 832.029 1618.42 831.446C1610.46 830.532 1602.21 829.481 1594.6 828.514C1591.36 828.101 1588.23 827.703 1585.3 827.337C1575.5 826.005 1567.83 825.588 1565.17 826.588C1562.5 827.587 1564.84 830.197 1574.78 835.555C1569.94 838.012 1567.45 838.575 1557.73 840.765L1557.56 840.802C1552.4 839.553 1548.15 838.137 1545.01 836.777C1541.85 835.472 1539.79 834.139 1539.02 832.862C1537.43 830.391 1540.99 827.865 1551.12 827.004C1550.87 824.144 1535.41 823.839 1525.13 823.7C1516.44 825.81 1509.23 829.392 1502.45 833.084C1499.94 834.482 1497.49 835.88 1495.05 837.275C1490.89 839.648 1486.74 842.013 1482.35 844.356L1460.39 848.687C1452.39 846.744 1450.84 845.022 1452.78 843.218C1454.73 841.413 1460.06 839.72 1465.64 838.109C1466.15 837.958 1466.67 837.807 1467.19 837.656C1477.89 834.532 1488.59 831.408 1476.88 827.754C1452.37 827.726 1447.95 831.946 1443.95 835.972L1443.68 836.247C1439.76 840.21 1435.85 844.161 1412.97 845.328C1409.07 845.645 1404.71 846.041 1400.05 846.464C1383.08 848.003 1362.18 849.898 1345.59 849.659C1324.38 849.326 1310.89 845.744 1322.91 836.832C1314.97 837.61 1307.19 837.526 1299.39 836.499C1295.5 836.027 1291.62 835.5 1287.73 834.805C1285.27 834.292 1282.79 833.79 1280.29 833.285C1278.87 832.998 1277.44 832.71 1276.02 832.418L1270.1 831.252C1269.24 831.059 1268.38 830.86 1267.52 830.661C1266.39 830.402 1265.26 830.142 1264.13 829.891C1260.11 829.031 1256.05 828.253 1251.89 827.615C1247.75 826.782 1243.5 826.088 1239.12 825.588C1237.71 825.41 1236.29 825.289 1234.85 825.166C1234.05 825.098 1233.24 825.029 1232.43 824.95C1230.15 824.7 1227.85 824.478 1225.49 824.339C1222.1 825.332 1220.44 827.138 1218.72 829.008C1217.65 830.17 1216.56 831.358 1215.02 832.39C1214.02 833.056 1212.8 833.667 1211.27 834.111C1209.74 834.5 1207.88 834.75 1205.58 834.805C1203.28 834.861 1200.5 834.694 1197.17 834.278C1195.5 834.056 1193.67 833.778 1191.7 833.417C1190.13 833.087 1188.48 832.616 1186.73 832.117C1186.27 831.987 1185.81 831.855 1185.34 831.724C1179.35 826.037 1175.31 821.624 1171.87 817.87C1168.03 813.669 1164.94 810.292 1160.71 806.876C1156.77 803.572 1152.19 799.796 1145.92 795.076C1145.35 794.659 1144.78 794.231 1144.19 793.793C1138.19 789.332 1130.81 783.843 1120.65 778.585C1126.51 778.807 1127.62 777.502 1126.32 775.031C1125.04 772.616 1121.29 769.395 1117.82 766.813C1117.34 766.437 1116.87 766.073 1116.41 765.722L1116.41 765.72C1115.24 764.829 1114.18 764.016 1113.41 763.26C1112.32 762.316 1111.77 761.427 1112.32 760.733C1112.88 760.011 1114.49 759.484 1117.65 759.484C1119.81 759.503 1122.72 759.758 1126.39 760.503C1122.82 759.585 1119.77 758.702 1117.1 757.818C1116.19 757.498 1115.33 757.207 1114.5 756.929C1114.5 756.928 1114.5 756.927 1114.49 756.926C1113.54 756.604 1112.63 756.299 1111.77 755.986C1110.19 755.403 1108.74 754.764 1107.44 754.126C1104.83 752.765 1102.63 751.96 1100.55 751.266C1098.47 750.655 1096.47 750.266 1094.33 750.905C1094.39 749.406 1096.39 748.295 1099.89 747.49C1101.63 747.101 1103.74 746.685 1106.13 746.518C1108.49 746.463 1111.18 746.518 1114.04 746.657C1119.82 746.907 1126.26 748.323 1132.34 750.155C1138.45 752.016 1144.22 754.348 1149.28 756.541C1151.01 757.301 1152.66 758.035 1154.23 758.729L1154.23 758.73C1161.81 762.095 1167.32 764.537 1169.71 764.537C1171.13 764.565 1171.43 763.759 1170.21 761.871C1168.93 759.956 1166.27 756.93 1160.94 752.182C1154.77 746.602 1146.53 741.577 1136.2 737.912C1131.06 736.079 1125.48 734.608 1119.62 733.72C1116.71 733.386 1113.79 733.137 1110.93 732.914C1110.23 732.873 1109.51 732.824 1108.8 732.776L1108.8 732.776C1108.08 732.727 1107.37 732.678 1106.66 732.637C1105.95 732.651 1105.24 732.672 1104.54 732.692H1104.54C1103.83 732.713 1103.12 732.734 1102.41 732.748C1101.88 732.769 1101.35 732.789 1100.82 732.809C1100.81 732.809 1100.79 732.81 1100.78 732.81C1098.52 732.895 1096.28 732.98 1094.11 733.137C1093.53 733.215 1092.95 733.293 1092.38 733.372C1092.32 733.38 1092.26 733.388 1092.2 733.396C1090.19 733.669 1088.22 733.938 1086.25 734.192C1085.75 734.269 1085.24 734.338 1084.74 734.407C1083.97 734.51 1083.21 734.614 1082.48 734.747L1078.9 735.496C1078.37 735.602 1077.85 735.707 1077.32 735.812C1076.9 735.897 1076.48 735.982 1076.06 736.067C1074.68 736.345 1073.32 736.62 1071.98 736.885C1067.68 737.967 1063.54 738.884 1059.77 739.578C1056.1 740.383 1052.6 740.855 1049.33 740.938C1046.66 740.383 1045.44 739.383 1045.55 738.051C1045.66 736.718 1047 734.997 1049.66 733.164C1050.97 732.22 1052.58 731.249 1054.41 730.221C1055.32 729.722 1056.32 729.194 1057.35 728.667C1058 728.408 1058.66 728.13 1059.35 727.845L1059.35 727.844C1059.37 727.838 1059.38 727.832 1059.39 727.826C1059.87 727.628 1060.36 727.425 1060.85 727.223C1063.29 726.251 1065.96 725.252 1068.82 724.28C1071.82 723.447 1075.01 722.642 1078.37 721.892C1080.92 721.221 1083.78 720.888 1086.68 720.55L1086.68 720.549C1087.5 720.454 1088.32 720.358 1089.14 720.254C1089.6 720.208 1090.05 720.157 1090.51 720.107C1090.51 720.107 1090.52 720.106 1090.52 720.106C1091.95 719.948 1093.39 719.79 1094.86 719.727C1096.83 719.699 1098.8 719.671 1100.8 719.671C1101.46 719.681 1102.13 719.693 1102.79 719.705C1104.14 719.73 1105.49 719.755 1106.83 719.755C1108.17 719.792 1109.51 719.951 1110.84 720.111C1111.52 720.191 1112.2 720.272 1112.88 720.338C1113.76 720.453 1114.64 720.56 1115.51 720.667C1118.66 721.051 1121.78 721.432 1124.84 722.17C1140.67 725.64 1152.47 731.415 1160.16 735.247C1160.45 735.404 1160.76 735.565 1161.07 735.731C1161.19 735.796 1161.32 735.861 1161.44 735.927C1164.76 737.688 1168.87 739.874 1172.82 742.104C1177.34 744.603 1181.65 747.101 1185.09 749.239C1191.86 753.209 1196.83 756.874 1193.92 759.345C1195.19 759.518 1196.42 759.745 1197.64 759.97L1197.65 759.971C1198.18 760.07 1198.72 760.168 1199.25 760.261C1201.05 760.483 1202.83 760.733 1204.55 761.039C1207.78 761.56 1210.87 762.326 1213.92 763.083L1214.52 763.232C1217.85 763.898 1221.07 764.676 1224.21 765.62C1224.59 765.74 1224.97 765.86 1225.35 765.98C1226.54 766.358 1227.72 766.733 1228.9 767.091C1230.48 767.507 1232.07 767.952 1233.65 768.424C1236.79 769.368 1239.9 770.45 1242.95 771.589L1243.55 771.78C1246.49 772.716 1249.45 773.658 1252.36 774.698C1256.19 776.141 1260.12 777.413 1264.06 778.693C1264.07 778.694 1264.07 778.694 1264.07 778.695C1266.5 779.484 1268.94 780.275 1271.38 781.111C1297.06 789.385 1325.04 795.021 1355.47 786.803C1363.67 787.325 1369.34 788.931 1374.92 790.512C1383.57 792.964 1392.02 795.355 1409.33 793.549C1404.14 788.219 1418.22 786.025 1436.32 784.61C1442.89 784.077 1450 783.749 1456.89 783.43C1456.9 783.43 1456.9 783.43 1456.9 783.43C1469.06 782.868 1480.54 782.337 1487.13 780.778C1511.28 780.362 1537.46 780.14 1561.95 781.722C1562.76 781.77 1563.58 781.818 1564.39 781.865C1569.66 782.174 1574.86 782.479 1579.94 782.888C1585.77 783.471 1591.46 784.082 1596.93 784.721C1598.45 784.913 1599.95 785.093 1601.44 785.271C1605.3 785.733 1609.05 786.181 1612.62 786.803C1617.56 787.664 1622.25 788.524 1626.58 789.413C1631.25 789.746 1636.58 789.885 1641.6 789.885C1646.6 789.996 1651.32 789.912 1654.82 789.579C1661.79 788.941 1663.78 787.358 1653.07 784.499C1659.76 785.415 1666.12 787.164 1672.25 789.107C1675.13 790.1 1677.95 791.149 1680.73 792.183C1683.86 793.346 1686.94 794.492 1689.99 795.521C1701.57 799.324 1712.62 802.184 1724.84 798.769C1712.04 795.282 1704.92 792.751 1699.29 790.753C1698.56 790.492 1697.85 790.24 1697.16 789.996C1695.93 789.547 1694.77 789.107 1693.61 788.668C1689.08 786.959 1684.61 785.27 1677.17 783.194C1687.88 782.333 1699.21 782.472 1710.62 783.86C1716.31 784.582 1722.06 785.498 1727.78 786.553L1736.36 788.247C1739.02 788.842 1741.64 789.51 1744.28 790.182L1744.85 790.329C1756.12 793.272 1767.26 796.242 1777.7 799.685Z" fill="#FF3184"/>
<path d="M1064.71 755.403C1063.58 761.525 1073.24 765.321 1084.94 769.921C1090.86 772.246 1097.3 774.777 1103.13 777.919C1100.47 782.388 1098.3 786.886 1096.58 791.328C1090.92 788.246 1081.23 788.913 1070.71 793.216C1061.24 796.993 1051.26 803.439 1041.86 809.509L1041.84 809.522C1040.75 810.229 1039.66 810.931 1038.58 811.623C1035.86 814.748 1039.26 813.74 1042.67 812.728C1043.32 812.535 1043.97 812.343 1044.58 812.178C1046.47 811.706 1048 811.484 1047.86 812.262C1047.75 813.067 1046.02 814.76 1041.36 818.62C1040.03 818.542 1039.2 817.863 1038.38 817.182C1037.11 816.145 1035.85 815.104 1032.78 816.176C1028.64 819.952 1026.51 822.978 1024.95 825.81C1024.34 826.928 1023.82 828.005 1023.3 829.081C1022.53 830.679 1021.76 832.275 1020.68 834C1019.79 835.444 1018.68 836.943 1017.18 838.609C1015.62 840.303 1013.65 842.135 1011.13 844.217C1008.54 846.299 1005.24 848.632 1001.1 851.269C996.745 853.851 991.553 856.822 985.251 859.959C983.988 860.139 982.731 860.322 981.479 860.504C976.18 861.273 970.965 862.03 965.733 862.569C923.089 883.058 876.003 897.245 827.667 900.549C803.568 902.215 779.22 901.104 755.677 896.884C754.329 896.63 752.982 896.381 751.637 896.133C750.045 895.84 748.456 895.547 746.876 895.246C743.961 894.58 741.075 893.858 738.188 893.137L738.186 893.136C737.591 892.982 736.997 892.827 736.405 892.673C734.12 892.079 731.85 891.488 729.579 890.915C726.776 890.082 724 889.194 721.225 888.306L721.223 888.305C710.228 884.668 699.706 880.531 689.878 875.923C681.438 876.45 667.057 872.008 652.314 866.761C650.536 866.131 648.752 865.493 646.967 864.855C633.898 860.186 620.829 855.517 610.447 853.684L611.336 849.687C603.756 850.575 595.483 847.105 587.154 843.44L586.32 843.055L586.315 843.053L586.31 843.051C584.488 842.21 582.684 841.378 580.879 840.608C580.247 840.338 579.614 840.055 578.981 839.772L578.979 839.771C577.528 839.123 576.073 838.473 574.605 837.97C570.413 836.471 566.276 835.194 562.389 834.528C560.224 833.306 558.003 832.307 555.754 831.335L548.952 828.309C547.813 826.449 549.84 825.727 553.366 825.477C555.143 825.366 557.281 825.366 559.585 825.421C561.079 825.421 562.62 825.597 564.17 825.773C565.01 825.868 565.853 825.964 566.693 826.032C571.468 826.476 576.076 826.782 578.853 826.171C581.601 825.699 582.573 824.228 579.908 820.979C564.832 814.538 550.729 814.316 537.597 815.371C534.293 815.621 531.072 815.843 527.852 815.982C526.592 816.036 525.331 816.129 524.071 816.221C522.111 816.365 520.15 816.509 518.19 816.509C514.97 816.565 511.721 816.426 508.445 816.038C505.141 815.815 501.754 815.371 498.256 814.538C494.869 814.399 491.954 814.288 489.4 814.399C486.845 814.566 484.68 814.76 482.792 815.01C479.016 815.51 476.379 816.204 474.102 816.981C472.497 817.536 471.059 818.176 469.517 818.861C466.661 820.132 463.45 821.561 458.166 822.895C456.267 825.254 457.916 826.055 459.784 826.963C461.521 827.808 463.448 828.745 462.886 831.113C460.481 831.471 458.165 831.841 455.93 832.198C451.402 832.921 447.207 833.591 443.285 834C441.703 834.143 440.165 834.293 438.667 834.44C434.62 834.836 430.867 835.204 427.321 835.305C417.604 835.527 409.525 835.388 401.529 834.833C401.044 834.817 400.56 834.801 400.075 834.784C384.683 834.262 369.203 833.737 344.226 843.884C344.021 844.865 341.216 847.288 337.946 850.113L337.945 850.114C335.013 852.647 331.706 855.504 329.567 857.932C325.041 863.179 325.68 866.455 345.42 861.514C348.852 859.231 352.329 857.068 355.822 854.896C357.894 853.607 359.972 852.315 362.05 850.991C365.057 850.937 368.077 851.036 371.077 851.135L371.08 851.135L371.086 851.135L371.099 851.136C372.689 851.188 374.274 851.24 375.848 851.269C374.652 851.681 373.36 852.099 372.006 852.537L372 852.539L371.998 852.54C369.425 853.372 366.625 854.278 363.827 855.35C359.523 856.933 355.137 858.626 351.333 860.237C343.754 863.568 338.534 866.844 340.839 868.427C328.9 864.595 306.523 878.033 291.198 888.083C290.457 888.563 289.732 889.033 289.024 889.493C282.352 893.824 277.201 897.169 275.068 897.495C272.708 897.856 273.957 894.358 281.037 884.613C287.339 882.753 292.447 881.059 296.778 879.504C301.109 877.977 304.663 876.506 307.828 874.812C314.158 871.397 319.044 867.677 325.541 861.514C298.444 871.758 272.624 881.92 247.887 892.192C223.206 902.464 199.718 912.876 177.508 924.148L167.596 936.946C163.57 931.421 139.916 938.584 117.511 947.385C114.694 949.306 111.475 951.134 108.567 952.787C102.561 956.199 97.8797 958.858 100.798 960.018C100.159 961.434 104.907 959.962 111.82 957.38C117.653 955.089 125.114 952.135 132.134 949.356L135.779 947.913C151.771 941.749 163.959 938.501 147.301 953.466C121.565 964.737 94.1623 975.26 68.2592 982.784C42.3839 990.363 18.0633 994.833 -0.732422 995.777C5.45878 993.278 11.2336 991.14 16.814 989.086C22.3666 986.92 27.6416 984.699 32.9166 982.339C43.3833 977.425 53.628 971.456 64.5112 961.822C98.5161 943.237 133.488 924.575 168.455 905.916C168.46 905.913 168.465 905.911 168.469 905.909L168.471 905.908C175.808 901.993 183.145 898.078 190.473 894.163C194.127 892.215 197.777 890.269 201.423 888.326C239.959 867.787 277.948 847.539 314.269 827.476C316.336 828.791 321.6 828.318 326.613 827.868C333.451 827.254 339.82 826.683 336.952 830.752C340.54 830.863 345.918 829.168 351.606 827.374L351.607 827.374C353.004 826.933 354.419 826.487 355.831 826.06C363.021 824.061 370.157 822.617 374.043 824.838C389.813 818.314 406.749 812.484 424.323 808.458C431.1 806.672 438.01 805.437 444.951 804.196L444.952 804.196C444.955 804.195 444.959 804.195 444.963 804.194C446.974 803.834 448.989 803.474 451.003 803.1L464.524 801.379C465.367 801.285 466.21 801.179 467.054 801.074C468.459 800.898 469.865 800.723 471.27 800.601L478.017 800.157C496.007 798.658 513.859 799.268 530.822 800.712C533.322 800.992 535.812 801.281 538.287 801.569L538.303 801.571L538.308 801.571C538.341 801.575 538.374 801.579 538.407 801.583C540.07 801.776 541.725 801.968 543.371 802.156C545.454 802.35 547.48 802.683 549.507 803.072L550.425 803.236C552.138 803.542 553.835 803.844 555.532 804.127C557.528 804.488 559.497 804.82 561.465 805.153L561.467 805.153L561.469 805.154L561.473 805.154C563.444 805.46 565.388 805.821 567.276 806.348C571.079 807.264 574.855 808.153 578.52 809.013C575.077 805.182 575.632 803.294 578.853 802.6C580.463 802.267 582.74 802.184 585.433 802.406C588.126 802.711 591.263 803.239 594.678 803.877C600.792 805.113 607.63 807.043 614.128 808.878L614.13 808.879C622.088 811.126 629.536 813.229 634.518 813.733C646.328 823.161 668.367 831.314 686.806 838.134C689.434 839.106 691.989 840.051 694.431 840.969C695.48 840.592 697.81 840.854 700.252 841.128C704.469 841.602 709.021 842.114 707.896 839.442C697.783 836.763 692.594 833.789 685.871 829.936L685.87 829.935L685.869 829.934L685.868 829.934C682.699 828.118 679.19 826.107 674.664 823.839C680.3 820.387 690.335 825.92 702.228 832.479C710.134 836.839 718.861 841.651 727.664 844.578C723.333 844.911 718.974 845.189 714.587 845.328C720.56 847.506 726.691 849.94 732.963 852.43L732.965 852.431C745.875 857.557 759.386 862.921 773.362 866.789C793.99 872.563 815.479 874.868 833.192 869.815L817.95 865.956C814.615 865.016 811.316 863.966 808.055 862.928L808.048 862.926L808.042 862.924L808.039 862.923C806.391 862.399 804.753 861.878 803.124 861.375C809.355 861.135 815.789 861.006 822.335 860.874L822.337 860.874C838.512 860.549 855.374 860.21 871.561 858.154C894.215 855.406 915.26 849.159 928.198 838.553C923.288 839.862 917.876 841.53 912.262 843.26C902.033 846.412 891.13 849.772 881.361 851.547C877.928 852.366 874.589 852.737 871.564 853.073C871.311 853.101 871.06 853.129 870.811 853.157C867.59 853.462 864.703 853.657 862.26 853.518C857.374 853.074 854.431 851.658 854.292 848.798C854.514 847.243 856.652 845.855 859.983 844.661C863.315 843.44 867.757 842.079 872.699 841.08C874.452 840.735 876.247 840.342 878.061 839.944C881.362 839.22 884.728 838.482 888.024 837.998C889.529 837.743 891.004 837.476 892.435 837.217L892.438 837.217C895.838 836.601 898.988 836.031 901.684 835.777C918.231 833.806 933.25 828.67 946.577 821.812C949.149 820.505 951.621 819.032 954.072 817.572L954.075 817.571C954.797 817.14 955.518 816.711 956.238 816.287C956.629 816.05 957.021 815.811 957.414 815.572C957.643 815.432 957.872 815.293 958.101 815.153C958.262 815.055 958.423 814.956 958.583 814.858C958.6 814.848 958.617 814.837 958.634 814.827C959.402 814.358 960.169 813.89 960.93 813.428C962.43 812.373 963.901 811.346 965.4 810.318C966.227 809.726 967.051 809.142 967.873 808.56L967.874 808.559C969.977 807.07 972.062 805.593 974.118 804.016C975.099 803.244 976.077 802.482 977.054 801.721L977.063 801.714L977.069 801.71L977.077 801.704C977.079 801.702 977.082 801.7 977.084 801.698C978.944 800.249 980.801 798.803 982.669 797.297C983.677 796.494 984.686 795.688 985.696 794.88C996.065 786.592 1006.61 778.162 1018.68 770.978C1031.87 763.204 1047.19 756.763 1064.57 755.458L1064.71 755.403Z" fill="#FF3184"/>
<path d="M1329.46 784.082C1325.74 784.61 1321.44 784.721 1317.08 784.665C1312.72 784.554 1308.3 784.36 1304.58 783.666C1297.09 782.389 1292.03 780.306 1294.2 777.641L1291.45 774.226C1294.48 774.393 1299.89 774.698 1305.92 775.059C1307.55 775.149 1309.23 775.229 1310.94 775.309H1310.94L1310.94 775.309C1315.56 775.527 1320.3 775.751 1324.38 776.197C1335.71 777.114 1342.45 779.168 1329.46 784.11V784.082Z" fill="#FF3184"/>
<path d="M1332.74 860.82L1327.02 859.709V859.737C1323.99 858.432 1325.3 857.766 1327.57 857.099C1328.14 856.926 1328.77 856.757 1329.42 856.583L1329.43 856.581C1331.37 856.059 1333.44 855.502 1334.32 854.712C1328.77 854.295 1323.35 854.74 1319.35 855.628C1315.36 856.516 1312.83 857.905 1313.05 859.265C1318.55 859.126 1327.04 859.792 1332.74 860.82Z" fill="#FF3184"/>
<path d="M968.837 787.141L968.927 787.08H969.01L968.837 787.141Z" fill="#FF3184"/>
<path d="M967.786 787.51L968.837 787.141C966.97 788.406 965.258 789.536 963.677 790.579C960.546 792.644 957.931 794.37 955.656 796.131C954.762 796.834 953.912 797.491 953.104 798.114L953.097 798.119C950.846 799.856 948.934 801.332 947.382 802.822C945.244 804.793 943.69 806.598 942.44 808.319C941.163 809.985 940.108 811.484 939.081 813.039L938.813 813.429L938.811 813.432L938.809 813.435L938.807 813.437C936.816 816.338 934.769 819.321 930.336 822.506C928.003 824.117 925.005 825.81 921.118 827.67C917.393 829.479 912.623 830.983 906.808 832.815L906.807 832.815L906.043 833.056C908.181 829.114 902.906 828.003 895.16 827.865C893.216 827.865 891.134 827.948 888.968 828.115C888.122 828.169 887.254 828.21 886.376 828.252C885.006 828.318 883.609 828.385 882.222 828.503C879.191 828.744 876.147 829.131 873.23 829.503L873.226 829.504C873.223 829.504 873.22 829.504 873.217 829.505C871.757 829.691 870.329 829.873 868.951 830.03C854.914 835.999 837.023 835.94 823.306 835.896H823.302C822.858 835.894 822.419 835.893 821.985 835.892C821.294 835.89 820.615 835.888 819.949 835.888C815.118 835.416 813.092 832.973 814.591 831.057C816.09 829.169 821.004 827.06 830.138 826.782C841.549 829.17 853.987 829.253 866.341 827.004C872.32 826.15 878.222 824.5 884.145 822.845L884.859 822.645C886.982 822.071 889.066 821.326 891.146 820.583L891.151 820.581C891.154 820.58 891.156 820.579 891.159 820.578C892.094 820.244 893.029 819.909 893.966 819.591C894.639 819.348 895.315 819.109 895.991 818.87L895.996 818.869L895.998 818.868C898.333 818.043 900.675 817.215 902.933 816.204C904.403 815.594 905.866 814.984 907.329 814.374C907.346 814.367 907.364 814.359 907.381 814.352C908.83 813.748 910.279 813.144 911.734 812.539C913.421 811.816 915.071 811.028 916.711 810.245L916.714 810.244L916.717 810.242C917.908 809.673 919.094 809.106 920.285 808.569C923.262 807.304 926.135 805.882 928.98 804.473L928.983 804.471L928.985 804.471C931.631 803.161 934.254 801.862 936.915 800.712C938.07 800.17 939.204 799.604 940.333 799.04L940.334 799.039C941.866 798.274 943.389 797.513 944.939 796.825C946.171 796.248 947.414 795.712 948.65 795.18L948.655 795.178C950.092 794.558 951.52 793.943 952.907 793.272C957.745 791.033 962.631 789.318 967.786 787.51Z" fill="#FF3184"/>
<path d="M814.047 846.05L814.063 846.05V846.077L814.047 846.05Z" fill="#FF3184"/>
<path d="M758.425 826.304C760.894 827.195 763.718 828.11 766.782 828.92C768.083 829.276 769.411 829.675 770.763 830.081C772.471 830.595 774.218 831.12 776 831.585C779.22 832.362 782.496 833.223 785.717 834.111C787.404 834.635 789.085 835.052 790.737 835.462C792.238 835.835 793.716 836.202 795.156 836.638C797.965 837.411 800.582 838.351 802.985 839.215L803.541 839.414C808.604 841.185 812.482 843.342 814.047 846.05C805.55 846.298 791.29 845.048 779.609 841.413C773.723 839.858 768.504 837.554 764.783 835.389C761.063 833.251 758.898 831.03 759.064 828.947C758.321 828.548 758.373 827.94 758.43 827.283C758.458 826.962 758.487 826.63 758.425 826.304Z" fill="#FF3184"/>
<path d="M752.595 824.006C754.179 824.684 756.152 825.484 758.425 826.304C758.235 825.299 757.186 824.354 752.595 824.006Z" fill="#FF3184"/>
<path d="M790.446 859.895L790.437 859.876L790.464 859.904L790.446 859.895Z" fill="#FF3184"/>
<path d="M776.055 855.933C781.433 856.654 786.479 858.039 790.446 859.895C791.92 862.958 788.039 863.205 783.19 862.208C780.944 861.733 778.503 861.074 776.274 860.473C773.681 859.773 771.376 859.152 770.003 858.987L759.925 854.49C764.675 854.645 769.91 855.238 774.995 855.813L776.055 855.933Z" fill="#FF3184"/>
<path d="M649.094 797.603C636.9 791.444 644.169 792.278 650.787 793.037C657.414 793.798 663.388 794.484 648.511 787.997L666.112 794.188L668.75 805.404L649.094 797.603Z" fill="#FF3184"/>
<path d="M611.863 775.276L611.974 775.281V775.309L611.863 775.276Z" fill="#FF3184"/>
<path d="M611.863 775.276C607.682 775.076 603.602 774.494 598.759 773.449C593.956 772.227 588.403 770.756 581.435 768.257L590.124 766.674C591.568 766.647 592.984 766.924 594.456 767.48C595.896 768.05 597.39 768.834 599.042 769.701L599.148 769.756C600.841 770.645 602.729 771.616 604.839 772.56C606.893 773.546 609.19 774.478 611.863 775.276Z" fill="#FF3184"/>
<path d="M638.793 807.375C630.693 805.71 629.103 803.612 627.213 801.117C626.111 799.662 624.906 798.072 622.247 796.353C625.051 795.881 632.463 799.574 637.405 802.989C642.375 806.404 645.012 809.43 638.793 807.375Z" fill="#FF3184"/>
<path d="M520.661 833.806C516.857 834.361 513.554 835.388 510.972 837.165L510.944 837.221C516.608 837.693 521.383 837.748 525.686 837.693C529.962 837.832 533.765 837.693 537.513 837.443C541.289 837.082 544.926 836.999 548.924 836.943C550.923 836.915 553.005 836.888 555.226 836.888C556.337 836.915 557.475 836.915 558.669 836.915C559.751 836.967 560.858 837.09 562.01 837.219L562.278 837.249L558.558 836.804L554.81 836.443C552.311 836.166 549.84 835.805 547.397 835.444C542.794 834.571 538.191 834.177 533.852 833.805L533.21 833.75C528.685 833.362 524.465 833.14 520.661 833.806Z" fill="#FF3184"/>
<path d="M1520.36 769.062C1531.58 772.005 1544.85 770.062 1552.76 768.424C1552.09 768.082 1551.41 767.729 1550.74 767.376C1549.49 766.726 1548.24 766.074 1546.98 765.481L1520.36 769.034V769.062Z" fill="#FF3184"/>
<path d="M1368.1 778.949C1358.23 778.445 1353.45 778.202 1360.11 772.366V772.394C1379.88 769.034 1404.89 766.647 1430.02 765.536C1442.57 765.009 1455.12 764.787 1466.83 765.092C1470.57 765.181 1474.21 765.282 1477.73 765.379L1477.75 765.379C1479.71 765.434 1481.63 765.487 1483.52 765.536C1487.53 765.705 1491.34 766.003 1494.91 766.283L1494.92 766.283C1494.94 766.284 1494.96 766.286 1494.98 766.288C1496.08 766.374 1497.15 766.458 1498.21 766.536C1496.35 767.053 1494.49 767.553 1492.64 768.051C1492.64 768.052 1492.63 768.053 1492.63 768.053L1492.63 768.054C1488.42 769.186 1484.23 770.315 1480.05 771.644C1472.58 771.811 1465 772.422 1457.42 773.254C1451.96 773.855 1446.54 774.715 1441.12 775.574L1441.11 775.575C1439.02 775.908 1436.92 776.241 1434.82 776.558C1419.91 779.001 1405.11 781.417 1390.71 781.556C1382.23 779.669 1374.19 779.259 1368.1 778.949H1368.1Z" fill="#FF3184"/>
<path fill-rule="evenodd" clip-rule="evenodd" d="M1920.73 196.286C1918.29 197.438 1910.59 195.253 1903.66 193.283C1899.73 192.167 1896.04 191.12 1893.69 190.789C1892.35 189.604 1891.08 188.471 1889.85 187.377C1885.26 183.294 1881.31 179.773 1876.73 176.269C1873.81 174.075 1870.65 171.91 1866.84 169.744C1863.01 167.69 1858.54 165.635 1853.13 163.498C1849.63 163.053 1845.44 162.082 1840.8 160.805C1839.99 160.581 1839.16 160.355 1838.32 160.126L1837.87 160.001L1837.87 160C1834.03 158.954 1829.93 157.834 1825.73 156.557C1820.45 154.947 1814.95 153.253 1809.57 151.587C1804.15 150.06 1798.82 148.561 1793.85 147.284C1788.89 146.007 1784.33 144.896 1780.39 144.202C1776.42 143.591 1773.14 143.342 1770.78 143.564C1766.09 144.036 1765.2 146.507 1770.2 152.17C1759.93 150.477 1751.79 148.367 1745.05 146.562C1738.33 144.702 1733.11 142.675 1728.89 140.537C1720.72 136.302 1716.16 132.041 1711.63 127.805L1711.23 127.433C1706.54 123.158 1701.74 118.91 1692.6 115.884C1688.02 114.44 1682.36 113.246 1675.14 112.441C1667.92 111.525 1659.09 111.358 1648.24 111.747C1644.41 112.608 1639.82 112.83 1634.74 112.719C1629.66 112.746 1624.11 112.358 1618.42 111.775C1610.46 110.86 1602.21 109.81 1594.6 108.842C1591.36 108.429 1588.23 108.031 1585.3 107.666C1575.5 106.333 1567.83 105.917 1565.17 106.916C1562.5 107.916 1564.84 110.525 1574.78 115.884C1569.94 118.341 1567.45 118.904 1557.73 121.093L1557.56 121.131C1552.4 119.882 1548.15 118.466 1545.01 117.105C1541.85 115.8 1539.79 114.468 1539.02 113.191C1537.43 110.72 1540.99 108.193 1551.12 107.333C1550.87 104.473 1535.41 104.168 1525.13 104.029C1516.44 106.139 1509.23 109.72 1502.45 113.413C1499.94 114.811 1497.49 116.209 1495.05 117.604C1490.89 119.977 1486.74 122.342 1482.35 124.685L1460.39 129.016C1452.39 127.072 1450.84 125.351 1452.78 123.546C1454.73 121.742 1460.06 120.048 1465.64 118.438C1466.15 118.287 1466.67 118.135 1467.19 117.984C1477.89 114.861 1488.59 111.737 1476.88 108.082C1452.37 108.055 1447.95 112.275 1443.95 116.3L1443.68 116.576C1439.76 120.538 1435.85 124.49 1412.97 125.656C1409.07 125.974 1404.71 126.369 1400.05 126.792L1400.05 126.792C1383.08 128.331 1362.18 130.227 1345.59 129.987C1324.38 129.654 1310.89 126.073 1322.91 117.161C1314.97 117.938 1307.19 117.855 1299.39 116.828C1295.5 116.356 1291.62 115.828 1287.73 115.134C1285.27 114.621 1282.79 114.119 1280.29 113.613C1278.87 113.326 1277.44 113.038 1276.02 112.746L1270.1 111.58C1269.24 111.387 1268.38 111.189 1267.52 110.989C1266.39 110.731 1265.26 110.471 1264.13 110.22C1260.11 109.359 1256.05 108.582 1251.89 107.943C1247.75 107.111 1243.5 106.416 1239.12 105.917C1237.71 105.738 1236.29 105.617 1234.85 105.495C1234.05 105.426 1233.24 105.358 1232.43 105.278C1230.15 105.028 1227.85 104.806 1225.49 104.667C1222.1 105.66 1220.44 107.466 1218.72 109.337C1217.65 110.499 1216.56 111.686 1215.02 112.719C1214.02 113.385 1212.8 113.996 1211.27 114.44C1209.74 114.829 1207.88 115.079 1205.58 115.134C1203.28 115.19 1200.5 115.023 1197.17 114.607C1195.5 114.384 1193.67 114.107 1191.7 113.746C1190.13 113.415 1188.48 112.945 1186.73 112.446C1186.27 112.316 1185.81 112.184 1185.34 112.052C1179.35 106.367 1175.31 101.954 1171.88 98.1998L1171.87 98.1984C1168.03 93.9974 1164.94 90.6202 1160.71 87.2043C1156.77 83.9005 1152.19 80.1246 1145.92 75.4049C1145.35 74.9878 1144.78 74.5596 1144.19 74.1215C1138.19 69.6605 1130.81 64.1719 1120.65 58.9135L1103.13 58.2472C1100.47 62.7171 1098.3 67.2147 1096.58 71.6568C1090.92 68.5751 1081.23 69.2415 1070.71 73.5448C1061.24 77.3219 1051.26 83.7681 1041.86 89.8375L1041.84 89.8509C1040.75 90.5579 1039.66 91.2598 1038.58 91.9517C1035.86 95.0769 1039.26 94.0682 1042.67 93.0566C1043.32 92.864 1043.97 92.6713 1044.58 92.507C1046.47 92.035 1048 91.8129 1047.86 92.5903C1047.75 93.3954 1046.02 95.089 1041.36 98.9481C1040.03 98.8711 1039.2 98.192 1038.38 97.5109C1037.11 96.4739 1035.85 95.4324 1032.78 96.5049C1028.64 100.281 1026.51 103.307 1024.95 106.139C1024.34 107.256 1023.82 108.333 1023.3 109.41C1022.53 111.007 1021.76 112.604 1020.68 114.329C1019.79 115.773 1018.68 117.272 1017.18 118.938C1015.62 120.631 1013.65 122.464 1011.13 124.546C1008.54 126.628 1005.24 128.96 1001.1 131.598C996.745 134.18 991.553 137.15 985.251 140.288C983.988 140.468 982.731 140.65 981.479 140.832C976.18 141.601 970.965 142.358 965.733 142.897C923.089 163.387 876.003 177.574 827.667 180.877C803.568 182.543 779.22 181.433 755.677 177.213C754.329 176.958 752.982 176.71 751.637 176.462C750.045 176.168 748.456 175.876 746.876 175.575C743.961 174.908 741.075 174.187 738.188 173.465L738.186 173.465C737.591 173.31 736.997 173.156 736.405 173.002C734.12 172.407 731.85 171.817 729.579 171.244C726.776 170.411 724 169.523 721.225 168.634L721.223 168.634C710.228 164.997 699.706 160.86 689.878 156.251C681.438 156.779 667.057 152.337 652.314 147.09C650.536 146.459 648.752 145.822 646.967 145.184C633.898 140.514 620.829 135.845 610.447 134.013L611.336 130.015C603.756 130.904 595.483 127.433 587.154 123.768L586.32 123.384L586.315 123.382L586.31 123.379C584.488 122.539 582.684 121.706 580.879 120.937C580.247 120.667 579.614 120.384 578.981 120.101L578.979 120.1C577.528 119.452 576.073 118.801 574.605 118.299C570.413 116.8 566.276 115.523 562.389 114.856C560.224 113.635 558.003 112.635 555.754 111.664L548.952 108.637C547.813 106.777 549.84 106.055 553.366 105.806C555.143 105.695 557.281 105.695 559.585 105.75C561.079 105.75 562.62 105.925 564.17 106.101C565.01 106.197 565.853 106.293 566.693 106.361C571.468 106.805 576.076 107.11 578.853 106.5C581.601 106.028 582.573 104.556 579.908 101.308C564.832 94.8669 550.729 94.6448 537.597 95.6998C534.293 95.9496 531.072 96.1717 527.852 96.3106C526.592 96.3649 525.331 96.4575 524.071 96.55C522.111 96.694 520.15 96.8381 518.19 96.8381C514.97 96.8936 511.721 96.7548 508.445 96.3661C505.141 96.144 501.754 95.6998 498.256 94.8669C494.869 94.7281 491.954 94.617 489.4 94.728C486.845 94.8946 484.68 95.089 482.792 95.3388C479.016 95.8386 476.379 96.5327 474.102 97.3101C472.497 97.8646 471.059 98.5044 469.517 99.19C466.661 100.461 463.45 101.889 458.166 103.224C456.267 105.583 457.916 106.384 459.784 107.292C461.521 108.137 463.448 109.073 462.886 111.442C460.481 111.799 458.165 112.169 455.93 112.527C451.402 113.25 447.207 113.92 443.285 114.329C441.703 114.471 440.165 114.622 438.667 114.769C434.62 115.165 430.867 115.533 427.321 115.634C417.604 115.856 409.525 115.717 401.529 115.162C401.044 115.146 400.56 115.129 400.075 115.113C384.683 114.591 369.203 114.065 344.226 124.213C344.021 125.193 341.216 127.617 337.946 130.441L337.945 130.442C335.013 132.976 331.706 135.832 329.567 138.261C325.041 143.508 325.68 146.784 345.42 141.842C348.852 139.559 352.329 137.397 355.822 135.224C357.894 133.936 359.972 132.643 362.05 131.32C365.057 131.266 368.077 131.365 371.077 131.464L371.08 131.464L371.086 131.464L371.099 131.464L371.101 131.464C372.69 131.517 374.274 131.569 375.848 131.598C374.652 132.009 373.36 132.427 372.006 132.866L372 132.867L371.998 132.868C369.425 133.701 366.625 134.607 363.827 135.679C359.523 137.261 355.137 138.955 351.333 140.565C343.754 143.897 338.534 147.173 340.839 148.755C328.9 144.924 306.523 158.361 291.198 168.412C290.457 168.891 289.732 169.362 289.024 169.822C282.352 174.153 277.201 177.497 275.068 177.823C272.708 178.184 273.957 174.686 281.037 164.941C287.339 163.081 292.447 161.388 296.778 159.833C301.109 158.306 304.663 156.834 307.828 155.141C314.158 151.726 319.044 148.006 325.541 141.842C298.444 152.087 272.624 162.248 247.887 172.521C223.206 182.793 199.718 193.204 177.508 204.476L167.596 217.275C163.57 211.75 139.916 218.913 117.511 227.714C114.694 229.634 111.475 231.463 108.567 233.115C102.561 236.527 97.8797 239.186 100.798 240.346C100.159 241.762 104.907 240.291 111.82 237.709C117.653 235.418 125.114 232.464 132.134 229.685L135.779 228.241C151.771 222.078 163.959 218.83 147.301 233.794C121.565 245.066 94.1623 255.588 68.2592 263.112C42.3839 270.691 18.0633 275.161 -0.732422 276.105V995.777C5.45878 993.278 11.2336 991.14 16.814 989.086C22.3666 986.92 27.6416 984.699 32.9166 982.339C43.3833 977.425 53.628 971.456 64.5112 961.822C98.5161 943.237 133.488 924.575 168.455 905.916L168.469 905.909L168.471 905.908C175.808 901.993 183.145 898.078 190.473 894.163C194.127 892.215 197.777 890.269 201.423 888.326C239.959 867.787 277.948 847.539 314.269 827.476C316.336 828.791 321.6 828.318 326.613 827.868C333.451 827.254 339.82 826.683 336.952 830.752C340.54 830.863 345.918 829.168 351.606 827.374L351.607 827.374C353.004 826.933 354.419 826.487 355.831 826.06C363.021 824.061 370.157 822.617 374.043 824.838C389.813 818.314 406.749 812.484 424.323 808.458C431.1 806.672 438.01 805.437 444.951 804.196L444.952 804.196L444.963 804.194C446.974 803.834 448.989 803.474 451.003 803.1L464.524 801.379C465.367 801.285 466.21 801.179 467.054 801.074C468.459 800.898 469.865 800.723 471.27 800.601L478.017 800.157C496.007 798.658 513.859 799.268 530.822 800.712C533.322 800.992 535.812 801.281 538.287 801.569L538.303 801.571L538.308 801.571L538.407 801.583C540.07 801.776 541.725 801.968 543.371 802.156C545.454 802.35 547.48 802.683 549.507 803.072L550.425 803.236C552.138 803.542 553.835 803.844 555.532 804.127C557.528 804.488 559.497 804.82 561.465 805.153L561.467 805.153L561.469 805.154L561.473 805.154C563.444 805.46 565.388 805.821 567.276 806.348C571.079 807.264 574.855 808.153 578.52 809.013C575.077 805.182 575.632 803.294 578.853 802.6C580.463 802.267 582.74 802.184 585.433 802.406C588.126 802.711 591.263 803.239 594.678 803.877C600.792 805.113 607.63 807.043 614.128 808.878L614.13 808.879C622.088 811.126 629.536 813.229 634.518 813.733C646.328 823.161 668.367 831.314 686.806 838.134C689.434 839.106 691.989 840.051 694.431 840.969C695.48 840.592 697.81 840.854 700.252 841.128C704.469 841.602 709.021 842.114 707.896 839.442C697.783 836.763 692.594 833.789 685.871 829.936L685.87 829.935L685.869 829.934L685.868 829.934C682.699 828.118 679.19 826.107 674.664 823.839C680.3 820.387 690.335 825.92 702.228 832.479C710.134 836.839 718.861 841.651 727.664 844.578C723.333 844.911 718.974 845.189 714.587 845.328C720.56 847.506 726.691 849.94 732.963 852.43L732.965 852.431C745.875 857.557 759.386 862.921 773.362 866.789C793.99 872.563 815.479 874.868 833.192 869.815L817.95 865.956C814.615 865.016 811.316 863.966 808.055 862.928L808.048 862.926L808.042 862.924L808.039 862.923C806.391 862.399 804.753 861.878 803.124 861.375C809.355 861.135 815.789 861.006 822.335 860.874L822.337 860.874C838.512 860.549 855.374 860.21 871.561 858.154C894.215 855.406 915.26 849.159 928.198 838.553C923.288 839.862 917.876 841.53 912.262 843.26C902.033 846.412 891.13 849.772 881.361 851.547C877.928 852.366 874.589 852.737 871.564 853.073C871.311 853.101 871.06 853.129 870.811 853.157C867.59 853.462 864.703 853.657 862.26 853.518C857.374 853.074 854.431 851.658 854.292 848.798C854.514 847.243 856.652 845.855 859.983 844.661C863.315 843.44 867.757 842.079 872.699 841.08C874.452 840.735 876.247 840.342 878.061 839.944C881.362 839.22 884.728 838.482 888.024 837.998C889.529 837.743 891.004 837.476 892.435 837.217L892.438 837.217C895.838 836.601 898.988 836.031 901.684 835.777C918.231 833.806 933.25 828.67 946.577 821.812C949.149 820.505 951.621 819.032 954.072 817.572L954.075 817.571C954.797 817.14 955.518 816.711 956.238 816.287C956.629 816.05 957.021 815.811 957.414 815.572L958.101 815.153L958.583 814.858L958.634 814.827C959.402 814.358 960.169 813.89 960.93 813.428C962.43 812.373 963.901 811.346 965.4 810.318C966.227 809.726 967.051 809.142 967.873 808.56L967.874 808.559C969.977 807.07 972.062 805.593 974.118 804.016C975.099 803.244 976.077 802.482 977.054 801.721L977.063 801.714L977.069 801.71L977.077 801.704L977.084 801.698C978.944 800.249 980.801 798.803 982.669 797.297C983.677 796.494 984.686 795.688 985.696 794.88C996.065 786.592 1006.61 778.162 1018.68 770.978C1031.87 763.204 1047.19 756.763 1064.57 755.458L1064.71 755.403C1063.58 761.525 1073.24 765.321 1084.94 769.921C1090.86 772.246 1097.3 774.777 1103.13 777.919L1120.65 778.585C1126.51 778.807 1127.62 777.502 1126.32 775.031C1125.04 772.616 1121.29 769.395 1117.82 766.813C1117.34 766.437 1116.87 766.073 1116.41 765.722L1116.41 765.72C1115.24 764.829 1114.18 764.016 1113.41 763.26C1112.32 762.316 1111.77 761.427 1112.32 760.733C1112.88 760.011 1114.49 759.484 1117.65 759.484C1119.81 759.503 1122.72 759.758 1126.39 760.503C1122.82 759.585 1119.77 758.702 1117.1 757.818C1116.19 757.498 1115.33 757.207 1114.5 756.929L1114.49 756.926C1113.54 756.604 1112.63 756.299 1111.77 755.986C1110.19 755.403 1108.74 754.764 1107.44 754.126C1104.83 752.765 1102.63 751.96 1100.55 751.266C1098.47 750.655 1096.47 750.266 1094.33 750.905C1094.39 749.406 1096.39 748.295 1099.89 747.49C1101.63 747.101 1103.74 746.685 1106.13 746.518C1108.49 746.463 1111.18 746.518 1114.04 746.657C1119.82 746.907 1126.26 748.323 1132.34 750.155C1138.45 752.016 1144.22 754.348 1149.28 756.541C1151.01 757.301 1152.66 758.035 1154.23 758.729L1154.23 758.73C1161.81 762.095 1167.32 764.537 1169.71 764.537C1171.13 764.565 1171.43 763.759 1170.21 761.871C1168.93 759.956 1166.27 756.93 1160.94 752.182C1154.77 746.602 1146.53 741.577 1136.2 737.912C1131.06 736.079 1125.48 734.608 1119.62 733.72C1116.71 733.386 1113.79 733.137 1110.93 732.914C1110.23 732.873 1109.51 732.824 1108.8 732.776L1108.8 732.776C1108.08 732.727 1107.37 732.678 1106.66 732.637C1105.95 732.651 1105.24 732.672 1104.54 732.692H1104.54C1103.83 732.713 1103.12 732.734 1102.41 732.748C1101.88 732.769 1101.35 732.789 1100.82 732.809L1100.78 732.81C1098.52 732.895 1096.28 732.98 1094.11 733.137C1093.53 733.215 1092.95 733.293 1092.38 733.372L1092.2 733.396C1090.19 733.669 1088.22 733.938 1086.25 734.192C1085.75 734.269 1085.24 734.338 1084.74 734.407C1083.97 734.51 1083.21 734.614 1082.48 734.747L1078.9 735.496C1078.37 735.602 1077.85 735.707 1077.32 735.812L1076.06 736.067C1074.68 736.345 1073.32 736.62 1071.98 736.885C1067.68 737.967 1063.54 738.884 1059.77 739.578C1056.1 740.383 1052.6 740.855 1049.33 740.938C1046.66 740.383 1045.44 739.383 1045.55 738.051C1045.66 736.718 1047 734.997 1049.66 733.164C1050.97 732.22 1052.58 731.249 1054.41 730.221C1055.32 729.722 1056.32 729.194 1057.35 728.667C1058 728.408 1058.66 728.13 1059.35 727.845L1059.35 727.844L1059.39 727.826C1059.87 727.628 1060.36 727.425 1060.85 727.223C1063.29 726.251 1065.96 725.252 1068.82 724.28C1071.82 723.447 1075.01 722.642 1078.37 721.892C1080.92 721.221 1083.78 720.888 1086.68 720.55L1086.68 720.549C1087.5 720.454 1088.32 720.358 1089.14 720.254C1089.6 720.208 1090.05 720.157 1090.51 720.107L1090.52 720.106C1091.95 719.948 1093.39 719.79 1094.86 719.727C1096.83 719.699 1098.8 719.671 1100.8 719.671C1101.46 719.681 1102.13 719.693 1102.79 719.705C1104.14 719.73 1105.49 719.755 1106.83 719.755C1108.17 719.792 1109.51 719.951 1110.84 720.111C1111.52 720.191 1112.2 720.272 1112.88 720.338C1113.76 720.453 1114.64 720.56 1115.51 720.667C1118.66 721.051 1121.78 721.432 1124.84 722.17C1140.67 725.64 1152.47 731.415 1160.16 735.247C1160.45 735.404 1160.76 735.565 1161.07 735.731L1161.44 735.927C1164.76 737.688 1168.87 739.874 1172.82 742.104C1177.34 744.603 1181.65 747.101 1185.09 749.239C1191.86 753.209 1196.83 756.874 1193.92 759.345C1195.19 759.518 1196.42 759.745 1197.64 759.97L1197.65 759.971C1198.18 760.07 1198.72 760.168 1199.25 760.261C1201.05 760.483 1202.83 760.733 1204.55 761.039C1207.78 761.56 1210.87 762.326 1213.92 763.083L1214.52 763.232C1217.85 763.898 1221.07 764.676 1224.21 765.62C1224.59 765.74 1224.97 765.86 1225.35 765.98C1226.54 766.358 1227.72 766.733 1228.9 767.091C1230.48 767.507 1232.07 767.952 1233.65 768.424C1236.79 769.368 1239.9 770.45 1242.95 771.589L1243.55 771.78C1246.49 772.716 1249.45 773.658 1252.36 774.698C1256.19 776.141 1260.12 777.413 1264.06 778.693L1264.07 778.695C1266.5 779.484 1268.94 780.275 1271.38 781.111C1297.06 789.385 1325.04 795.021 1355.47 786.803C1363.67 787.325 1369.34 788.931 1374.92 790.512C1383.57 792.964 1392.02 795.355 1409.33 793.549C1404.14 788.219 1418.22 786.025 1436.32 784.61C1442.89 784.077 1450 783.749 1456.89 783.43L1456.9 783.43C1469.06 782.868 1480.54 782.337 1487.13 780.778C1511.28 780.362 1537.46 780.14 1561.95 781.722C1562.76 781.77 1563.58 781.818 1564.39 781.865C1569.66 782.174 1574.86 782.479 1579.94 782.888C1585.77 783.471 1591.46 784.082 1596.93 784.721C1598.45 784.913 1599.95 785.093 1601.44 785.271C1605.3 785.733 1609.05 786.181 1612.62 786.803C1617.56 787.664 1622.25 788.524 1626.58 789.413C1631.25 789.746 1636.58 789.885 1641.6 789.885C1646.6 789.996 1651.32 789.912 1654.82 789.579C1661.79 788.941 1663.78 787.358 1653.07 784.499C1659.76 785.415 1666.12 787.164 1672.25 789.107C1675.13 790.1 1677.95 791.149 1680.73 792.183C1683.86 793.346 1686.94 794.492 1689.99 795.521C1701.57 799.324 1712.62 802.184 1724.84 798.769C1712.04 795.282 1704.92 792.751 1699.29 790.753C1698.56 790.492 1697.85 790.24 1697.16 789.996C1695.93 789.547 1694.77 789.107 1693.61 788.668C1689.08 786.959 1684.61 785.27 1677.17 783.194C1687.88 782.333 1699.21 782.472 1710.62 783.86C1716.31 784.582 1722.06 785.498 1727.78 786.553L1736.36 788.247C1739.02 788.842 1741.64 789.51 1744.28 790.182L1744.85 790.329C1756.12 793.272 1767.26 796.242 1777.7 799.685C1788.22 802.933 1798.21 806.015 1807.32 808.819L1807.24 808.736C1807.32 808.264 1809.1 808.375 1811.15 808.569C1827.59 818.203 1842.44 828.503 1855.68 838.248C1868.79 848.41 1880.36 857.904 1889.72 867.511C1894.44 872.23 1898.69 876.784 1902.41 881.142C1906.1 885.612 1909.24 889.971 1911.85 894.052C1917.07 902.242 1920.12 909.6 1920.73 915.957V196.286ZM1332.74 141.148L1327.02 140.038V140.066C1323.99 138.761 1325.3 138.094 1327.57 137.428C1328.14 137.255 1328.77 137.086 1329.42 136.912L1329.43 136.909C1331.37 136.388 1333.44 135.831 1334.32 135.04C1328.77 134.624 1323.35 135.068 1319.35 135.957C1315.36 136.845 1312.83 138.233 1313.05 139.594C1318.55 139.455 1327.04 140.121 1332.74 141.148ZM520.661 114.135C516.857 114.69 513.554 115.717 510.972 117.494L510.944 117.549C516.608 118.021 521.383 118.077 525.686 118.021C529.962 118.16 533.765 118.021 537.513 117.772C541.289 117.411 544.926 117.327 548.924 117.272C550.923 117.244 553.005 117.216 555.226 117.216C556.337 117.244 557.475 117.244 558.669 117.244C559.751 117.296 560.858 117.419 562.01 117.547L562.278 117.577L558.558 117.133L554.81 116.772C552.311 116.494 549.84 116.134 547.397 115.773C542.794 114.9 538.191 114.506 533.852 114.134L533.21 114.079C528.685 113.69 524.465 113.468 520.661 114.135ZM1329.46 784.082C1325.74 784.61 1321.44 784.721 1317.08 784.665C1312.72 784.554 1308.3 784.36 1304.58 783.666C1297.09 782.389 1292.03 780.306 1294.2 777.641L1291.45 774.226C1294.48 774.393 1299.89 774.698 1305.92 775.059C1307.55 775.149 1309.23 775.229 1310.94 775.309H1310.94L1310.94 775.309C1315.56 775.527 1320.3 775.751 1324.38 776.197C1335.71 777.114 1342.45 779.168 1329.46 784.11V784.082ZM968.837 787.141L968.927 787.08H969.01L968.837 787.141C966.97 788.406 965.258 789.536 963.677 790.579C960.546 792.644 957.931 794.37 955.656 796.131C954.762 796.834 953.912 797.491 953.104 798.114L953.097 798.119C950.846 799.856 948.934 801.332 947.382 802.822C945.244 804.793 943.69 806.598 942.44 808.319C941.163 809.985 940.108 811.484 939.081 813.039L938.813 813.429L938.811 813.432L938.809 813.435L938.807 813.437C936.816 816.338 934.769 819.321 930.336 822.506C928.003 824.117 925.005 825.81 921.118 827.67C917.393 829.479 912.623 830.983 906.808 832.815L906.807 832.815L906.043 833.056C908.181 829.114 902.906 828.003 895.16 827.865C893.216 827.865 891.134 827.948 888.968 828.115C888.122 828.169 887.254 828.21 886.376 828.252C885.006 828.318 883.609 828.385 882.222 828.503C879.191 828.744 876.147 829.131 873.23 829.503L873.226 829.504L873.217 829.505C871.757 829.691 870.329 829.873 868.951 830.03C854.914 835.999 837.023 835.94 823.306 835.896H823.302C822.858 835.894 822.419 835.893 821.985 835.892C821.294 835.89 820.615 835.888 819.949 835.888C815.118 835.416 813.092 832.973 814.591 831.057C816.09 829.169 821.004 827.06 830.138 826.782C841.549 829.17 853.987 829.253 866.341 827.004C872.32 826.15 878.222 824.5 884.145 822.845L884.859 822.645C886.982 822.071 889.066 821.326 891.146 820.583L891.151 820.581L891.159 820.578C892.094 820.244 893.029 819.909 893.966 819.591C894.639 819.348 895.315 819.109 895.991 818.87L895.996 818.869L895.998 818.868C898.333 818.043 900.675 817.215 902.933 816.204C904.403 815.594 905.866 814.984 907.329 814.374L907.381 814.352C908.83 813.748 910.279 813.144 911.734 812.539C913.421 811.816 915.071 811.028 916.711 810.245L916.714 810.244L916.717 810.242C917.908 809.673 919.094 809.106 920.285 808.569C923.262 807.304 926.135 805.882 928.98 804.473L928.983 804.471L928.985 804.471C931.631 803.161 934.254 801.862 936.915 800.712C938.07 800.17 939.204 799.604 940.333 799.04L940.334 799.039C941.866 798.274 943.389 797.513 944.939 796.825C946.171 796.248 947.414 795.712 948.65 795.18L948.655 795.178C950.092 794.558 951.52 793.943 952.907 793.272C957.745 791.033 962.631 789.318 967.786 787.51L968.837 787.141ZM814.047 846.05L814.063 846.05V846.077L814.047 846.05C805.55 846.298 791.29 845.048 779.609 841.413C773.723 839.858 768.504 837.554 764.783 835.389C761.063 833.251 758.898 831.03 759.064 828.947C758.321 828.548 758.373 827.94 758.43 827.283C758.458 826.962 758.487 826.63 758.425 826.304C756.152 825.484 754.179 824.684 752.595 824.006C757.186 824.354 758.235 825.299 758.425 826.304C760.894 827.195 763.718 828.11 766.782 828.92C768.083 829.276 769.411 829.675 770.763 830.081C772.471 830.595 774.218 831.12 776 831.585C779.22 832.362 782.496 833.223 785.717 834.111C787.404 834.635 789.085 835.052 790.737 835.462C792.238 835.835 793.716 836.202 795.156 836.638C797.965 837.411 800.582 838.351 802.985 839.215L803.541 839.414C808.604 841.185 812.482 843.342 814.047 846.05ZM790.446 859.895L790.437 859.876L790.464 859.904L790.446 859.895C791.92 862.958 788.039 863.205 783.19 862.208C780.944 861.733 778.503 861.074 776.274 860.473C773.681 859.773 771.376 859.152 770.003 858.987L759.925 854.49C764.675 854.645 769.91 855.238 774.995 855.813L776.055 855.933C781.433 856.654 786.479 858.039 790.446 859.895ZM649.094 797.603C636.9 791.444 644.169 792.278 650.787 793.037C657.414 793.798 663.388 794.484 648.511 787.997L666.112 794.188L668.75 805.404L649.094 797.603ZM611.863 775.276L611.974 775.281V775.309L611.863 775.276C607.682 775.076 603.602 774.494 598.759 773.449C593.956 772.227 588.403 770.756 581.435 768.257L590.124 766.674C591.568 766.647 592.984 766.924 594.456 767.48C595.896 768.05 597.39 768.834 599.042 769.701L599.148 769.756C600.841 770.645 602.729 771.616 604.839 772.56C606.893 773.546 609.19 774.478 611.863 775.276ZM638.793 807.375C630.693 805.71 629.103 803.612 627.213 801.117C626.111 799.662 624.906 798.072 622.247 796.353C625.051 795.881 632.463 799.574 637.405 802.989C642.375 806.404 645.012 809.43 638.793 807.375ZM1520.36 769.062C1531.58 772.005 1544.85 770.062 1552.76 768.424C1552.09 768.082 1551.41 767.729 1550.74 767.376C1549.49 766.726 1548.24 766.074 1546.98 765.481L1520.36 769.034V769.062ZM1368.1 778.949C1358.23 778.445 1353.45 778.202 1360.11 772.366V772.394C1379.88 769.034 1404.89 766.647 1430.02 765.536C1442.57 765.009 1455.12 764.787 1466.83 765.092C1470.57 765.181 1474.21 765.282 1477.73 765.379L1477.75 765.379C1479.71 765.434 1481.63 765.487 1483.52 765.536C1487.53 765.705 1491.34 766.003 1494.91 766.283L1494.92 766.283L1494.98 766.288C1496.08 766.374 1497.15 766.458 1498.21 766.536C1496.35 767.053 1494.49 767.553 1492.64 768.051L1492.63 768.053L1492.63 768.054C1488.42 769.186 1484.23 770.315 1480.05 771.644C1472.58 771.811 1465 772.422 1457.42 773.254C1451.96 773.855 1446.54 774.715 1441.12 775.574L1441.11 775.575C1439.02 775.908 1436.92 776.241 1434.82 776.558C1419.91 779.001 1405.11 781.417 1390.71 781.556C1382.23 779.669 1374.19 779.259 1368.1 778.949H1368.1Z" fill="#FF3184"/>
</svg>
