<svg width="1920" height="1314" viewBox="0 0 2535 1314" fill="none" xmlns="http://www.w3.org/2000/svg">
<path d="M2345.51 105.722C2359.38 110.004 2372.56 114.068 2384.57 117.765L2384.46 117.655C2384.57 117.033 2386.91 117.179 2389.62 117.435C2411.29 130.137 2430.87 143.718 2448.33 156.566C2465.61 169.963 2480.87 182.482 2493.21 195.147C2499.43 201.37 2505.03 207.373 2509.94 213.12C2514.81 219.014 2518.94 224.761 2522.38 230.141C2529.27 240.94 2533.29 250.64 2534.1 259.023C2530.87 260.541 2520.73 257.66 2511.58 255.064C2506.4 253.592 2501.54 252.212 2498.44 251.775C2496.67 250.213 2495 248.719 2493.38 247.277C2487.33 241.893 2482.11 237.251 2476.08 232.631C2472.24 229.739 2468.06 226.884 2463.05 224.028C2458 221.32 2452.1 218.611 2444.96 215.792C2440.35 215.207 2434.83 213.926 2428.71 212.242C2427.64 211.947 2426.55 211.649 2425.45 211.347C2425.25 211.292 2425.04 211.237 2424.84 211.182L2424.84 211.181C2419.79 209.802 2414.38 208.325 2408.84 206.641C2401.88 204.518 2394.63 202.285 2387.53 200.089C2380.39 198.076 2373.37 196.099 2366.81 194.415C2360.26 192.731 2354.26 191.267 2349.06 190.352C2343.83 189.547 2339.51 189.217 2336.39 189.51C2330.21 190.132 2329.04 193.39 2335.63 200.858C2322.08 198.625 2311.36 195.843 2302.46 193.463C2293.6 191.011 2286.72 188.339 2281.16 185.52C2270.38 179.936 2264.37 174.318 2258.4 168.732L2257.88 168.243C2251.69 162.606 2245.36 157.005 2233.32 153.015C2227.28 151.112 2219.81 149.538 2210.29 148.476C2200.77 147.268 2189.13 147.048 2174.82 147.561C2169.77 148.696 2163.73 148.989 2157.03 148.842C2150.33 148.879 2143.01 148.366 2135.51 147.598C2125.02 146.392 2114.13 145.007 2104.11 143.731C2099.83 143.187 2095.7 142.662 2091.84 142.18C2078.92 140.423 2068.81 139.874 2065.3 141.192C2061.79 142.51 2064.86 145.95 2077.96 153.015C2071.59 156.255 2068.3 156.997 2055.49 159.884L2055.27 159.933C2048.46 158.286 2042.86 156.419 2038.72 154.626C2034.55 152.905 2031.84 151.148 2030.82 149.464C2028.73 146.207 2033.42 142.876 2046.78 141.741C2046.45 137.971 2026.06 137.568 2012.52 137.385C2001.06 140.167 1991.54 144.889 1982.61 149.757C1979.3 151.601 1976.07 153.444 1972.85 155.283C1967.36 158.412 1961.89 161.53 1956.11 164.619L1927.15 170.329C1916.61 167.767 1914.56 165.497 1917.12 163.118C1919.69 160.739 1926.71 158.506 1934.07 156.383C1934.75 156.183 1935.43 155.984 1936.12 155.784C1950.22 151.666 1964.33 147.547 1948.9 142.729C1916.57 142.693 1910.75 148.257 1905.48 153.564L1905.12 153.927C1899.95 159.152 1894.79 164.362 1864.63 165.9C1859.49 166.318 1853.74 166.84 1847.59 167.398L1847.59 167.398C1825.23 169.427 1797.67 171.926 1775.79 171.61C1747.83 171.171 1730.04 166.449 1745.89 154.699C1735.42 155.724 1725.17 155.614 1714.88 154.26C1709.76 153.637 1704.63 152.942 1699.51 152.027C1696.26 151.35 1692.99 150.688 1689.69 150.022C1687.82 149.643 1685.94 149.263 1684.06 148.879L1676.26 147.341C1675.13 147.087 1673.99 146.825 1672.85 146.562C1671.37 146.221 1669.88 145.879 1668.39 145.548C1663.09 144.413 1657.74 143.388 1652.25 142.546C1646.8 141.448 1641.2 140.533 1635.41 139.874C1633.55 139.639 1631.68 139.479 1629.78 139.317C1628.73 139.227 1627.66 139.137 1626.59 139.032C1623.59 138.703 1620.55 138.41 1617.44 138.227C1612.97 139.536 1610.78 141.917 1608.52 144.383C1607.11 145.916 1605.67 147.481 1603.64 148.842C1602.32 149.721 1600.71 150.526 1598.7 151.112C1596.68 151.624 1594.23 151.954 1591.19 152.027C1588.16 152.1 1584.49 151.88 1580.1 151.331C1577.91 151.038 1575.49 150.672 1572.89 150.197C1570.83 149.761 1568.65 149.14 1566.34 148.482C1565.74 148.311 1565.13 148.137 1564.51 147.964C1556.61 140.467 1551.29 134.65 1546.76 129.7L1546.75 129.698C1541.68 124.159 1537.61 119.706 1532.04 115.202C1526.84 110.846 1520.8 105.868 1512.53 99.6452C1511.79 99.0953 1511.03 98.5308 1510.25 97.9531C1502.35 92.0714 1492.62 84.8349 1479.22 77.902C1486.94 78.1948 1488.41 76.4744 1486.69 73.2166C1485 70.0319 1480.06 65.7858 1475.49 62.3815C1474.85 61.8841 1474.23 61.4042 1473.62 60.9402C1472.09 59.7656 1470.69 58.6933 1469.67 57.6961C1468.24 56.4516 1467.51 55.2802 1468.24 54.3651C1468.97 53.4134 1471.09 52.7179 1475.27 52.7179C1478.11 52.743 1481.94 53.0798 1486.78 54.0617C1482.08 52.8513 1478.05 51.6865 1474.53 50.5216C1473.33 50.099 1472.2 49.7155 1471.11 49.3494C1469.84 48.9226 1468.65 48.5195 1467.51 48.1057C1465.42 47.337 1463.52 46.495 1461.8 45.6531C1458.35 43.8595 1455.46 42.7979 1452.72 41.8828C1449.97 41.0775 1447.34 40.5651 1444.52 41.407C1444.59 39.4303 1447.23 37.9661 1451.84 36.9046C1454.14 36.3921 1456.93 35.8431 1460.07 35.6234C1463.19 35.5502 1466.74 35.6234 1470.51 35.8065C1478.12 36.1359 1486.61 38.0027 1494.63 40.4187C1502.68 42.8712 1510.3 45.946 1516.96 48.8378C1519.24 49.8396 1521.42 50.8071 1523.49 51.7228C1533.49 56.1604 1540.74 59.3799 1543.9 59.3799C1545.77 59.4165 1546.17 58.355 1544.56 55.8659C1542.88 53.3402 1539.36 49.3502 1532.33 43.0908C1524.21 35.7332 1513.34 29.1077 1499.72 24.2759C1492.95 21.86 1485.59 19.92 1477.86 18.7486C1474.02 18.3093 1470.18 17.9799 1466.41 17.687C1465.47 17.6321 1464.53 17.5681 1463.59 17.504C1462.65 17.44 1461.7 17.3759 1460.77 17.321C1459.84 17.3393 1458.9 17.3668 1457.97 17.3942C1457.04 17.4217 1456.1 17.4491 1455.17 17.4674C1454.45 17.4958 1453.73 17.5229 1453.02 17.5499C1450.04 17.662 1447.09 17.7734 1444.23 17.9799C1443.38 18.0941 1442.54 18.2084 1441.71 18.3221C1439.06 18.6821 1436.45 19.0371 1433.87 19.3709C1433.21 19.4734 1432.54 19.5642 1431.87 19.655C1430.86 19.7911 1429.85 19.9273 1428.89 20.103L1424.17 21.0913C1422.91 21.3427 1421.66 21.594 1420.43 21.843C1418.61 22.2103 1416.82 22.5724 1415.05 22.9215C1409.38 24.3491 1403.92 25.5571 1398.94 26.4722C1394.11 27.5338 1389.5 28.156 1385.18 28.2658C1381.67 27.5337 1380.06 26.216 1380.2 24.4589C1380.35 22.7019 1382.11 20.4324 1385.62 18.0165C1387.34 16.7719 1389.46 15.4907 1391.88 14.1364C1393.09 13.4775 1394.41 12.782 1395.76 12.0865C1396.61 11.7448 1397.49 11.3783 1398.4 11.0013C1399.04 10.7321 1399.7 10.4576 1400.37 10.1831C1403.59 8.90191 1407.11 7.58409 1410.88 6.30292C1414.83 5.20478 1419.04 4.14323 1423.47 3.1549C1426.84 2.26982 1430.61 1.83013 1434.43 1.38422C1435.51 1.25843 1436.59 1.13215 1437.67 0.995233C1438.28 0.932883 1438.88 0.866198 1439.49 0.799397C1441.38 0.591672 1443.27 0.382825 1445.21 0.299732C1447.81 0.263127 1450.41 0.226562 1453.05 0.226562C1453.92 0.238688 1454.8 0.254829 1455.68 0.270995C1457.45 0.303633 1459.23 0.336373 1460.99 0.336373C1462.76 0.384989 1464.52 0.595012 1466.29 0.80567C1467.18 0.912236 1468.07 1.01897 1468.97 1.10504C1470.13 1.25685 1471.29 1.3982 1472.44 1.53936C1476.59 2.04491 1480.71 2.54807 1484.75 3.52098C1505.61 8.09658 1521.17 15.7104 1531.31 20.7619C1531.85 21.0501 1532.41 21.3494 1533 21.6586C1537.37 23.9811 1542.8 26.8637 1548 29.8033C1553.97 33.0977 1559.64 36.3921 1564.18 39.2107C1573.11 44.4452 1579.66 49.277 1575.82 52.5348C1577.5 52.7637 1579.12 53.0633 1580.73 53.3599C1581.44 53.4902 1582.14 53.6199 1582.85 53.7428C1585.23 54.0356 1587.57 54.3651 1589.84 54.7677C1594.1 55.4549 1598.17 56.4647 1602.19 57.4639L1602.98 57.6595C1607.37 58.538 1611.62 59.563 1615.76 60.8076C1616.26 60.9663 1616.76 61.1249 1617.26 61.2831C1618.83 61.7817 1620.39 62.2752 1621.94 62.7476C1624.03 63.2967 1626.11 63.8823 1628.2 64.5046C1632.34 65.7491 1636.44 67.1768 1640.46 68.6776L1641.26 68.9296C1645.13 70.1639 1649.03 71.4064 1652.87 72.7773C1657.92 74.6802 1663.1 76.3588 1668.31 78.0474C1671.52 79.0872 1674.74 80.1309 1677.95 81.233C1711.81 92.1413 1748.7 99.5721 1788.82 88.7371C1799.63 89.4259 1807.1 91.5434 1814.46 93.6278C1825.87 96.8605 1837 100.013 1859.84 97.632C1852.99 90.6039 1871.55 87.7121 1895.42 85.8453C1904.08 85.1432 1913.46 84.7095 1922.55 84.2893C1938.59 83.5484 1953.71 82.8493 1962.4 80.7938C1994.25 80.2447 2028.77 79.9519 2061.05 82.0383C2062.13 82.1018 2063.2 82.1646 2064.27 82.2272C2071.22 82.6346 2078.08 83.0365 2084.77 83.5758C2092.46 84.3445 2099.96 85.1498 2107.18 85.9917C2109.18 86.2457 2111.16 86.4828 2113.12 86.7171C2118.21 87.3268 2123.15 87.9173 2127.86 88.7371C2134.37 89.8718 2140.56 91.0065 2146.27 92.1778C2152.42 92.6171 2159.45 92.8002 2166.07 92.8002C2172.66 92.9466 2178.88 92.8368 2183.5 92.3976C2192.68 91.5556 2195.32 89.4691 2181.19 85.6988C2190.01 86.9068 2198.39 89.2129 2206.48 91.7752C2210.27 93.0847 2213.99 94.4671 2217.66 95.8309C2221.78 97.3645 2225.84 98.8746 2229.87 100.231C2245.14 105.246 2259.71 109.016 2275.81 104.514C2258.95 99.9167 2249.55 96.5794 2242.14 93.9448C2241.17 93.6005 2240.23 93.2682 2239.32 92.9466C2237.71 92.3553 2236.17 91.7747 2234.64 91.1958C2228.68 88.9433 2222.78 86.7157 2212.96 83.9784C2227.09 82.8436 2242.03 83.0266 2257.07 84.8569C2264.58 85.8086 2272.15 87.0165 2279.69 88.4075L2291 90.6405C2294.52 91.4255 2297.97 92.3059 2301.45 93.1928L2302.21 93.3859C2317.07 97.266 2331.75 101.183 2345.51 105.722Z" fill="#FF3184"/>
<path d="M1405.46 47.3369C1403.98 55.4095 1416.71 60.4133 1432.14 66.479C1439.94 69.5448 1448.43 72.8818 1456.12 77.0234C1452.61 82.9168 1449.75 88.8467 1447.48 94.7035C1440.02 90.6404 1427.24 91.519 1413.37 97.1927C1400.88 102.173 1387.73 110.672 1375.34 118.674L1375.31 118.692C1373.87 119.624 1372.44 120.549 1371.02 121.462C1367.42 125.582 1371.91 124.252 1376.41 122.918C1377.26 122.664 1378.12 122.41 1378.92 122.194C1381.41 121.571 1383.42 121.279 1383.24 122.304C1383.1 123.365 1380.83 125.598 1374.68 130.686C1372.92 130.585 1371.83 129.689 1370.74 128.791C1369.08 127.424 1367.41 126.051 1363.37 127.465C1357.91 132.443 1355.09 136.433 1353.04 140.167C1352.23 141.64 1351.55 143.06 1350.86 144.479C1349.84 146.586 1348.83 148.691 1347.41 150.965C1346.23 152.869 1344.77 154.845 1342.79 157.042C1340.74 159.274 1338.14 161.69 1334.81 164.436C1331.41 167.181 1327.05 170.256 1321.6 173.733C1315.85 177.138 1309.01 181.054 1300.7 185.191C1299.03 185.429 1297.38 185.669 1295.72 185.909C1288.74 186.923 1281.86 187.921 1274.96 188.632C1218.74 215.646 1156.66 234.351 1092.93 238.707C1061.16 240.903 1029.05 239.439 998.013 233.875C996.236 233.54 994.459 233.212 992.686 232.885C990.587 232.498 988.492 232.112 986.409 231.715C982.566 230.837 978.76 229.886 974.954 228.934L974.952 228.933C974.167 228.73 973.385 228.526 972.603 228.323C969.591 227.539 966.598 226.761 963.604 226.005C959.908 224.907 956.248 223.736 952.589 222.565L952.586 222.564C938.09 217.769 924.217 212.315 911.259 206.238C900.131 206.934 881.17 201.077 861.733 194.159C859.389 193.328 857.036 192.487 854.683 191.646C837.451 185.49 820.221 179.334 806.533 176.918L807.704 171.647C797.711 172.818 786.803 168.243 775.821 163.411L774.721 162.903L774.715 162.901L774.709 162.898C772.306 161.789 769.927 160.692 767.548 159.677C766.714 159.321 765.88 158.948 765.045 158.575L765.043 158.574C763.13 157.719 761.212 156.862 759.276 156.2C753.749 154.223 748.294 152.539 743.17 151.661C740.315 150.05 737.386 148.732 734.421 147.451L725.453 143.461C723.952 141.009 726.624 140.057 731.273 139.728C733.616 139.581 736.434 139.581 739.473 139.654C741.443 139.654 743.474 139.885 745.518 140.117C746.625 140.243 747.737 140.369 748.843 140.46C755.14 141.045 761.216 141.448 764.876 140.643C768.5 140.02 769.782 138.08 766.267 133.798C746.391 125.305 727.796 125.012 710.482 126.403C706.126 126.733 701.88 127.026 697.633 127.209C695.972 127.28 694.31 127.402 692.649 127.524C690.064 127.714 687.479 127.904 684.895 127.904C680.649 127.977 676.366 127.794 672.047 127.282C667.691 126.989 663.225 126.403 658.613 125.305C654.147 125.122 650.303 124.976 646.936 125.122C643.568 125.342 640.713 125.598 638.224 125.927C633.245 126.586 629.768 127.502 626.766 128.526C624.65 129.258 622.754 130.101 620.722 131.005C616.955 132.681 612.722 134.564 605.755 136.323C603.252 139.433 605.425 140.49 607.888 141.687C610.178 142.801 612.719 144.036 611.978 147.158C608.808 147.63 605.754 148.118 602.807 148.589C596.837 149.542 591.306 150.426 586.135 150.965C584.049 151.153 582.021 151.352 580.046 151.545C574.711 152.067 569.763 152.552 565.087 152.686C552.275 152.978 541.624 152.795 531.081 152.063C530.442 152.042 529.803 152.02 529.164 151.999C508.87 151.31 488.461 150.618 455.529 163.997C455.259 165.289 451.561 168.484 447.25 172.209L447.248 172.21C443.382 175.551 439.023 179.317 436.202 182.519C430.235 189.437 431.077 193.756 457.103 187.241C461.629 184.231 466.213 181.38 470.818 178.515C473.55 176.816 476.29 175.112 479.029 173.367C482.995 173.296 486.976 173.427 490.932 173.557L490.935 173.557L490.944 173.557L490.961 173.558L490.963 173.558C493.058 173.627 495.147 173.696 497.222 173.733C495.645 174.276 493.942 174.827 492.156 175.405L492.148 175.408L492.145 175.408C488.753 176.506 485.062 177.7 481.372 179.114C475.698 181.201 469.915 183.434 464.9 185.557C454.907 189.949 448.025 194.269 451.063 196.355C435.323 191.304 405.82 209.02 385.614 222.271C384.637 222.904 383.681 223.524 382.747 224.13C373.951 229.841 367.159 234.25 364.346 234.68C361.235 235.156 362.882 230.544 372.216 217.696C380.526 215.243 387.261 213.01 392.971 210.96C398.682 208.947 403.367 207.007 407.54 204.774C415.886 200.272 422.328 195.367 430.894 187.241C395.168 200.748 361.125 214.145 328.51 227.689C295.968 241.233 265.001 254.96 235.717 269.821L222.649 286.696C217.341 279.412 186.154 288.856 156.614 300.459C152.9 302.991 148.656 305.402 144.821 307.581C136.903 312.079 130.73 315.585 134.578 317.114C133.736 318.981 139.995 317.041 149.11 313.637C156.801 310.617 166.637 306.722 175.893 303.058L180.7 301.155C201.784 293.029 217.854 288.746 195.891 308.476C161.958 323.337 125.829 337.211 91.6769 347.131C57.5612 357.124 25.4953 363.017 0.713867 364.262C8.87675 360.967 16.4906 358.149 23.8482 355.44C31.1691 352.585 38.124 349.656 45.0789 346.545C58.8789 340.066 72.3861 332.196 86.7352 319.494C131.575 294.986 177.691 270.378 223.8 245.774L223.802 245.773C233.476 240.611 243.15 235.449 252.811 230.288C257.629 227.719 262.442 225.154 267.248 222.592C318.056 195.512 368.144 168.815 416.032 142.363C418.757 144.097 425.698 143.474 432.307 142.88C441.323 142.071 449.72 141.317 445.939 146.682C450.67 146.829 457.761 144.593 465.261 142.228C467.102 141.647 468.968 141.059 470.83 140.496C480.31 137.861 489.718 135.957 494.842 138.886C515.634 130.283 537.963 122.596 561.134 117.289C570.069 114.934 579.18 113.305 588.331 111.669L588.333 111.669C590.99 111.194 593.65 110.718 596.311 110.224L614.138 107.955C615.25 107.831 616.361 107.692 617.473 107.553C619.326 107.321 621.18 107.09 623.033 106.93L631.928 106.344C655.648 104.367 679.184 105.172 701.55 107.076C704.846 107.445 708.129 107.826 711.392 108.205L711.413 108.208L711.419 108.208C713.655 108.468 715.881 108.727 718.095 108.979C720.841 109.236 723.513 109.675 726.185 110.187L727.395 110.403C729.654 110.806 731.891 111.206 734.128 111.578C736.76 112.054 739.356 112.492 741.951 112.931L741.953 112.931L741.957 112.932L741.962 112.933C744.561 113.335 747.123 113.811 749.612 114.507C754.627 115.715 759.605 116.886 764.437 118.021C759.898 112.969 760.63 110.48 764.876 109.565C767 109.126 770.001 109.016 773.552 109.309C777.102 109.712 781.239 110.407 785.741 111.249C793.803 112.878 802.819 115.424 811.386 117.843C821.879 120.806 831.699 123.579 838.269 124.244C853.84 136.674 882.898 147.423 907.209 156.415C910.674 157.697 914.043 158.943 917.262 160.153C918.645 159.656 921.717 160.001 924.937 160.363C930.497 160.988 936.499 161.663 935.016 158.14C921.682 154.607 914.84 150.686 905.977 145.606L905.975 145.605L905.973 145.604L905.972 145.604C901.794 143.209 897.167 140.558 891.2 137.568C898.631 133.016 911.862 140.312 927.542 148.959C937.966 154.707 949.472 161.053 961.078 164.912C955.368 165.351 949.621 165.717 943.837 165.9C951.714 168.773 959.797 171.982 968.068 175.266C985.089 182.024 1002.9 189.096 1021.33 194.196C1048.53 201.809 1076.86 204.848 1100.21 198.185L1080.12 193.097C1075.72 191.858 1071.37 190.474 1067.07 189.106L1067.06 189.103L1067.05 189.1L1067.05 189.099C1064.88 188.408 1062.72 187.72 1060.57 187.058C1068.79 186.741 1077.27 186.571 1085.9 186.397L1085.9 186.397C1107.23 185.968 1129.46 185.521 1150.8 182.811C1180.67 179.187 1208.42 170.951 1225.48 156.968C1219 158.694 1211.87 160.892 1204.46 163.174C1190.98 167.33 1176.6 171.76 1163.72 174.099C1159.2 175.18 1154.79 175.669 1150.81 176.112C1150.47 176.149 1150.14 176.186 1149.81 176.223C1145.57 176.625 1141.76 176.881 1138.54 176.698C1132.1 176.113 1128.22 174.246 1128.03 170.476C1128.33 168.426 1131.14 166.595 1135.54 165.021C1139.93 163.411 1145.79 161.617 1152.3 160.299C1154.61 159.845 1156.98 159.326 1159.37 158.801C1163.72 157.847 1168.16 156.874 1172.51 156.236C1174.49 155.9 1176.44 155.548 1178.33 155.206C1182.81 154.394 1186.96 153.643 1190.52 153.308C1212.33 150.709 1232.14 143.937 1249.71 134.896C1253.1 133.171 1256.36 131.228 1259.59 129.303C1260.55 128.736 1261.5 128.17 1262.45 127.611C1262.96 127.299 1263.48 126.984 1264 126.668C1264.51 126.355 1265.02 126.041 1265.54 125.727C1266.57 125.095 1267.61 124.464 1268.63 123.841C1270.61 122.45 1272.55 121.096 1274.53 119.741C1275.62 118.96 1276.7 118.19 1277.79 117.423L1277.79 117.422C1280.56 115.458 1283.31 113.511 1286.02 111.432C1287.31 110.414 1288.6 109.41 1289.89 108.406L1289.9 108.397L1289.91 108.391L1289.92 108.383C1292.38 106.47 1294.83 104.561 1297.29 102.574C1298.62 101.514 1299.95 100.451 1301.28 99.3864C1314.96 88.459 1328.86 77.345 1344.77 67.8722C1362.16 57.6228 1382.36 49.1305 1405.28 47.4101L1405.46 47.3369Z" fill="#FF3184"/>
<path d="M1754.52 85.1498C1749.62 85.8453 1743.95 85.9917 1738.2 85.9185C1732.45 85.7721 1726.63 85.5159 1721.73 84.6008C1711.84 82.9169 1705.18 80.1715 1708.04 76.6575L1704.41 72.1551C1708.4 72.3748 1715.54 72.7774 1723.48 73.2532C1725.63 73.3716 1727.86 73.4767 1730.11 73.5829L1730.11 73.583C1736.2 73.8706 1742.45 74.1659 1747.83 74.754C1762.76 75.962 1771.66 78.6708 1754.52 85.1865V85.1498Z" fill="#FF3184"/>
<path d="M1758.84 186.326L1751.3 184.861V184.898C1747.31 183.178 1749.03 182.299 1752.04 181.421C1752.78 181.192 1753.62 180.969 1754.47 180.74L1754.48 180.736C1757.04 180.049 1759.78 179.315 1760.93 178.273C1753.61 177.724 1746.47 178.309 1741.2 179.48C1735.93 180.652 1732.6 182.482 1732.89 184.276C1740.14 184.093 1751.34 184.971 1758.84 186.326Z" fill="#FF3184"/>
<path d="M1279.06 89.183L1279.17 89.103H1279.28L1279.06 89.183Z" fill="#FF3184"/>
<path d="M1277.67 89.6693L1279.06 89.183C1276.6 90.8508 1274.34 92.3403 1272.25 93.7153C1268.13 96.4385 1264.68 98.7138 1261.68 101.036C1260.5 101.963 1259.38 102.828 1258.31 103.65L1258.3 103.657C1255.34 105.947 1252.82 107.893 1250.77 109.858C1247.95 112.457 1245.9 114.836 1244.25 117.106C1242.57 119.302 1241.18 121.279 1239.82 123.329L1239.47 123.843L1239.47 123.846L1239.47 123.85L1239.46 123.854C1236.84 127.678 1234.14 131.611 1228.29 135.811C1225.22 137.934 1221.27 140.167 1216.14 142.619C1211.23 145.005 1204.94 146.987 1197.27 149.403L1196.26 149.721C1199.08 144.523 1192.13 143.059 1181.92 142.876C1179.35 142.876 1176.61 142.985 1173.75 143.205C1172.64 143.276 1171.49 143.331 1170.33 143.387C1168.53 143.473 1166.69 143.561 1164.86 143.717C1160.86 144.034 1156.85 144.546 1153 145.036L1153 145.037C1151.07 145.282 1149.18 145.523 1147.36 145.731C1128.85 153.6 1105.27 153.523 1087.18 153.464L1087.17 153.464C1086.59 153.462 1086.01 153.46 1085.44 153.459C1084.53 153.456 1083.63 153.454 1082.75 153.454C1076.38 152.832 1073.71 149.611 1075.69 147.085C1077.67 144.596 1084.14 141.814 1096.19 141.448C1111.23 144.596 1127.63 144.706 1143.92 141.741C1151.8 140.615 1159.58 138.44 1167.39 136.257L1168.34 135.994C1171.13 135.237 1173.88 134.255 1176.62 133.274L1176.63 133.272C1177.87 132.83 1179.1 132.388 1180.34 131.967C1181.23 131.647 1182.12 131.332 1183.01 131.017L1183.02 131.015C1186.1 129.926 1189.19 128.835 1192.17 127.502C1194.1 126.697 1196.03 125.893 1197.96 125.088C1199.89 124.282 1201.83 123.476 1203.77 122.67C1205.99 121.716 1208.17 120.677 1210.33 119.645L1210.33 119.643C1211.91 118.892 1213.47 118.144 1215.04 117.435C1218.97 115.766 1222.76 113.89 1226.51 112.033L1226.51 112.032C1230 110.304 1233.46 108.593 1236.97 107.076C1238.49 106.362 1239.99 105.615 1241.47 104.871L1241.48 104.87C1243.5 103.861 1245.5 102.857 1247.55 101.951C1249.17 101.19 1250.81 100.484 1252.44 99.7817C1254.34 98.9642 1256.22 98.1519 1258.05 97.2659C1264.43 94.3139 1270.87 92.0538 1277.67 89.6693Z" fill="#FF3184"/>
<path d="M1074.97 166.852L1074.99 166.852V166.888L1074.97 166.852Z" fill="#FF3184"/>
<path d="M1001.64 140.818C1004.89 141.993 1008.61 143.199 1012.65 144.267C1014.37 144.736 1016.12 145.262 1017.9 145.798C1020.15 146.475 1022.46 147.168 1024.81 147.781C1029.05 148.806 1033.37 149.94 1037.62 151.112C1039.84 151.802 1042.06 152.352 1044.24 152.893C1046.22 153.384 1048.17 153.868 1050.06 154.443C1053.77 155.462 1057.22 156.702 1060.39 157.84L1061.12 158.103C1067.8 160.438 1072.91 163.282 1074.97 166.852C1063.77 167.179 1044.97 165.531 1029.57 160.739C1021.81 158.689 1014.92 155.651 1010.02 152.796C1005.11 149.977 1002.26 147.049 1002.48 144.303C1001.5 143.777 1001.57 142.975 1001.64 142.108C1001.68 141.686 1001.72 141.248 1001.64 140.818Z" fill="#FF3184"/>
<path d="M993.95 137.788C996.038 138.682 998.639 139.737 1001.64 140.818C1001.39 139.493 1000 138.247 993.95 137.788Z" fill="#FF3184"/>
<path d="M1043.85 185.106L1043.84 185.081L1043.88 185.118L1043.85 185.106Z" fill="#FF3184"/>
<path d="M1024.88 179.883C1031.97 180.833 1038.62 182.659 1043.85 185.106C1045.8 189.145 1040.68 189.471 1034.29 188.156C1031.33 187.53 1028.11 186.661 1025.17 185.868C1021.75 184.946 1018.71 184.126 1016.9 183.91L1003.61 177.98C1009.88 178.185 1016.78 178.966 1023.48 179.725L1024.88 179.883Z" fill="#FF3184"/>
<path d="M857.486 102.976C841.41 94.8556 850.994 95.9556 859.719 96.9571C868.457 97.96 876.333 98.8641 856.718 90.3109L879.925 98.4737L883.403 113.262L857.486 102.976Z" fill="#FF3184"/>
<path d="M808.399 73.539L808.546 73.5459V73.5825L808.399 73.539Z" fill="#FF3184"/>
<path d="M808.399 73.539C802.887 73.2761 797.508 72.5088 791.122 71.13C784.789 69.5194 777.468 67.5793 768.28 64.2849L779.738 62.1985C781.641 62.1619 783.508 62.5279 785.448 63.26C787.348 64.0126 789.317 65.0459 791.495 66.1882L791.634 66.2616C793.867 67.4329 796.356 68.7141 799.138 69.9587C801.846 71.2585 804.875 72.4871 808.399 73.539Z" fill="#FF3184"/>
<path d="M843.906 115.861C833.225 113.665 831.13 110.899 828.638 107.61C827.184 105.691 825.596 103.595 822.09 101.329C825.787 100.707 835.56 105.575 842.076 110.078C848.628 114.58 852.105 118.57 843.906 115.861Z" fill="#FF3184"/>
<path d="M688.153 150.709C683.138 151.441 678.782 152.795 675.378 155.138L675.341 155.211C682.808 155.834 689.104 155.907 694.778 155.834C700.415 156.017 705.43 155.834 710.372 155.504C715.35 155.028 720.145 154.919 725.416 154.845C728.052 154.809 730.797 154.772 733.726 154.772C735.19 154.809 736.691 154.809 738.265 154.809C739.692 154.877 741.151 155.039 742.67 155.209L743.023 155.248L738.118 154.662L733.177 154.186C729.882 153.82 726.624 153.344 723.403 152.869C717.334 151.718 711.265 151.198 705.545 150.708L704.698 150.636C698.731 150.123 693.167 149.83 688.153 150.709Z" fill="#FF3184"/>
<path d="M2006.22 65.3465C2021.01 69.2266 2038.51 66.6643 2048.94 64.5046C2048.05 64.0536 2047.16 63.5891 2046.27 63.1237C2044.63 62.2669 2042.98 61.4073 2041.32 60.6245L2006.22 65.3099V65.3465Z" fill="#FF3184"/>
<path d="M1805.47 78.3814C1792.46 77.718 1786.16 77.3967 1794.94 69.7025V69.7392C1821 65.31 1853.98 62.162 1887.11 60.6978C1903.65 60.0023 1920.2 59.7094 1935.65 60.1121C1940.58 60.2295 1945.38 60.3621 1950.02 60.4903L1950.04 60.4909C1952.63 60.5623 1955.16 60.6324 1957.65 60.6978C1962.94 60.9207 1967.96 61.3135 1972.67 61.6821C1974.15 61.7976 1975.6 61.9107 1977.01 62.0155C1974.56 62.6986 1972.11 63.3578 1969.66 64.016C1964.11 65.5093 1958.58 66.9978 1953.07 68.7508C1943.22 68.9704 1933.23 69.7758 1923.24 70.8739C1916.03 71.6654 1908.89 72.7992 1901.75 73.9326L1901.74 73.934C1898.97 74.3727 1896.21 74.8112 1893.44 75.2299C1873.78 78.4511 1854.27 81.6357 1835.28 81.8187C1824.1 79.3312 1813.5 78.791 1805.47 78.3814Z" fill="#FF3184"/>
<path d="M2345.51 1054.58C2359.38 1058.87 2372.56 1062.93 2384.57 1066.63L2384.46 1066.52C2384.57 1065.89 2386.91 1066.04 2389.62 1066.3C2411.29 1079 2430.87 1092.58 2448.33 1105.43C2465.61 1118.82 2480.87 1131.34 2493.21 1144.01C2499.43 1150.23 2505.03 1156.23 2509.94 1161.98C2514.81 1167.87 2518.94 1173.62 2522.38 1179C2529.27 1189.8 2533.29 1199.5 2534.1 1207.88C2530.87 1209.4 2520.73 1206.52 2511.58 1203.92C2506.4 1202.45 2501.54 1201.07 2498.44 1200.64C2496.67 1199.07 2495 1197.58 2493.38 1196.14C2487.33 1190.75 2482.11 1186.11 2476.08 1181.49C2472.24 1178.6 2468.06 1175.74 2463.05 1172.89C2458 1170.18 2452.1 1167.47 2444.96 1164.65C2440.35 1164.07 2434.83 1162.79 2428.71 1161.1C2427.45 1160.75 2426.16 1160.4 2424.84 1160.04C2419.79 1158.66 2414.38 1157.19 2408.84 1155.5C2401.88 1153.38 2394.63 1151.15 2387.53 1148.95C2380.39 1146.94 2373.37 1144.96 2366.81 1143.28C2360.26 1141.59 2354.26 1140.13 2349.06 1139.21C2343.83 1138.41 2339.51 1138.08 2336.39 1138.37C2330.21 1138.99 2329.04 1142.25 2335.63 1149.72C2322.08 1147.49 2311.36 1144.7 2302.46 1142.32C2293.6 1139.87 2286.72 1137.2 2281.16 1134.38C2270.38 1128.8 2264.37 1123.18 2258.4 1117.59L2257.88 1117.1C2251.69 1111.47 2245.36 1105.87 2233.32 1101.88C2227.28 1099.97 2219.81 1098.4 2210.29 1097.34C2200.77 1096.13 2189.13 1095.91 2174.82 1096.42C2169.77 1097.56 2163.73 1097.85 2157.03 1097.7C2150.33 1097.74 2143.01 1097.23 2135.51 1096.46C2125.02 1095.25 2114.13 1093.87 2104.11 1092.59C2099.83 1092.05 2095.7 1091.52 2091.84 1091.04C2078.92 1089.28 2068.81 1088.74 2065.3 1090.05C2061.79 1091.37 2064.86 1094.81 2077.96 1101.88C2071.59 1105.12 2068.3 1105.86 2055.49 1108.75L2055.27 1108.79C2048.46 1107.15 2042.86 1105.28 2038.72 1103.49C2034.55 1101.77 2031.84 1100.01 2030.82 1098.33C2028.73 1095.07 2033.42 1091.74 2046.78 1090.6C2046.45 1086.83 2026.06 1086.43 2012.52 1086.25C2001.06 1089.03 1991.54 1093.75 1982.61 1098.62C1979.3 1100.46 1976.07 1102.3 1972.85 1104.14C1967.36 1107.27 1961.89 1110.39 1956.11 1113.48L1927.15 1119.19C1916.61 1116.63 1914.56 1114.36 1917.12 1111.98C1919.69 1109.6 1926.71 1107.37 1934.07 1105.24C1934.75 1105.04 1935.43 1104.84 1936.12 1104.65C1950.22 1100.53 1964.33 1096.41 1948.9 1091.59C1916.57 1091.55 1910.75 1097.12 1905.48 1102.43L1905.12 1102.79C1899.95 1108.01 1894.79 1113.22 1864.63 1114.76C1859.49 1115.18 1853.74 1115.7 1847.59 1116.26C1825.23 1118.29 1797.67 1120.79 1775.79 1120.47C1747.83 1120.03 1730.04 1115.31 1745.89 1103.56C1735.42 1104.58 1725.17 1104.48 1714.88 1103.12C1709.76 1102.5 1704.63 1101.8 1699.51 1100.89C1696.26 1100.21 1692.99 1099.55 1689.69 1098.88C1687.82 1098.5 1685.94 1098.12 1684.06 1097.74L1676.26 1096.2C1675.13 1095.95 1673.99 1095.69 1672.85 1095.42C1671.37 1095.08 1669.88 1094.74 1668.39 1094.41C1663.09 1093.27 1657.74 1092.25 1652.25 1091.41C1646.8 1090.31 1641.2 1089.39 1635.41 1088.74C1633.55 1088.5 1631.68 1088.34 1629.78 1088.18C1628.73 1088.09 1627.66 1088 1626.59 1087.89C1623.59 1087.56 1620.55 1087.27 1617.44 1087.09C1612.97 1088.4 1610.78 1090.78 1608.52 1093.24C1607.11 1094.78 1605.67 1096.34 1603.64 1097.7C1602.32 1098.58 1600.71 1099.39 1598.7 1099.97C1596.68 1100.49 1594.23 1100.81 1591.19 1100.89C1588.16 1100.96 1584.49 1100.74 1580.1 1100.19C1577.91 1099.9 1575.49 1099.53 1572.89 1099.06C1570.83 1098.62 1568.65 1098 1566.34 1097.34C1565.74 1097.17 1565.13 1097 1564.51 1096.82C1556.61 1089.33 1551.29 1083.51 1546.75 1078.56C1541.68 1073.02 1537.61 1068.57 1532.04 1064.06C1526.84 1059.71 1520.8 1054.73 1512.53 1048.51C1511.79 1047.96 1511.03 1047.39 1510.25 1046.81C1502.35 1040.93 1492.62 1033.7 1479.22 1026.76C1486.94 1027.06 1488.41 1025.34 1486.69 1022.08C1485 1018.89 1480.06 1014.65 1475.49 1011.24C1474.85 1010.75 1474.23 1010.27 1473.62 1009.8L1473.62 1009.8C1472.09 1008.63 1470.69 1007.55 1469.67 1006.56C1468.24 1005.31 1467.51 1004.14 1468.24 1003.23C1468.97 1002.27 1471.09 1001.58 1475.27 1001.58C1478.11 1001.6 1481.94 1001.94 1486.78 1002.92C1482.08 1001.71 1478.05 1000.55 1474.53 999.383C1473.33 998.96 1472.2 998.577 1471.11 998.211C1471.11 998.209 1471.1 998.208 1471.1 998.207C1469.84 997.781 1468.65 997.379 1467.51 996.967C1465.42 996.198 1463.52 995.356 1461.8 994.514C1458.35 992.721 1455.46 991.659 1452.72 990.744C1449.97 989.939 1447.34 989.426 1444.52 990.268C1444.59 988.291 1447.23 986.827 1451.84 985.766C1454.14 985.253 1456.93 984.704 1460.07 984.485C1463.19 984.411 1466.74 984.485 1470.51 984.668C1478.12 984.997 1486.61 986.864 1494.63 989.28C1502.68 991.732 1510.3 994.807 1516.96 997.699C1519.24 998.701 1521.42 999.668 1523.49 1000.58L1523.49 1000.58C1533.49 1005.02 1540.74 1008.24 1543.9 1008.24C1545.77 1008.28 1546.17 1007.22 1544.56 1004.73C1542.88 1002.2 1539.36 998.211 1532.33 991.952C1524.21 984.594 1513.34 977.969 1499.72 973.137C1492.95 970.721 1485.59 968.781 1477.86 967.61C1474.02 967.17 1470.18 966.841 1466.41 966.548C1465.48 966.493 1464.53 966.429 1463.59 966.365L1463.59 966.365C1462.65 966.301 1461.7 966.237 1460.77 966.182C1459.84 966.2 1458.9 966.228 1457.97 966.255H1457.97C1457.04 966.283 1456.1 966.31 1455.17 966.329C1454.47 966.356 1453.77 966.383 1453.07 966.409C1453.05 966.41 1453.04 966.41 1453.02 966.411C1450.04 966.523 1447.09 966.635 1444.23 966.841C1443.46 966.944 1442.7 967.048 1441.94 967.151C1441.86 967.162 1441.79 967.172 1441.71 967.183C1439.06 967.543 1436.45 967.898 1433.87 968.232C1433.21 968.334 1432.54 968.425 1431.87 968.516C1430.86 968.652 1429.85 968.788 1428.89 968.964L1424.17 969.952C1423.47 970.091 1422.78 970.23 1422.09 970.369C1421.54 970.481 1420.98 970.593 1420.43 970.704C1418.61 971.071 1416.82 971.434 1415.05 971.783C1409.38 973.21 1403.92 974.418 1398.94 975.333C1394.11 976.395 1389.5 977.017 1385.18 977.127C1381.67 976.395 1380.06 975.077 1380.2 973.32C1380.35 971.563 1382.11 969.294 1385.62 966.878C1387.34 965.633 1389.46 964.352 1391.88 962.997C1393.09 962.339 1394.41 961.643 1395.76 960.948C1396.61 960.606 1397.49 960.24 1398.39 959.864L1398.4 959.862C1398.42 959.855 1398.43 959.847 1398.45 959.839C1399.08 959.578 1399.72 959.311 1400.37 959.044C1403.59 957.763 1407.11 956.445 1410.88 955.164C1414.83 954.066 1419.04 953.004 1423.47 952.016C1426.84 951.131 1430.61 950.691 1434.43 950.246L1434.43 950.245C1435.51 950.12 1436.59 949.993 1437.67 949.856C1438.27 949.795 1438.87 949.729 1439.47 949.662C1439.48 949.662 1439.48 949.661 1439.49 949.66C1441.38 949.453 1443.27 949.244 1445.21 949.161C1447.81 949.124 1450.41 949.088 1453.05 949.088C1453.92 949.1 1454.8 949.116 1455.68 949.132C1457.45 949.165 1459.23 949.198 1460.99 949.198C1462.76 949.246 1464.52 949.456 1466.29 949.667C1467.18 949.773 1468.07 949.88 1468.97 949.966C1470.13 950.118 1471.29 950.259 1472.44 950.4C1476.59 950.906 1480.71 951.409 1484.75 952.382C1505.61 956.958 1521.17 964.572 1531.31 969.623C1531.7 969.83 1532.1 970.043 1532.51 970.262C1532.67 970.347 1532.83 970.433 1533 970.52C1537.37 972.842 1542.8 975.725 1548 978.664C1553.97 981.959 1559.64 985.253 1564.18 988.072C1573.11 993.306 1579.66 998.138 1575.82 1001.4C1577.5 1001.62 1579.12 1001.92 1580.73 1002.22L1580.73 1002.22C1581.44 1002.35 1582.14 1002.48 1582.85 1002.6C1585.23 1002.9 1587.57 1003.23 1589.84 1003.63C1594.1 1004.32 1598.17 1005.33 1602.19 1006.32L1602.98 1006.52C1607.37 1007.4 1611.62 1008.42 1615.76 1009.67C1616.26 1009.83 1616.76 1009.99 1617.26 1010.14C1618.83 1010.64 1620.39 1011.14 1621.94 1011.61C1624.03 1012.16 1626.11 1012.74 1628.2 1013.37C1632.34 1014.61 1636.44 1016.04 1640.46 1017.54L1641.26 1017.79C1645.13 1019.03 1649.03 1020.27 1652.87 1021.64C1657.92 1023.54 1663.1 1025.22 1668.3 1026.91C1668.31 1026.91 1668.31 1026.91 1668.31 1026.91C1671.52 1027.95 1674.74 1028.99 1677.95 1030.09C1711.81 1041 1748.7 1048.43 1788.82 1037.6C1799.63 1038.29 1807.1 1040.4 1814.46 1042.49C1825.87 1045.72 1837 1048.87 1859.84 1046.49C1852.99 1039.46 1871.55 1036.57 1895.42 1034.71C1904.08 1034 1913.45 1033.57 1922.54 1033.15C1922.55 1033.15 1922.55 1033.15 1922.55 1033.15C1938.59 1032.41 1953.71 1031.71 1962.4 1029.65C1994.25 1029.11 2028.77 1028.81 2061.05 1030.9C2062.13 1030.96 2063.2 1031.03 2064.27 1031.09C2071.22 1031.5 2078.08 1031.9 2084.77 1032.44C2092.46 1033.21 2099.96 1034.01 2107.18 1034.85C2109.18 1035.11 2111.16 1035.34 2113.12 1035.58C2118.21 1036.19 2123.15 1036.78 2127.86 1037.6C2134.37 1038.73 2140.56 1039.87 2146.27 1041.04C2152.42 1041.48 2159.45 1041.66 2166.07 1041.66C2172.66 1041.81 2178.88 1041.7 2183.5 1041.26C2192.68 1040.42 2195.32 1038.33 2181.19 1034.56C2190.01 1035.77 2198.39 1038.07 2206.48 1040.64C2210.27 1041.95 2213.99 1043.33 2217.66 1044.69C2221.78 1046.23 2225.84 1047.74 2229.87 1049.09C2245.14 1054.11 2259.71 1057.88 2275.81 1053.37C2258.95 1048.78 2249.55 1045.44 2242.14 1042.81C2241.17 1042.46 2240.23 1042.13 2239.32 1041.81C2237.71 1041.22 2236.17 1040.64 2234.64 1040.06C2228.68 1037.8 2222.78 1035.58 2212.96 1032.84C2227.09 1031.7 2242.03 1031.89 2257.07 1033.72C2264.58 1034.67 2272.15 1035.88 2279.69 1037.27L2291 1039.5C2294.52 1040.29 2297.97 1041.17 2301.45 1042.05L2302.21 1042.25C2317.07 1046.13 2331.75 1050.04 2345.51 1054.58Z" fill="#FF3184"/>
<path d="M1405.46 996.198C1403.98 1004.27 1416.71 1009.27 1432.14 1015.34C1439.94 1018.41 1448.43 1021.74 1456.12 1025.88C1452.61 1031.78 1449.75 1037.71 1447.48 1043.56C1440.02 1039.5 1427.24 1040.38 1413.37 1046.05C1400.88 1051.03 1387.73 1059.53 1375.34 1067.54L1375.31 1067.55C1373.87 1068.49 1372.44 1069.41 1371.02 1070.32C1367.42 1074.44 1371.91 1073.11 1376.41 1071.78C1377.26 1071.53 1378.12 1071.27 1378.92 1071.05C1381.41 1070.43 1383.42 1070.14 1383.24 1071.16C1383.1 1072.23 1380.83 1074.46 1374.68 1079.55C1372.92 1079.45 1371.83 1078.55 1370.74 1077.65C1369.08 1076.29 1367.41 1074.91 1363.37 1076.33C1357.91 1081.3 1355.09 1085.29 1353.04 1089.03C1352.23 1090.5 1351.55 1091.92 1350.86 1093.34C1349.84 1095.45 1348.83 1097.55 1347.41 1099.83C1346.23 1101.73 1344.77 1103.71 1342.79 1105.9C1340.74 1108.14 1338.14 1110.55 1334.81 1113.3C1331.41 1116.04 1327.05 1119.12 1321.6 1122.59C1315.85 1126 1309.01 1129.92 1300.7 1134.05C1299.03 1134.29 1297.38 1134.53 1295.72 1134.77C1288.74 1135.78 1281.86 1136.78 1274.96 1137.49C1218.74 1164.51 1156.66 1183.21 1092.93 1187.57C1061.16 1189.76 1029.05 1188.3 998.013 1182.74C996.236 1182.4 994.459 1182.07 992.686 1181.75C990.587 1181.36 988.492 1180.97 986.409 1180.58C982.566 1179.7 978.76 1178.75 974.954 1177.8L974.952 1177.79C974.167 1177.59 973.385 1177.39 972.603 1177.18C969.591 1176.4 966.598 1175.62 963.604 1174.87C959.908 1173.77 956.248 1172.6 952.589 1171.43L952.586 1171.43C938.09 1166.63 924.217 1161.18 911.259 1155.1C900.131 1155.8 881.17 1149.94 861.733 1143.02C859.389 1142.19 857.036 1141.35 854.683 1140.51C837.451 1134.35 820.221 1128.19 806.533 1125.78L807.704 1120.51C797.711 1121.68 786.803 1117.1 775.821 1112.27L774.721 1111.76L774.715 1111.76L774.709 1111.76C772.306 1110.65 769.927 1109.55 767.548 1108.54C766.714 1108.18 765.88 1107.81 765.045 1107.44L765.043 1107.44C763.13 1106.58 761.212 1105.72 759.276 1105.06C753.749 1103.08 748.294 1101.4 743.17 1100.52C740.315 1098.91 737.386 1097.59 734.421 1096.31L725.453 1092.32C723.952 1089.87 726.624 1088.92 731.273 1088.59C733.616 1088.44 736.434 1088.44 739.473 1088.52C741.443 1088.52 743.474 1088.75 745.518 1088.98C746.625 1089.1 747.737 1089.23 748.843 1089.32C755.14 1089.91 761.216 1090.31 764.876 1089.5C768.5 1088.88 769.782 1086.94 766.267 1082.66C746.391 1074.17 727.796 1073.87 710.482 1075.26C706.126 1075.59 701.88 1075.89 697.633 1076.07C695.972 1076.14 694.31 1076.26 692.649 1076.39C690.064 1076.58 687.479 1076.77 684.895 1076.77C680.649 1076.84 676.366 1076.66 672.047 1076.14C667.691 1075.85 663.225 1075.26 658.613 1074.17C654.147 1073.98 650.303 1073.84 646.936 1073.98C643.568 1074.2 640.713 1074.46 638.224 1074.79C633.245 1075.45 629.768 1076.36 626.766 1077.39C624.65 1078.12 622.754 1078.96 620.722 1079.87C616.955 1081.54 612.722 1083.42 605.755 1085.18C603.252 1088.29 605.425 1089.35 607.888 1090.55C610.178 1091.66 612.719 1092.9 611.978 1096.02C608.808 1096.49 605.754 1096.98 602.807 1097.45C596.837 1098.4 591.306 1099.29 586.135 1099.83C584.049 1100.01 582.021 1100.21 580.046 1100.41C574.711 1100.93 569.763 1101.41 565.087 1101.55C552.275 1101.84 541.624 1101.66 531.081 1100.92C530.442 1100.9 529.803 1100.88 529.164 1100.86C508.87 1100.17 488.461 1099.48 455.529 1112.86C455.259 1114.15 451.561 1117.35 447.25 1121.07L447.248 1121.07C443.382 1124.41 439.023 1128.18 436.202 1131.38C430.235 1138.3 431.077 1142.62 457.103 1136.1C461.629 1133.09 466.213 1130.24 470.818 1127.38C473.55 1125.68 476.29 1123.97 479.029 1122.23C482.995 1122.16 486.976 1122.29 490.932 1122.42L490.935 1122.42L490.944 1122.42L490.961 1122.42C493.057 1122.49 495.146 1122.56 497.222 1122.59C495.645 1123.14 493.942 1123.69 492.156 1124.27L492.148 1124.27L492.145 1124.27C488.753 1125.37 485.062 1126.56 481.372 1127.98C475.698 1130.06 469.915 1132.29 464.9 1134.42C454.907 1138.81 448.025 1143.13 451.063 1145.22C435.323 1140.16 405.82 1157.88 385.614 1171.13C384.637 1171.76 383.681 1172.39 382.747 1172.99C373.951 1178.7 367.159 1183.11 364.346 1183.54C361.235 1184.02 362.882 1179.41 372.216 1166.56C380.526 1164.1 387.261 1161.87 392.971 1159.82C398.682 1157.81 403.367 1155.87 407.54 1153.64C415.886 1149.13 422.328 1144.23 430.894 1136.1C395.168 1149.61 361.125 1163.01 328.51 1176.55C295.968 1190.09 265.001 1203.82 235.717 1218.68L222.649 1235.56C217.341 1228.27 186.154 1237.72 156.614 1249.32C152.9 1251.85 148.656 1254.26 144.821 1256.44C136.903 1260.94 130.73 1264.45 134.578 1265.98C133.736 1267.84 139.995 1265.9 149.11 1262.5C156.801 1259.48 166.637 1255.58 175.893 1251.92L180.7 1250.02C201.784 1241.89 217.854 1237.61 195.891 1257.34C161.958 1272.2 125.829 1286.07 91.6769 1295.99C57.5612 1305.98 25.4953 1311.88 0.713867 1313.12C8.87675 1309.83 16.4906 1307.01 23.8482 1304.3C31.1691 1301.45 38.124 1298.52 45.0789 1295.41C58.8789 1288.93 72.3861 1281.06 86.7352 1268.35C131.569 1243.85 177.679 1219.25 223.782 1194.64C223.788 1194.64 223.794 1194.64 223.8 1194.63L223.802 1194.63C233.476 1189.47 243.15 1184.31 252.811 1179.15C257.629 1176.58 262.442 1174.02 267.248 1171.45C318.056 1144.37 368.144 1117.68 416.032 1091.22C418.757 1092.96 425.698 1092.33 432.307 1091.74C441.323 1090.93 449.72 1090.18 445.939 1095.54C450.67 1095.69 457.761 1093.45 465.26 1091.09L465.261 1091.09C467.102 1090.51 468.968 1089.92 470.83 1089.36C480.31 1086.72 489.718 1084.82 494.842 1087.75C515.634 1079.14 537.963 1071.46 561.134 1066.15C570.069 1063.8 579.18 1062.17 588.331 1060.53L588.333 1060.53C588.337 1060.53 588.342 1060.53 588.347 1060.53C591 1060.05 593.655 1059.58 596.311 1059.09L614.138 1056.82C615.25 1056.69 616.361 1056.55 617.473 1056.41C619.326 1056.18 621.18 1055.95 623.033 1055.79L631.928 1055.21C655.648 1053.23 679.184 1054.03 701.55 1055.94C704.846 1056.31 708.129 1056.69 711.392 1057.07L711.413 1057.07L711.419 1057.07C711.463 1057.07 711.507 1057.08 711.551 1057.08C713.742 1057.34 715.925 1057.59 718.095 1057.84C720.841 1058.1 723.513 1058.54 726.185 1059.05L727.395 1059.26C729.654 1059.67 731.891 1060.07 734.128 1060.44C736.76 1060.91 739.356 1061.35 741.951 1061.79L741.953 1061.79L741.957 1061.79L741.962 1061.79C744.561 1062.2 747.123 1062.67 749.612 1063.37C754.627 1064.58 759.605 1065.75 764.437 1066.88C759.898 1061.83 760.63 1059.34 764.876 1058.43C767 1057.99 770.001 1057.88 773.552 1058.17C777.102 1058.57 781.239 1059.27 785.741 1060.11C793.803 1061.74 802.819 1064.28 811.386 1066.7L811.388 1066.7C821.881 1069.67 831.7 1072.44 838.269 1073.1C853.84 1085.54 882.898 1096.28 907.209 1105.28C910.674 1106.56 914.043 1107.8 917.262 1109.01C918.645 1108.52 921.717 1108.86 924.937 1109.22C930.497 1109.85 936.499 1110.52 935.016 1107C921.682 1103.47 914.84 1099.55 905.977 1094.47L905.975 1094.47L905.973 1094.47L905.972 1094.46C901.794 1092.07 897.167 1089.42 891.2 1086.43C898.631 1081.88 911.862 1089.17 927.542 1097.82C937.966 1103.57 949.472 1109.91 961.078 1113.77C955.368 1114.21 949.621 1114.58 943.837 1114.76C951.713 1117.63 959.796 1120.84 968.065 1124.13L968.068 1124.13C985.089 1130.88 1002.9 1137.96 1021.33 1143.06C1048.53 1150.67 1076.86 1153.71 1100.21 1147.05L1080.12 1141.96C1075.72 1140.72 1071.37 1139.34 1067.07 1137.97L1067.06 1137.96L1067.05 1137.96L1067.05 1137.96C1064.88 1137.27 1062.72 1136.58 1060.57 1135.92C1068.79 1135.6 1077.27 1135.43 1085.9 1135.26L1085.9 1135.26C1107.23 1134.83 1129.46 1134.38 1150.8 1131.67C1180.67 1128.05 1208.42 1119.81 1225.48 1105.83C1219 1107.55 1211.87 1109.75 1204.46 1112.03C1190.98 1116.19 1176.6 1120.62 1163.72 1122.96C1159.2 1124.04 1154.79 1124.53 1150.81 1124.97C1150.47 1125.01 1150.14 1125.05 1149.81 1125.08C1145.57 1125.49 1141.76 1125.74 1138.54 1125.56C1132.1 1124.97 1128.22 1123.11 1128.03 1119.34C1128.33 1117.29 1131.14 1115.46 1135.54 1113.88C1139.93 1112.27 1145.79 1110.48 1152.3 1109.16C1154.61 1108.71 1156.98 1108.19 1159.37 1107.66C1163.72 1106.71 1168.16 1105.74 1172.51 1105.1C1174.49 1104.76 1176.44 1104.41 1178.32 1104.07L1178.33 1104.07C1182.81 1103.26 1186.96 1102.5 1190.52 1102.17C1212.33 1099.57 1232.14 1092.8 1249.71 1083.76C1253.1 1082.03 1256.36 1080.09 1259.59 1078.17L1259.59 1078.16C1260.55 1077.6 1261.5 1077.03 1262.45 1076.47C1262.96 1076.16 1263.48 1075.84 1264 1075.53C1264.3 1075.35 1264.6 1075.16 1264.9 1074.98C1265.11 1074.85 1265.33 1074.72 1265.54 1074.59C1265.56 1074.57 1265.58 1074.56 1265.6 1074.55C1266.62 1073.93 1267.63 1073.31 1268.63 1072.7C1270.61 1071.31 1272.55 1069.96 1274.53 1068.6C1275.62 1067.82 1276.7 1067.05 1277.79 1066.28L1277.79 1066.28C1280.56 1064.32 1283.31 1062.37 1286.02 1060.29C1287.31 1059.28 1288.6 1058.27 1289.89 1057.27L1289.9 1057.26L1289.91 1057.25L1289.92 1057.24C1289.92 1057.24 1289.93 1057.24 1289.93 1057.24C1292.38 1055.33 1294.83 1053.42 1297.29 1051.43C1298.62 1050.38 1299.95 1049.31 1301.28 1048.25C1314.96 1037.32 1328.86 1026.21 1344.77 1016.73C1362.16 1006.48 1382.36 997.992 1405.28 996.271L1405.46 996.198Z" fill="#FF3184"/>
<path d="M1754.52 1034.01C1749.62 1034.71 1743.95 1034.85 1738.2 1034.78C1732.45 1034.63 1726.63 1034.38 1721.73 1033.46C1711.84 1031.78 1705.18 1029.03 1708.04 1025.52L1704.41 1021.02C1708.4 1021.24 1715.54 1021.64 1723.48 1022.11C1725.63 1022.23 1727.86 1022.34 1730.11 1022.44H1730.11L1730.11 1022.44C1736.2 1022.73 1742.45 1023.03 1747.83 1023.62C1762.76 1024.82 1771.66 1027.53 1754.52 1034.05V1034.01Z" fill="#FF3184"/>
<path d="M1758.84 1135.19L1751.3 1133.72V1133.76C1747.31 1132.04 1749.03 1131.16 1752.04 1130.28C1752.78 1130.05 1753.62 1129.83 1754.47 1129.6L1754.48 1129.6C1757.04 1128.91 1759.78 1128.18 1760.93 1127.13C1753.61 1126.58 1746.47 1127.17 1741.2 1128.34C1735.93 1129.51 1732.6 1131.34 1732.89 1133.14C1740.14 1132.95 1751.34 1133.83 1758.84 1135.19Z" fill="#FF3184"/>
<path d="M1279.06 1038.04L1279.17 1037.96H1279.28L1279.06 1038.04Z" fill="#FF3184"/>
<path d="M1277.67 1038.53L1279.06 1038.04C1276.6 1039.71 1274.34 1041.2 1272.25 1042.58C1268.13 1045.3 1264.68 1047.57 1261.68 1049.9C1260.5 1050.82 1259.38 1051.69 1258.31 1052.51L1258.3 1052.52C1255.34 1054.81 1252.82 1056.75 1250.77 1058.72C1247.95 1061.32 1245.9 1063.7 1244.25 1065.97C1242.57 1068.16 1241.18 1070.14 1239.82 1072.19L1239.47 1072.7L1239.47 1072.71L1239.47 1072.71L1239.46 1072.71C1236.84 1076.54 1234.14 1080.47 1228.29 1084.67C1225.22 1086.79 1221.27 1089.03 1216.14 1091.48C1211.23 1093.87 1204.94 1095.85 1197.27 1098.26L1197.27 1098.26L1196.26 1098.58C1199.08 1093.38 1192.13 1091.92 1181.92 1091.74C1179.35 1091.74 1176.61 1091.85 1173.75 1092.07C1172.64 1092.14 1171.49 1092.19 1170.33 1092.25C1168.53 1092.33 1166.69 1092.42 1164.86 1092.58C1160.86 1092.9 1156.85 1093.41 1153 1093.9L1153 1093.9C1152.99 1093.9 1152.99 1093.9 1152.98 1093.9C1151.06 1094.14 1149.18 1094.38 1147.36 1094.59C1128.85 1102.46 1105.27 1102.38 1087.18 1102.33H1087.17C1086.59 1102.32 1086.01 1102.32 1085.44 1102.32C1084.53 1102.32 1083.63 1102.32 1082.75 1102.32C1076.38 1101.69 1073.71 1098.47 1075.69 1095.95C1077.67 1093.46 1084.14 1090.68 1096.19 1090.31C1111.23 1093.46 1127.63 1093.57 1143.92 1090.6C1151.8 1089.48 1159.58 1087.3 1167.39 1085.12L1168.34 1084.85C1171.13 1084.1 1173.88 1083.12 1176.62 1082.14L1176.63 1082.13C1176.63 1082.13 1176.64 1082.13 1176.64 1082.13C1177.87 1081.69 1179.11 1081.25 1180.34 1080.83C1181.23 1080.51 1182.12 1080.19 1183.01 1079.88L1183.02 1079.88L1183.02 1079.87C1186.1 1078.79 1189.19 1077.7 1192.17 1076.36C1194.1 1075.56 1196.03 1074.75 1197.96 1073.95C1197.98 1073.94 1198.01 1073.93 1198.03 1073.92C1199.94 1073.12 1201.85 1072.33 1203.77 1071.53C1205.99 1070.58 1208.17 1069.54 1210.33 1068.51L1210.33 1068.5L1210.34 1068.5C1211.91 1067.75 1213.47 1067 1215.04 1066.3C1218.97 1064.63 1222.76 1062.75 1226.51 1060.9L1226.51 1060.89L1226.51 1060.89C1230 1059.17 1233.46 1057.45 1236.97 1055.94C1238.49 1055.22 1239.99 1054.48 1241.47 1053.73L1241.48 1053.73C1243.5 1052.72 1245.5 1051.72 1247.55 1050.81C1249.17 1050.05 1250.81 1049.34 1252.44 1048.64L1252.45 1048.64C1254.34 1047.82 1256.22 1047.01 1258.05 1046.13C1264.43 1043.17 1270.87 1040.91 1277.67 1038.53Z" fill="#FF3184"/>
<path d="M1074.97 1115.71L1074.99 1115.71V1115.75L1074.97 1115.71Z" fill="#FF3184"/>
<path d="M1001.64 1089.68C1004.89 1090.85 1008.61 1092.06 1012.65 1093.13C1014.37 1093.6 1016.12 1094.12 1017.9 1094.66C1020.15 1095.34 1022.46 1096.03 1024.81 1096.64C1029.05 1097.67 1033.37 1098.8 1037.62 1099.97C1039.84 1100.66 1042.06 1101.21 1044.24 1101.75C1046.22 1102.25 1048.17 1102.73 1050.06 1103.3C1053.77 1104.32 1057.22 1105.56 1060.39 1106.7L1061.12 1106.96C1067.8 1109.3 1072.91 1112.14 1074.97 1115.71C1063.77 1116.04 1044.97 1114.39 1029.57 1109.6C1021.81 1107.55 1014.92 1104.51 1010.02 1101.66C1005.11 1098.84 1002.26 1095.91 1002.48 1093.16C1001.5 1092.64 1001.57 1091.84 1001.64 1090.97C1001.68 1090.55 1001.72 1090.11 1001.64 1089.68Z" fill="#FF3184"/>
<path d="M993.95 1086.65C996.038 1087.54 998.639 1088.6 1001.64 1089.68C1001.39 1088.35 1000 1087.11 993.95 1086.65Z" fill="#FF3184"/>
<path d="M1043.85 1133.97L1043.84 1133.94L1043.88 1133.98L1043.85 1133.97Z" fill="#FF3184"/>
<path d="M1024.88 1128.74C1031.97 1129.69 1038.62 1131.52 1043.85 1133.97C1045.8 1138.01 1040.68 1138.33 1034.29 1137.02C1031.33 1136.39 1028.11 1135.52 1025.17 1134.73C1021.75 1133.81 1018.71 1132.99 1016.9 1132.77L1003.61 1126.84C1009.88 1127.05 1016.78 1127.83 1023.48 1128.59L1024.88 1128.74Z" fill="#FF3184"/>
<path d="M857.486 1051.84C841.41 1043.72 850.994 1044.82 859.719 1045.82C868.457 1046.82 876.333 1047.73 856.718 1039.17L879.925 1047.33L883.403 1062.12L857.486 1051.84Z" fill="#FF3184"/>
<path d="M808.399 1022.4L808.546 1022.41V1022.44L808.399 1022.4Z" fill="#FF3184"/>
<path d="M808.399 1022.4C802.887 1022.14 797.508 1021.37 791.122 1019.99C784.789 1018.38 777.468 1016.44 768.28 1013.15L779.738 1011.06C781.641 1011.02 783.508 1011.39 785.448 1012.12C787.348 1012.87 789.317 1013.91 791.495 1015.05L791.634 1015.12C793.867 1016.29 796.356 1017.58 799.138 1018.82C801.846 1020.12 804.875 1021.35 808.399 1022.4Z" fill="#FF3184"/>
<path d="M843.906 1064.72C833.225 1062.53 831.13 1059.76 828.638 1056.47C827.184 1054.55 825.596 1052.46 822.09 1050.19C825.787 1049.57 835.56 1054.44 842.076 1058.94C848.628 1063.44 852.105 1067.43 843.906 1064.72Z" fill="#FF3184"/>
<path d="M688.153 1099.57C683.138 1100.3 678.782 1101.66 675.378 1104L675.341 1104.07C682.808 1104.69 689.104 1104.77 694.778 1104.69C700.415 1104.88 705.43 1104.69 710.372 1104.37C715.35 1103.89 720.145 1103.78 725.416 1103.71C728.052 1103.67 730.797 1103.63 733.726 1103.63C735.19 1103.67 736.691 1103.67 738.265 1103.67C739.692 1103.74 741.151 1103.9 742.67 1104.07L743.023 1104.11L738.118 1103.52L733.177 1103.05C729.882 1102.68 726.624 1102.21 723.403 1101.73C717.334 1100.58 711.265 1100.06 705.545 1099.57L704.698 1099.5C698.731 1098.98 693.167 1098.69 688.153 1099.57Z" fill="#FF3184"/>
<path d="M2006.22 1014.21C2021.01 1018.09 2038.51 1015.53 2048.94 1013.37C2048.05 1012.91 2047.16 1012.45 2046.27 1011.98C2044.63 1011.13 2042.98 1010.27 2041.32 1009.49L2006.22 1014.17V1014.21Z" fill="#FF3184"/>
<path d="M1805.47 1027.24C1792.46 1026.58 1786.16 1026.26 1794.94 1018.56V1018.6C1821 1014.17 1853.98 1011.02 1887.11 1009.56C1903.65 1008.86 1920.2 1008.57 1935.65 1008.97C1940.58 1009.09 1945.38 1009.22 1950.02 1009.35L1950.04 1009.35C1952.63 1009.42 1955.16 1009.49 1957.65 1009.56C1962.94 1009.78 1967.96 1010.17 1972.67 1010.54L1972.67 1010.54C1972.7 1010.55 1972.73 1010.55 1972.75 1010.55C1974.2 1010.66 1975.62 1010.77 1977.01 1010.88C1974.56 1011.56 1972.11 1012.22 1969.67 1012.87C1969.67 1012.88 1969.67 1012.88 1969.66 1012.88L1969.66 1012.88C1964.11 1014.37 1958.58 1015.86 1953.07 1017.61C1943.22 1017.83 1933.23 1018.64 1923.24 1019.74C1916.03 1020.53 1908.89 1021.66 1901.75 1022.79L1901.74 1022.8C1898.97 1023.23 1896.21 1023.67 1893.44 1024.09C1873.78 1027.31 1854.27 1030.5 1835.28 1030.68C1824.1 1028.19 1813.5 1027.65 1805.47 1027.24H1805.47Z" fill="#FF3184"/>
<path fill-rule="evenodd" clip-rule="evenodd" d="M2534.1 259.023C2530.87 260.541 2520.73 257.66 2511.58 255.064C2506.4 253.592 2501.54 252.212 2498.44 251.775C2496.67 250.213 2495 248.719 2493.38 247.277C2487.33 241.893 2482.11 237.251 2476.08 232.631C2472.24 229.739 2468.06 226.884 2463.05 224.028C2458 221.32 2452.1 218.611 2444.96 215.792C2440.35 215.207 2434.83 213.926 2428.71 212.242C2427.64 211.947 2426.55 211.649 2425.45 211.347L2424.84 211.182L2424.84 211.181C2419.79 209.802 2414.38 208.325 2408.84 206.641C2401.88 204.518 2394.63 202.285 2387.53 200.089C2380.39 198.076 2373.37 196.099 2366.81 194.415C2360.26 192.731 2354.26 191.267 2349.06 190.352C2343.83 189.547 2339.51 189.217 2336.39 189.51C2330.21 190.132 2329.04 193.39 2335.63 200.858C2322.08 198.625 2311.36 195.843 2302.46 193.463C2293.6 191.011 2286.72 188.339 2281.16 185.52C2270.38 179.936 2264.37 174.318 2258.4 168.732L2257.88 168.243C2251.69 162.606 2245.36 157.005 2233.32 153.015C2227.28 151.112 2219.81 149.538 2210.29 148.476C2200.77 147.268 2189.13 147.048 2174.82 147.561C2169.77 148.696 2163.73 148.989 2157.03 148.842C2150.33 148.879 2143.01 148.366 2135.51 147.598C2125.02 146.392 2114.13 145.007 2104.11 143.731C2099.83 143.187 2095.7 142.662 2091.84 142.18C2078.92 140.423 2068.81 139.874 2065.3 141.192C2061.79 142.51 2064.86 145.95 2077.96 153.015C2071.59 156.255 2068.3 156.997 2055.49 159.884L2055.27 159.933C2048.46 158.286 2042.86 156.419 2038.72 154.626C2034.55 152.905 2031.84 151.148 2030.82 149.464C2028.73 146.207 2033.42 142.876 2046.78 141.741C2046.45 137.971 2026.06 137.568 2012.52 137.385C2001.06 140.167 1991.54 144.889 1982.61 149.757C1979.3 151.601 1976.07 153.444 1972.85 155.283C1967.36 158.412 1961.89 161.53 1956.11 164.619L1927.15 170.329C1916.61 167.767 1914.56 165.497 1917.12 163.118C1919.69 160.739 1926.71 158.506 1934.07 156.383C1934.75 156.183 1935.43 155.984 1936.12 155.784C1950.22 151.666 1964.33 147.547 1948.9 142.729C1916.57 142.693 1910.75 148.257 1905.48 153.564L1905.12 153.927C1899.95 159.152 1894.79 164.362 1864.63 165.9C1859.49 166.318 1853.74 166.84 1847.59 167.398L1847.59 167.398C1825.23 169.427 1797.67 171.926 1775.79 171.61C1747.83 171.171 1730.04 166.449 1745.89 154.699C1735.42 155.724 1725.17 155.614 1714.88 154.26C1709.76 153.637 1704.63 152.942 1699.51 152.027C1696.26 151.35 1692.99 150.688 1689.69 150.022C1687.82 149.643 1685.94 149.263 1684.06 148.879L1676.26 147.341C1675.13 147.087 1673.99 146.825 1672.85 146.562C1671.37 146.221 1669.88 145.879 1668.39 145.548C1663.09 144.413 1657.74 143.388 1652.25 142.546C1646.8 141.448 1641.2 140.533 1635.41 139.874C1633.55 139.639 1631.68 139.479 1629.78 139.317C1628.73 139.227 1627.66 139.137 1626.59 139.032C1623.59 138.703 1620.55 138.41 1617.44 138.227C1612.97 139.536 1610.78 141.917 1608.52 144.383C1607.11 145.916 1605.67 147.481 1603.64 148.842C1602.32 149.721 1600.71 150.526 1598.7 151.112C1596.68 151.624 1594.23 151.954 1591.19 152.027C1588.16 152.1 1584.49 151.88 1580.1 151.331C1577.91 151.038 1575.49 150.672 1572.89 150.197C1570.83 149.761 1568.65 149.14 1566.34 148.482C1565.74 148.311 1565.13 148.137 1564.51 147.964C1556.61 140.467 1551.29 134.65 1546.76 129.7L1546.75 129.698C1541.68 124.159 1537.61 119.706 1532.04 115.202C1526.84 110.846 1520.8 105.868 1512.53 99.6452C1511.79 99.0953 1511.03 98.5308 1510.25 97.9531C1502.35 92.0714 1492.62 84.8349 1479.22 77.902L1456.12 77.0234C1452.61 82.9168 1449.75 88.8467 1447.48 94.7035C1440.02 90.6404 1427.24 91.519 1413.37 97.1927C1400.88 102.173 1387.73 110.672 1375.34 118.674L1375.31 118.692C1373.87 119.624 1372.44 120.549 1371.02 121.462C1367.42 125.582 1371.91 124.252 1376.41 122.918C1377.26 122.664 1378.12 122.41 1378.92 122.194C1381.41 121.571 1383.42 121.279 1383.24 122.304C1383.1 123.365 1380.83 125.598 1374.68 130.686C1372.92 130.585 1371.83 129.689 1370.74 128.791C1369.08 127.424 1367.41 126.051 1363.37 127.465C1357.91 132.443 1355.09 136.433 1353.04 140.167C1352.23 141.64 1351.55 143.06 1350.86 144.479C1349.84 146.586 1348.83 148.691 1347.41 150.965C1346.23 152.869 1344.77 154.845 1342.79 157.042C1340.74 159.274 1338.14 161.69 1334.81 164.436C1331.41 167.181 1327.05 170.256 1321.6 173.733C1315.85 177.138 1309.01 181.054 1300.7 185.191C1299.03 185.429 1297.38 185.669 1295.72 185.909C1288.74 186.923 1281.86 187.921 1274.96 188.632C1218.74 215.646 1156.66 234.351 1092.93 238.707C1061.16 240.903 1029.05 239.439 998.013 233.875C996.236 233.54 994.459 233.212 992.686 232.885C990.587 232.498 988.492 232.112 986.409 231.715C982.566 230.837 978.76 229.886 974.954 228.934L974.952 228.933C974.167 228.73 973.385 228.526 972.603 228.323C969.591 227.539 966.598 226.761 963.604 226.005C959.908 224.907 956.248 223.736 952.589 222.565L952.586 222.564C938.09 217.769 924.217 212.315 911.259 206.238C900.131 206.934 881.17 201.077 861.733 194.159C859.389 193.328 857.036 192.487 854.683 191.646C837.451 185.49 820.221 179.334 806.533 176.918L807.704 171.647C797.711 172.818 786.803 168.243 775.821 163.411L774.721 162.903L774.715 162.901L774.709 162.898C772.306 161.789 769.927 160.692 767.548 159.677C766.714 159.321 765.88 158.948 765.045 158.575L765.043 158.574C763.13 157.719 761.212 156.862 759.276 156.2C753.749 154.223 748.294 152.539 743.17 151.661C740.315 150.05 737.386 148.732 734.421 147.451L725.453 143.461C723.952 141.009 726.624 140.057 731.273 139.728C733.616 139.581 736.434 139.581 739.473 139.654C741.443 139.654 743.474 139.885 745.518 140.117C746.625 140.243 747.737 140.369 748.843 140.46C755.14 141.045 761.216 141.448 764.876 140.643C768.5 140.02 769.782 138.08 766.267 133.798C746.391 125.305 727.796 125.012 710.482 126.403C706.126 126.733 701.88 127.026 697.633 127.209C695.972 127.28 694.31 127.402 692.649 127.524C690.064 127.714 687.479 127.904 684.895 127.904C680.649 127.977 676.366 127.794 672.047 127.282C667.691 126.989 663.225 126.403 658.613 125.305C654.147 125.122 650.303 124.976 646.936 125.122C643.568 125.342 640.713 125.598 638.224 125.927C633.245 126.586 629.768 127.502 626.766 128.526C624.65 129.258 622.754 130.101 620.722 131.005C616.955 132.681 612.722 134.564 605.755 136.323C603.252 139.433 605.425 140.49 607.888 141.687C610.178 142.801 612.719 144.036 611.978 147.158C608.808 147.63 605.754 148.118 602.807 148.589C596.837 149.542 591.306 150.426 586.135 150.965C584.049 151.153 582.021 151.352 580.046 151.545C574.711 152.067 569.763 152.552 565.087 152.686C552.275 152.978 541.624 152.795 531.081 152.063C530.442 152.042 529.803 152.02 529.164 151.999C508.87 151.31 488.461 150.618 455.529 163.997C455.259 165.289 451.561 168.484 447.25 172.209L447.248 172.21C443.382 175.551 439.023 179.317 436.202 182.519C430.235 189.437 431.077 193.756 457.103 187.241C461.629 184.231 466.213 181.38 470.818 178.515C473.55 176.816 476.29 175.112 479.029 173.367C482.995 173.296 486.976 173.427 490.932 173.557L490.935 173.557L490.944 173.557L490.961 173.558L490.963 173.558C493.058 173.627 495.147 173.696 497.222 173.733C495.645 174.276 493.942 174.827 492.156 175.405L492.148 175.408L492.145 175.408C488.753 176.506 485.062 177.7 481.372 179.114C475.698 181.201 469.915 183.434 464.9 185.557C454.907 189.949 448.025 194.269 451.063 196.355C435.323 191.304 405.82 209.02 385.614 222.271C384.637 222.904 383.681 223.524 382.747 224.13C373.951 229.841 367.159 234.25 364.346 234.68C361.235 235.156 362.882 230.544 372.216 217.696C380.526 215.243 387.261 213.01 392.971 210.96C398.682 208.947 403.367 207.007 407.54 204.774C415.886 200.272 422.328 195.367 430.894 187.241C395.168 200.748 361.125 214.145 328.51 227.689C295.968 241.233 265.001 254.96 235.717 269.821L222.649 286.696C217.341 279.412 186.154 288.856 156.614 300.459C152.9 302.991 148.656 305.402 144.821 307.581C136.903 312.079 130.73 315.585 134.578 317.114C133.736 318.981 139.995 317.041 149.11 313.637C156.801 310.617 166.637 306.722 175.893 303.058L180.7 301.155C201.784 293.029 217.854 288.746 195.891 308.476C161.958 323.337 125.829 337.211 91.6769 347.131C57.5612 357.124 25.4953 363.017 0.713867 364.262V1313.12C8.87675 1309.83 16.4906 1307.01 23.8482 1304.3C31.1691 1301.45 38.124 1298.52 45.0789 1295.41C58.8789 1288.93 72.3861 1281.06 86.7352 1268.35C131.569 1243.85 177.679 1219.25 223.782 1194.64L223.8 1194.63L223.802 1194.63C233.476 1189.47 243.15 1184.31 252.811 1179.15C257.629 1176.58 262.442 1174.02 267.248 1171.45C318.056 1144.37 368.144 1117.68 416.032 1091.22C418.757 1092.96 425.698 1092.33 432.307 1091.74C441.323 1090.93 449.72 1090.18 445.939 1095.54C450.67 1095.69 457.761 1093.45 465.26 1091.09L465.261 1091.09C467.102 1090.51 468.968 1089.92 470.83 1089.36C480.31 1086.72 489.718 1084.82 494.842 1087.75C515.634 1079.14 537.963 1071.46 561.134 1066.15C570.069 1063.8 579.18 1062.17 588.331 1060.53L588.333 1060.53L588.347 1060.53C591 1060.05 593.655 1059.58 596.311 1059.09L614.138 1056.82C615.25 1056.69 616.361 1056.55 617.473 1056.41C619.326 1056.18 621.18 1055.95 623.033 1055.79L631.928 1055.21C655.648 1053.23 679.184 1054.03 701.55 1055.94C704.846 1056.31 708.129 1056.69 711.392 1057.07L711.413 1057.07L711.419 1057.07L711.551 1057.08C713.742 1057.34 715.925 1057.59 718.095 1057.84C720.841 1058.1 723.513 1058.54 726.185 1059.05L727.395 1059.26C729.654 1059.67 731.891 1060.07 734.128 1060.44C736.76 1060.91 739.356 1061.35 741.951 1061.79L741.953 1061.79L741.957 1061.79L741.962 1061.79C744.561 1062.2 747.123 1062.67 749.612 1063.37C754.627 1064.58 759.605 1065.75 764.437 1066.88C759.898 1061.83 760.63 1059.34 764.876 1058.43C767 1057.99 770.001 1057.88 773.552 1058.17C777.102 1058.57 781.239 1059.27 785.741 1060.11C793.803 1061.74 802.819 1064.28 811.386 1066.7L811.388 1066.7C821.881 1069.67 831.7 1072.44 838.269 1073.1C853.84 1085.54 882.898 1096.28 907.209 1105.28C910.674 1106.56 914.043 1107.8 917.262 1109.01C918.645 1108.52 921.717 1108.86 924.937 1109.22C930.497 1109.85 936.499 1110.52 935.016 1107C921.682 1103.47 914.84 1099.55 905.977 1094.47L905.975 1094.47L905.973 1094.47L905.972 1094.46C901.794 1092.07 897.167 1089.42 891.2 1086.43C898.631 1081.88 911.862 1089.17 927.542 1097.82C937.966 1103.57 949.472 1109.91 961.078 1113.77C955.368 1114.21 949.621 1114.58 943.837 1114.76C951.713 1117.63 959.796 1120.84 968.065 1124.13L968.068 1124.13C985.089 1130.88 1002.9 1137.96 1021.33 1143.06C1048.53 1150.67 1076.86 1153.71 1100.21 1147.05L1080.12 1141.96C1075.72 1140.72 1071.37 1139.34 1067.07 1137.97L1067.06 1137.96L1067.05 1137.96L1067.05 1137.96C1064.88 1137.27 1062.72 1136.58 1060.57 1135.92C1068.79 1135.6 1077.27 1135.43 1085.9 1135.26L1085.9 1135.26C1107.23 1134.83 1129.46 1134.38 1150.8 1131.67C1180.67 1128.05 1208.42 1119.81 1225.48 1105.83C1219 1107.55 1211.87 1109.75 1204.46 1112.03C1190.98 1116.19 1176.6 1120.62 1163.72 1122.96C1159.2 1124.04 1154.79 1124.53 1150.81 1124.97C1150.47 1125.01 1150.14 1125.05 1149.81 1125.08C1145.57 1125.49 1141.76 1125.74 1138.54 1125.56C1132.1 1124.97 1128.22 1123.11 1128.03 1119.34C1128.33 1117.29 1131.14 1115.46 1135.54 1113.88C1139.93 1112.27 1145.79 1110.48 1152.3 1109.16C1154.61 1108.71 1156.98 1108.19 1159.37 1107.66C1163.72 1106.71 1168.16 1105.74 1172.51 1105.1C1174.49 1104.76 1176.44 1104.41 1178.32 1104.07L1178.33 1104.07C1182.81 1103.26 1186.96 1102.5 1190.52 1102.17C1212.33 1099.57 1232.14 1092.8 1249.71 1083.76C1253.1 1082.03 1256.36 1080.09 1259.59 1078.17L1259.59 1078.16C1260.55 1077.6 1261.5 1077.03 1262.45 1076.47C1262.96 1076.16 1263.48 1075.84 1264 1075.53L1264.9 1074.98L1265.54 1074.59L1265.6 1074.55C1266.62 1073.93 1267.63 1073.31 1268.63 1072.7C1270.61 1071.31 1272.55 1069.96 1274.53 1068.6C1275.62 1067.82 1276.7 1067.05 1277.79 1066.28L1277.79 1066.28C1280.56 1064.32 1283.31 1062.37 1286.02 1060.29C1287.31 1059.28 1288.6 1058.27 1289.89 1057.27L1289.9 1057.26L1289.91 1057.25L1289.92 1057.24L1289.93 1057.24C1292.38 1055.33 1294.83 1053.42 1297.29 1051.43C1298.62 1050.38 1299.95 1049.31 1301.28 1048.25C1314.96 1037.32 1328.86 1026.21 1344.77 1016.73C1362.16 1006.48 1382.36 997.992 1405.28 996.271L1405.46 996.198C1403.98 1004.27 1416.71 1009.27 1432.14 1015.34C1439.94 1018.41 1448.43 1021.74 1456.12 1025.88L1479.22 1026.76C1486.94 1027.06 1488.41 1025.34 1486.69 1022.08C1485 1018.89 1480.06 1014.65 1475.49 1011.24C1474.85 1010.75 1474.23 1010.27 1473.62 1009.8L1473.62 1009.8C1472.09 1008.63 1470.69 1007.55 1469.67 1006.56C1468.24 1005.31 1467.51 1004.14 1468.24 1003.23C1468.97 1002.27 1471.09 1001.58 1475.27 1001.58C1478.11 1001.6 1481.94 1001.94 1486.78 1002.92C1482.08 1001.71 1478.05 1000.55 1474.53 999.383C1473.33 998.96 1472.2 998.577 1471.11 998.211L1471.1 998.207C1469.84 997.781 1468.65 997.379 1467.51 996.967C1465.42 996.198 1463.52 995.356 1461.8 994.514C1458.35 992.721 1455.46 991.659 1452.72 990.744C1449.97 989.939 1447.34 989.426 1444.52 990.268C1444.59 988.291 1447.23 986.827 1451.84 985.766C1454.14 985.253 1456.93 984.704 1460.07 984.485C1463.19 984.411 1466.74 984.485 1470.51 984.668C1478.12 984.997 1486.61 986.864 1494.63 989.28C1502.68 991.732 1510.3 994.807 1516.96 997.699C1519.24 998.701 1521.42 999.668 1523.49 1000.58L1523.49 1000.58C1533.49 1005.02 1540.74 1008.24 1543.9 1008.24C1545.77 1008.28 1546.17 1007.22 1544.56 1004.73C1542.88 1002.2 1539.36 998.211 1532.33 991.952C1524.21 984.594 1513.34 977.969 1499.72 973.137C1492.95 970.721 1485.59 968.781 1477.86 967.61C1474.02 967.17 1470.18 966.841 1466.41 966.548C1465.48 966.493 1464.53 966.429 1463.59 966.365L1463.59 966.365C1462.65 966.301 1461.7 966.237 1460.77 966.182C1459.84 966.2 1458.9 966.228 1457.97 966.255H1457.97C1457.04 966.283 1456.1 966.31 1455.17 966.329C1454.47 966.356 1453.77 966.383 1453.07 966.409L1453.02 966.411C1450.04 966.523 1447.09 966.635 1444.23 966.841C1443.46 966.944 1442.7 967.048 1441.94 967.151L1441.71 967.183C1439.06 967.543 1436.45 967.898 1433.87 968.232C1433.21 968.334 1432.54 968.425 1431.87 968.516C1430.86 968.652 1429.85 968.788 1428.89 968.964L1424.17 969.952C1423.47 970.091 1422.78 970.23 1422.09 970.369L1420.43 970.704C1418.61 971.071 1416.82 971.434 1415.05 971.783C1409.38 973.21 1403.92 974.418 1398.94 975.333C1394.11 976.395 1389.5 977.017 1385.18 977.127C1381.67 976.395 1380.06 975.077 1380.2 973.32C1380.35 971.563 1382.11 969.294 1385.62 966.878C1387.34 965.633 1389.46 964.352 1391.88 962.997C1393.09 962.339 1394.41 961.643 1395.76 960.948C1396.61 960.606 1397.49 960.24 1398.39 959.864L1398.4 959.862L1398.45 959.839C1399.08 959.578 1399.72 959.311 1400.37 959.044C1403.59 957.763 1407.11 956.445 1410.88 955.164C1414.83 954.066 1419.04 953.004 1423.47 952.016C1426.84 951.131 1430.61 950.691 1434.43 950.246L1434.43 950.245C1435.51 950.12 1436.59 949.993 1437.67 949.856C1438.27 949.795 1438.87 949.729 1439.47 949.662L1439.49 949.66C1441.38 949.453 1443.27 949.244 1445.21 949.161C1447.81 949.124 1450.41 949.088 1453.05 949.088C1453.92 949.1 1454.8 949.116 1455.68 949.132C1457.45 949.165 1459.23 949.198 1460.99 949.198C1462.76 949.246 1464.52 949.456 1466.29 949.667C1467.18 949.773 1468.07 949.88 1468.97 949.966C1470.13 950.118 1471.29 950.259 1472.44 950.4C1476.59 950.906 1480.71 951.409 1484.75 952.382C1505.61 956.958 1521.17 964.572 1531.31 969.623C1531.7 969.83 1532.1 970.043 1532.51 970.262L1533 970.52C1537.37 972.842 1542.8 975.725 1548 978.664C1553.97 981.959 1559.64 985.253 1564.18 988.072C1573.11 993.306 1579.66 998.138 1575.82 1001.4C1577.5 1001.62 1579.12 1001.92 1580.73 1002.22L1580.73 1002.22C1581.44 1002.35 1582.14 1002.48 1582.85 1002.6C1585.23 1002.9 1587.57 1003.23 1589.84 1003.63C1594.1 1004.32 1598.17 1005.33 1602.19 1006.32L1602.98 1006.52C1607.37 1007.4 1611.62 1008.42 1615.76 1009.67C1616.26 1009.83 1616.76 1009.99 1617.26 1010.14C1618.83 1010.64 1620.39 1011.14 1621.94 1011.61C1624.03 1012.16 1626.11 1012.74 1628.2 1013.37C1632.34 1014.61 1636.44 1016.04 1640.46 1017.54L1641.26 1017.79C1645.13 1019.03 1649.03 1020.27 1652.87 1021.64C1657.92 1023.54 1663.1 1025.22 1668.3 1026.91L1668.31 1026.91C1671.52 1027.95 1674.74 1028.99 1677.95 1030.09C1711.81 1041 1748.7 1048.43 1788.82 1037.6C1799.63 1038.29 1807.1 1040.4 1814.46 1042.49C1825.87 1045.72 1837 1048.87 1859.84 1046.49C1852.99 1039.46 1871.55 1036.57 1895.42 1034.71C1904.08 1034 1913.45 1033.57 1922.54 1033.15L1922.55 1033.15C1938.59 1032.41 1953.71 1031.71 1962.4 1029.65C1994.25 1029.11 2028.77 1028.81 2061.05 1030.9C2062.13 1030.96 2063.2 1031.03 2064.27 1031.09C2071.22 1031.5 2078.08 1031.9 2084.77 1032.44C2092.46 1033.21 2099.96 1034.01 2107.18 1034.85C2109.18 1035.11 2111.16 1035.34 2113.12 1035.58C2118.21 1036.19 2123.15 1036.78 2127.86 1037.6C2134.37 1038.73 2140.56 1039.87 2146.27 1041.04C2152.42 1041.48 2159.45 1041.66 2166.07 1041.66C2172.66 1041.81 2178.88 1041.7 2183.5 1041.26C2192.68 1040.42 2195.32 1038.33 2181.19 1034.56C2190.01 1035.77 2198.39 1038.07 2206.48 1040.64C2210.27 1041.95 2213.99 1043.33 2217.66 1044.69C2221.78 1046.23 2225.84 1047.74 2229.87 1049.09C2245.14 1054.11 2259.71 1057.88 2275.81 1053.37C2258.95 1048.78 2249.55 1045.44 2242.14 1042.81C2241.17 1042.46 2240.23 1042.13 2239.32 1041.81C2237.71 1041.22 2236.17 1040.64 2234.64 1040.06C2228.68 1037.8 2222.78 1035.58 2212.96 1032.84C2227.09 1031.7 2242.03 1031.89 2257.07 1033.72C2264.58 1034.67 2272.15 1035.88 2279.69 1037.27L2291 1039.5C2294.52 1040.29 2297.97 1041.17 2301.45 1042.05L2302.21 1042.25C2317.07 1046.13 2331.75 1050.04 2345.51 1054.58C2359.38 1058.87 2372.56 1062.93 2384.57 1066.63L2384.46 1066.52C2384.57 1065.89 2386.91 1066.04 2389.62 1066.3C2411.29 1079 2430.87 1092.58 2448.33 1105.43C2465.61 1118.82 2480.87 1131.34 2493.21 1144.01C2499.43 1150.23 2505.03 1156.23 2509.94 1161.98C2514.81 1167.87 2518.94 1173.62 2522.38 1179C2529.27 1189.8 2533.29 1199.5 2534.1 1207.88V259.023ZM1758.84 186.326L1751.3 184.861V184.898C1747.31 183.178 1749.03 182.299 1752.04 181.421C1752.78 181.192 1753.62 180.969 1754.47 180.74L1754.48 180.736C1757.04 180.049 1759.78 179.315 1760.93 178.273C1753.61 177.724 1746.47 178.309 1741.2 179.48C1735.93 180.652 1732.6 182.482 1732.89 184.276C1740.14 184.093 1751.34 184.971 1758.84 186.326ZM688.153 150.709C683.138 151.441 678.782 152.795 675.378 155.138L675.341 155.211C682.808 155.834 689.104 155.907 694.778 155.834C700.415 156.017 705.43 155.834 710.372 155.504C715.35 155.028 720.145 154.919 725.416 154.845C728.052 154.809 730.797 154.772 733.726 154.772C735.19 154.809 736.691 154.809 738.265 154.809C739.692 154.877 741.151 155.039 742.67 155.209L743.023 155.248L738.118 154.662L733.177 154.186C729.882 153.82 726.624 153.344 723.403 152.869C717.334 151.718 711.265 151.198 705.545 150.708L704.698 150.636C698.731 150.123 693.167 149.83 688.153 150.709ZM1754.52 1034.01C1749.62 1034.71 1743.95 1034.85 1738.2 1034.78C1732.45 1034.63 1726.63 1034.38 1721.73 1033.46C1711.84 1031.78 1705.18 1029.03 1708.04 1025.52L1704.41 1021.02C1708.4 1021.24 1715.54 1021.64 1723.48 1022.11C1725.63 1022.23 1727.86 1022.34 1730.11 1022.44H1730.11L1730.11 1022.44C1736.2 1022.73 1742.45 1023.03 1747.83 1023.62C1762.76 1024.82 1771.66 1027.53 1754.52 1034.05V1034.01ZM1279.06 1038.04L1279.17 1037.96H1279.28L1279.06 1038.04C1276.6 1039.71 1274.34 1041.2 1272.25 1042.58C1268.13 1045.3 1264.68 1047.57 1261.68 1049.9C1260.5 1050.82 1259.38 1051.69 1258.31 1052.51L1258.3 1052.52C1255.34 1054.81 1252.82 1056.75 1250.77 1058.72C1247.95 1061.32 1245.9 1063.7 1244.25 1065.97C1242.57 1068.16 1241.18 1070.14 1239.82 1072.19L1239.47 1072.7L1239.47 1072.71L1239.47 1072.71L1239.46 1072.71C1236.84 1076.54 1234.14 1080.47 1228.29 1084.67C1225.22 1086.79 1221.27 1089.03 1216.14 1091.48C1211.23 1093.87 1204.94 1095.85 1197.27 1098.26L1197.27 1098.26L1196.26 1098.58C1199.08 1093.38 1192.13 1091.92 1181.92 1091.74C1179.35 1091.74 1176.61 1091.85 1173.75 1092.07C1172.64 1092.14 1171.49 1092.19 1170.33 1092.25C1168.53 1092.33 1166.69 1092.42 1164.86 1092.58C1160.86 1092.9 1156.85 1093.41 1153 1093.9L1153 1093.9L1152.98 1093.9C1151.06 1094.14 1149.18 1094.38 1147.36 1094.59C1128.85 1102.46 1105.27 1102.38 1087.18 1102.33H1087.17C1086.59 1102.32 1086.01 1102.32 1085.44 1102.32C1084.53 1102.32 1083.63 1102.32 1082.75 1102.32C1076.38 1101.69 1073.71 1098.47 1075.69 1095.95C1077.67 1093.46 1084.14 1090.68 1096.19 1090.31C1111.23 1093.46 1127.63 1093.57 1143.92 1090.6C1151.8 1089.48 1159.58 1087.3 1167.39 1085.12L1168.34 1084.85C1171.13 1084.1 1173.88 1083.12 1176.62 1082.14L1176.63 1082.13L1176.64 1082.13C1177.87 1081.69 1179.11 1081.25 1180.34 1080.83C1181.23 1080.51 1182.12 1080.19 1183.01 1079.88L1183.02 1079.88L1183.02 1079.87C1186.1 1078.79 1189.19 1077.7 1192.17 1076.36C1194.1 1075.56 1196.03 1074.75 1197.96 1073.95L1198.03 1073.92C1199.94 1073.12 1201.85 1072.33 1203.77 1071.53C1205.99 1070.58 1208.17 1069.54 1210.33 1068.51L1210.33 1068.5L1210.34 1068.5C1211.91 1067.75 1213.47 1067 1215.04 1066.3C1218.97 1064.63 1222.76 1062.75 1226.51 1060.9L1226.51 1060.89L1226.51 1060.89C1230 1059.17 1233.46 1057.45 1236.97 1055.94C1238.49 1055.22 1239.99 1054.48 1241.47 1053.73L1241.48 1053.73C1243.5 1052.72 1245.5 1051.72 1247.55 1050.81C1249.17 1050.05 1250.81 1049.34 1252.44 1048.64L1252.45 1048.64C1254.34 1047.82 1256.22 1047.01 1258.05 1046.13C1264.43 1043.17 1270.87 1040.91 1277.67 1038.53L1279.06 1038.04ZM1074.97 1115.71L1074.99 1115.71V1115.75L1074.97 1115.71C1063.77 1116.04 1044.97 1114.39 1029.57 1109.6C1021.81 1107.55 1014.92 1104.51 1010.02 1101.66C1005.11 1098.84 1002.26 1095.91 1002.48 1093.16C1001.5 1092.64 1001.57 1091.84 1001.64 1090.97C1001.68 1090.55 1001.72 1090.11 1001.64 1089.68C998.639 1088.6 996.038 1087.54 993.95 1086.65C1000 1087.11 1001.39 1088.35 1001.64 1089.68C1004.89 1090.85 1008.61 1092.06 1012.65 1093.13C1014.37 1093.6 1016.12 1094.12 1017.9 1094.66C1020.15 1095.34 1022.46 1096.03 1024.81 1096.64C1029.05 1097.67 1033.37 1098.8 1037.62 1099.97C1039.84 1100.66 1042.06 1101.21 1044.24 1101.75C1046.22 1102.25 1048.17 1102.73 1050.06 1103.3C1053.77 1104.32 1057.22 1105.56 1060.39 1106.7L1061.12 1106.96C1067.8 1109.3 1072.91 1112.14 1074.97 1115.71ZM1043.85 1133.97L1043.84 1133.94L1043.88 1133.98L1043.85 1133.97C1045.8 1138.01 1040.68 1138.33 1034.29 1137.02C1031.33 1136.39 1028.11 1135.52 1025.17 1134.73C1021.75 1133.81 1018.71 1132.99 1016.9 1132.77L1003.61 1126.84C1009.88 1127.05 1016.78 1127.83 1023.48 1128.59L1024.88 1128.74C1031.97 1129.69 1038.62 1131.52 1043.85 1133.97ZM857.486 1051.84C841.41 1043.72 850.994 1044.82 859.719 1045.82C868.457 1046.82 876.333 1047.73 856.718 1039.17L879.925 1047.33L883.403 1062.12L857.486 1051.84ZM808.399 1022.4L808.546 1022.41V1022.44L808.399 1022.4C802.887 1022.14 797.508 1021.37 791.122 1019.99C784.789 1018.38 777.468 1016.44 768.28 1013.15L779.738 1011.06C781.641 1011.02 783.508 1011.39 785.448 1012.12C787.348 1012.87 789.317 1013.91 791.495 1015.05L791.634 1015.12C793.867 1016.29 796.356 1017.58 799.138 1018.82C801.846 1020.12 804.875 1021.35 808.399 1022.4ZM843.906 1064.72C833.225 1062.53 831.13 1059.76 828.638 1056.47C827.184 1054.55 825.596 1052.46 822.09 1050.19C825.787 1049.57 835.56 1054.44 842.076 1058.94C848.628 1063.44 852.105 1067.43 843.906 1064.72ZM2006.22 1014.21C2021.01 1018.09 2038.51 1015.53 2048.94 1013.37C2048.05 1012.91 2047.16 1012.45 2046.27 1011.98C2044.63 1011.13 2042.98 1010.27 2041.32 1009.49L2006.22 1014.17V1014.21ZM1805.47 1027.24C1792.46 1026.58 1786.16 1026.26 1794.94 1018.56V1018.6C1821 1014.17 1853.98 1011.02 1887.11 1009.56C1903.65 1008.86 1920.2 1008.57 1935.65 1008.97C1940.58 1009.09 1945.38 1009.22 1950.02 1009.35L1950.04 1009.35C1952.63 1009.42 1955.16 1009.49 1957.65 1009.56C1962.94 1009.78 1967.96 1010.17 1972.67 1010.54L1972.67 1010.54L1972.75 1010.55C1974.2 1010.66 1975.62 1010.77 1977.01 1010.88C1974.56 1011.56 1972.11 1012.22 1969.67 1012.87L1969.66 1012.88L1969.66 1012.88C1964.11 1014.37 1958.58 1015.86 1953.07 1017.61C1943.22 1017.83 1933.23 1018.64 1923.24 1019.74C1916.03 1020.53 1908.89 1021.66 1901.75 1022.79L1901.74 1022.8C1898.97 1023.23 1896.21 1023.67 1893.44 1024.09C1873.78 1027.31 1854.27 1030.5 1835.28 1030.68C1824.1 1028.19 1813.5 1027.65 1805.47 1027.24H1805.47Z" fill="#FF3184"/>
</svg>
