<svg width="21" height="21" viewBox="0 0 21 21" fill="none" xmlns="http://www.w3.org/2000/svg">
<path d="M5.59779 19.0756C4.76445 19.0756 3.95612 18.7506 3.31445 18.1256C2.27279 17.1089 2.02279 15.6089 2.67279 14.3089L4.02279 11.6089C4.30612 11.0423 4.30612 10.3589 4.02279 9.78392L2.67279 7.07559C2.02279 5.77559 2.27279 4.27559 3.31445 3.25892C4.35612 2.24226 5.85612 2.01726 7.14779 2.70059L16.8061 7.78392C17.8895 8.35059 18.5645 9.46726 18.5645 10.6923C18.5645 11.9173 17.8895 13.0339 16.8061 13.6006L7.14779 18.6839C6.64779 18.9506 6.12279 19.0756 5.59779 19.0756ZM5.60612 3.55892C5.03112 3.55892 4.53112 3.82559 4.18945 4.15892C3.67279 4.65892 3.30612 5.55059 3.78945 6.52559L5.13945 9.22559C5.59779 10.1506 5.59779 11.2423 5.13945 12.1673L3.78945 14.8673C3.29779 15.8423 3.67279 16.7339 4.18945 17.2339C4.70612 17.7339 5.59779 18.0923 6.56445 17.5839L16.2228 12.5006C16.9061 12.1423 17.3145 11.4673 17.3145 10.7006C17.3145 9.93392 16.9061 9.25892 16.2228 8.90059L6.56445 3.80059C6.23112 3.62559 5.90612 3.55892 5.60612 3.55892Z" fill="white"/>
</svg>
