<svg width="20" height="20" viewBox="0 0 20 20" fill="none"  xmlns="http://www.w3.org/2000/svg">
<path d="M5.15834 18.3842C4.325 18.3842 3.51667 18.0592 2.875 17.4342C1.83334 16.4175 1.58334 14.9175 2.23334 13.6175L3.58334 10.9175C3.86667 10.3509 3.86667 9.66752 3.58334 9.09252L2.23334 6.38418C1.58334 5.08418 1.83334 3.58418 2.875 2.56752C3.91667 1.55085 5.41667 1.32585 6.70834 2.00918L16.3667 7.09252C17.45 7.65918 18.125 8.77585 18.125 10.0008C18.125 11.2259 17.45 12.3425 16.3667 12.9092L6.70834 17.9925C6.20834 18.2592 5.68334 18.3842 5.15834 18.3842ZM5.16667 2.86752C4.59167 2.86752 4.09167 3.13418 3.75 3.46752C3.23334 3.96752 2.86667 4.85918 3.35 5.83418L4.7 8.53418C5.15833 9.45918 5.15833 10.5508 4.7 11.4759L3.35 14.1758C2.85834 15.1509 3.23334 16.0425 3.75 16.5425C4.26667 17.0425 5.15833 17.4008 6.125 16.8925L15.7833 11.8092C16.4667 11.4509 16.875 10.7759 16.875 10.0092C16.875 9.24252 16.4667 8.56752 15.7833 8.20918L6.125 3.10918C5.79167 2.93418 5.46667 2.86752 5.16667 2.86752Z" fill="#FF3184"/>
</svg>
