<svg width="48" height="48" viewBox="0 0 48 48" fill="none" xmlns="http://www.w3.org/2000/svg">
<rect width="48" height="48" rx="24" fill="white"/>
<path d="M28 34.25H18C17.59 34.25 17.25 33.91 17.25 33.5C17.25 33.09 17.59 32.75 18 32.75H28C30.86 32.75 32.25 31.36 32.25 28.5V21.5C32.25 18.64 30.86 17.25 28 17.25H18C15.14 17.25 13.75 18.64 13.75 21.5C13.75 21.91 13.41 22.25 13 22.25C12.59 22.25 12.25 21.91 12.25 21.5C12.25 17.85 14.35 15.75 18 15.75H28C31.65 15.75 33.75 17.85 33.75 21.5V28.5C33.75 32.15 31.65 34.25 28 34.25Z" fill="#FF3184"/>
<path d="M22.9998 25.868C22.1598 25.868 21.3098 25.608 20.6598 25.078L17.5298 22.578C17.2098 22.318 17.1498 21.848 17.4098 21.528C17.6698 21.208 18.1398 21.148 18.4598 21.408L21.5898 23.908C22.3498 24.518 23.6398 24.518 24.3998 23.908L27.5298 21.408C27.8498 21.148 28.3298 21.198 28.5798 21.528C28.8398 21.848 28.7898 22.328 28.4598 22.578L25.3298 25.078C24.6898 25.608 23.8398 25.868 22.9998 25.868Z" fill="#FF3184"/>
<path d="M19 30.25H13C12.59 30.25 12.25 29.91 12.25 29.5C12.25 29.09 12.59 28.75 13 28.75H19C19.41 28.75 19.75 29.09 19.75 29.5C19.75 29.91 19.41 30.25 19 30.25Z" fill="#FF3184"/>
<path d="M16 26.25H13C12.59 26.25 12.25 25.91 12.25 25.5C12.25 25.09 12.59 24.75 13 24.75H16C16.41 24.75 16.75 25.09 16.75 25.5C16.75 25.91 16.41 26.25 16 26.25Z" fill="#FF3184"/>
</svg>
