<svg width="48" height="48" viewBox="0 0 48 48" fill="none" xmlns="http://www.w3.org/2000/svg">
<rect width="48" height="48" rx="24" fill="white"/>
<path d="M22.9999 27.1714C20.8699 27.1714 19.1299 25.4414 19.1299 23.3014C19.1299 21.1614 20.8699 19.4414 22.9999 19.4414C25.1299 19.4414 26.8699 21.1714 26.8699 23.3114C26.8699 25.4514 25.1299 27.1714 22.9999 27.1714ZM22.9999 20.9414C21.6999 20.9414 20.6299 22.0014 20.6299 23.3114C20.6299 24.6214 21.6899 25.6814 22.9999 25.6814C24.3099 25.6814 25.3699 24.6214 25.3699 23.3114C25.3699 22.0014 24.2999 20.9414 22.9999 20.9414Z" fill="#FF3184"/>
<path d="M22.9997 35.76C21.5197 35.76 20.0297 35.2 18.8697 34.09C15.9197 31.25 12.6597 26.72 13.8897 21.33C14.9997 16.44 19.2697 14.25 22.9997 14.25C22.9997 14.25 22.9997 14.25 23.0097 14.25C26.7397 14.25 31.0097 16.44 32.1197 21.34C33.3397 26.73 30.0797 31.25 27.1297 34.09C25.9697 35.2 24.4797 35.76 22.9997 35.76ZM22.9997 15.75C20.0897 15.75 16.3497 17.3 15.3597 21.66C14.2797 26.37 17.2397 30.43 19.9197 33C21.6497 34.67 24.3597 34.67 26.0897 33C28.7597 30.43 31.7197 26.37 30.6597 21.66C29.6597 17.3 25.9097 15.75 22.9997 15.75Z" fill="#FF3184"/>
</svg>
