<svg width="48" height="50" viewBox="0 0 48 50" fill="none" xmlns="http://www.w3.org/2000/svg">
<path d="M23.8728 24.8446C23.8728 24.8446 30.0031 10.2953 23.8728 2.2578C17.7425 -5.77972 7.40271 9.91385 23.8728 24.8446Z" fill="#FF3184"/>
<path d="M23.8729 24.844C23.8729 24.844 14.1734 12.379 4.16056 13.7958C-5.85228 15.2126 2.78465 31.9006 23.8729 24.844Z" fill="#FF3184"/>
<path d="M23.8731 24.8438C23.8731 24.8438 8.26119 27.2142 4.59663 36.6276C0.932069 46.0546 19.7181 46.6813 23.8731 24.8438Z" fill="#FF3184"/>
<path d="M23.8727 24.8438C23.8727 24.8438 18.3009 39.6246 24.7309 47.4169C31.161 55.2228 40.8877 39.1342 23.8727 24.8438Z" fill="#FF3184"/>
<path d="M23.873 24.8435C23.873 24.8435 34.0357 36.927 43.9941 35.1288C53.9388 33.3306 44.6752 16.9831 23.873 24.8435Z" fill="#FF3184"/>
<path d="M23.873 24.8427C23.873 24.8427 39.3759 21.8865 42.6863 12.3232C45.9966 2.75995 27.1834 2.85532 23.873 24.8427Z" fill="#FF3184"/>
<path d="M26.9105 23.4958C26.9105 25.3485 25.4119 26.847 23.5592 26.847C21.7065 26.847 20.208 25.3485 20.208 23.4958C20.208 21.643 21.7065 20.1445 23.5592 20.1445C25.4119 20.1445 26.9105 21.643 26.9105 23.4958Z" fill="white"/>
</svg>
