<svg width="88" height="72" viewBox="0 0 88 72" fill="none" xmlns="http://www.w3.org/2000/svg">
<g style="mix-blend-mode:multiply">
<path d="M1.63818 30.0522C1.53749 33.1065 2.37657 36.1944 3.92054 38.846C3.24925 39.5844 2.67865 40.4236 2.24232 41.3298C1.36964 43.0416 0.866202 45.089 0.799073 47.1364C0.631251 52.0033 2.81288 56.8365 6.40427 59.9244C7.4112 60.7971 8.48519 61.502 9.69351 62.039C12.4794 63.3145 15.7352 63.6165 18.8231 62.9452C19.7965 64.9591 21.139 66.738 22.7501 68.1142C23.757 68.9868 24.8646 69.7252 26.073 70.2622C31.846 72.9474 39.2637 71.2021 43.0229 66.3352C44.097 64.9255 44.8019 63.4151 45.2047 61.8711C49.9373 62.2739 54.7369 60.3607 57.5228 56.7358C58.7311 55.1583 59.5031 53.3794 59.8387 51.5669C64.3028 51.6676 68.6662 49.7544 71.2507 46.398C76.5203 39.5173 72.9624 31.6632 67.3907 27.2999C66.7194 26.7628 66.0145 26.2929 65.2761 25.8566C71.6869 22.8022 77.7621 19.0095 83.3338 14.579C85.3812 12.9343 87.7308 10.6519 87.6637 7.46329C87.6302 5.21447 86.2874 3.03281 84.1729 1.82449C82.5282 0.884692 80.4808 0.515473 78.2991 0.817553C72.6603 1.55597 68.6662 5.95288 65.7797 9.71209L64.7728 11.0211C63.6316 12.5651 62.4903 14.0419 61.282 15.3509C61.2484 14.0419 60.9799 12.6993 60.51 11.3568C58.5633 6.15429 53.2266 1.65665 47.5542 0.381199C43.5601 -0.491475 39.3981 0.549046 36.6794 3.1335C34.9676 4.77816 33.7928 6.99342 33.2558 9.54431C32.1482 9.04085 31.0406 8.6716 29.9329 8.40309C25.9388 7.53041 21.7768 8.57093 19.0581 11.1554C18.1183 12.0281 17.3461 13.1021 16.7755 14.2769C16.1714 15.4516 15.7687 16.7942 15.5673 18.1703C11.8081 17.5662 7.98184 18.6067 5.39738 21.0233C4.45757 21.896 3.68562 22.97 3.11502 24.1448C2.24235 25.8566 1.7387 27.904 1.67158 29.985L1.63818 30.0522ZM11.6067 57.9442C7.78037 56.1652 5.22956 51.8019 5.39738 47.3378C5.43094 45.8945 5.76651 44.552 6.37067 43.3772C6.53849 43.0751 6.7064 42.773 6.87422 42.5045C6.90778 42.5381 6.97484 42.5716 7.0084 42.6052C7.07553 42.6723 7.14265 42.7395 7.20978 42.8066C7.4783 43.0415 7.81401 43.243 8.11608 43.4779C8.31747 43.6457 8.51887 43.8136 8.75382 43.9478C9.32441 44.317 9.92846 44.6862 10.5326 44.9547C10.9354 45.1561 11.3382 45.2904 11.7745 45.4582C11.9087 45.4918 12.043 45.5253 12.1772 45.5924C12.4793 45.6931 12.7815 45.7603 13.0835 45.8274C13.2514 45.861 13.3857 45.8945 13.5535 45.9281C13.8556 45.9952 14.1241 46.0288 14.4262 46.0623C14.594 46.0623 14.7281 46.0959 14.896 46.1295C15.2316 46.163 15.5674 46.1966 15.903 46.1966C16.0373 46.1966 16.1379 46.1966 16.2722 46.1966C16.7421 46.1966 17.1784 46.1966 17.6483 46.163C17.7154 46.163 17.8161 46.163 17.8832 46.163C18.2524 46.1295 18.6217 46.0959 18.9909 46.0288C19.1587 46.0288 19.293 45.9617 19.4273 45.9281C19.5951 45.8945 19.7964 45.861 19.9642 45.8274C20.0313 45.9281 20.0984 45.9952 20.132 46.0959C20.3334 46.4316 20.5684 46.7672 20.8033 47.0693C20.904 47.2035 21.0048 47.3378 21.1055 47.4721C21.4411 47.9084 21.8104 48.3448 22.2132 48.7475C22.4817 49.0161 22.7836 49.2845 23.0857 49.5531C23.1192 49.5866 23.1865 49.6202 23.2201 49.6537C23.455 49.8551 23.7235 50.0565 23.992 50.2579C24.1262 50.3586 24.2941 50.4929 24.4283 50.5935C24.4619 50.5935 24.4956 50.6606 24.5291 50.6606C24.5291 50.7613 24.5291 50.862 24.5291 50.9627C24.5291 51.1305 24.5291 51.2984 24.5291 51.4663C24.5291 51.7683 24.4619 52.0368 24.3947 52.3389C24.3612 52.5067 24.3277 52.6746 24.2605 52.8424C24.1599 53.1445 24.059 53.4465 23.9248 53.7486C23.8577 53.8829 23.8241 54.0171 23.757 54.1514C23.522 54.5877 23.2871 54.9905 22.9515 55.3932C22.7165 55.6953 22.4817 55.9638 22.2132 56.2323C21.6761 56.7358 21.0718 57.2057 20.4006 57.5749C20.4006 57.5749 20.4005 57.5749 20.367 57.5749C20.1991 57.6756 20.0314 57.7427 19.8636 57.8099C19.6622 57.9106 19.4943 58.0113 19.2929 58.0784C16.8091 59.0518 13.9226 59.0182 11.6067 57.9442ZM22.2802 35.6909C22.2802 35.6909 22.3138 35.456 22.3474 35.3217C22.4145 35.0197 22.4816 34.7512 22.5487 34.4491C22.5487 34.382 22.5824 34.3148 22.6159 34.2141C23.1194 34.5162 23.6227 34.8183 24.1598 35.0532C24.6632 35.2882 25.1667 35.4896 25.6702 35.6574C26.1737 35.8252 26.7108 35.9595 27.2478 36.0602C27.7513 36.1609 28.2882 36.228 28.7917 36.2615C28.9595 36.2615 29.1273 36.2615 29.2616 36.2615C29.6308 36.2615 30.0337 36.2615 30.4029 36.2615C30.5707 36.2615 30.7384 36.2615 30.9062 36.2615C31.3426 36.2615 31.779 36.1944 32.2153 36.1273C32.316 36.1273 32.3832 36.1273 32.4839 36.0937C32.9873 35.993 33.4906 35.8923 33.9941 35.7581C34.1284 35.7245 34.2962 35.6574 34.4304 35.6238C34.7997 35.5231 35.1353 35.3889 35.4709 35.2546C35.6388 35.1875 35.8066 35.1203 35.9409 35.0532C36.2765 34.8854 36.6457 34.7176 36.9814 34.5498C37.1156 34.4826 37.2163 34.4155 37.3505 34.3484C37.3841 34.3484 37.4178 34.3148 37.4513 34.2813C37.4513 34.3484 37.5183 34.4155 37.5519 34.4826C37.6862 34.8518 37.8541 35.2211 38.0555 35.5567C38.1562 35.7245 38.2233 35.8923 38.2904 36.0937C38.5589 36.6307 38.8611 37.1342 39.1967 37.6041C39.5659 38.1076 39.935 38.6111 40.3378 39.0474C40.4721 39.1816 40.6063 39.3159 40.7406 39.4837C40.9084 39.6516 41.0427 39.8194 41.2105 39.9872C41.2105 40.155 41.2105 40.2893 41.2105 40.4571C41.2105 40.6585 41.2105 40.8263 41.2105 41.0277C41.2105 41.2962 41.1435 41.5983 41.0763 41.8668C41.0428 42.0346 41.0091 42.2025 40.9419 42.3703C40.8413 42.6724 40.7406 42.9744 40.6064 43.2429C40.5393 43.3772 40.5057 43.545 40.405 43.6793C40.1701 44.1156 39.9351 44.5184 39.5995 44.9547C39.2303 45.4582 38.7267 45.9281 38.1896 46.3645C38.0554 46.4651 37.9213 46.5658 37.6863 46.7001C37.5856 46.7672 37.4849 46.8343 37.2835 46.935C37.1493 47.0357 36.9814 47.1029 36.8136 47.2036C36.8136 47.2036 36.78 47.2036 36.7464 47.2036C36.545 47.3043 36.3772 47.3714 36.1423 47.4721C35.9744 47.5392 35.7731 47.6398 35.5717 47.707C35.5046 47.707 35.4375 47.7406 35.3703 47.7741C35.3032 47.7741 35.2361 47.8412 35.1354 47.8412C35.0682 47.8412 34.9003 47.9084 34.8332 47.9419H34.6318C34.464 48.0426 34.2627 48.0762 34.0613 48.1098C32.0474 48.479 29.9665 48.244 28.2211 47.4385C28.1204 47.4049 28.0198 47.3378 27.8856 47.2707L27.7176 47.2036C26.8785 46.7337 26.0731 46.1295 25.3682 45.4246C24.4284 44.4512 23.6229 43.2765 23.0523 42.0011C22.6831 41.1955 22.4144 40.3564 22.2466 39.4501C22.0787 38.5775 22.0116 37.7384 22.0452 36.8657C22.0452 36.4294 22.1124 36.0266 22.1796 35.6238L22.2802 35.6909ZM51.4812 21.124C52.8909 21.6275 54.3343 22.3994 55.5762 23.4064C55.744 23.5406 55.9453 23.7085 56.1131 23.8427C57.3886 24.9503 58.429 26.2258 59.1674 27.5684C60.275 29.6829 61.1142 32.8716 58.6304 36.1273C57.4893 37.6041 55.7774 38.7118 53.7636 39.2152C52.3203 39.5844 50.8099 39.618 49.333 39.3495C48.6282 39.2152 47.9234 38.9803 47.2857 38.6782C46.8829 38.5104 46.4802 38.2754 46.111 38.0404C46.111 38.0404 46.0438 38.0069 46.0102 37.9734C45.6746 37.7384 45.339 37.5034 45.0033 37.2349C44.3656 36.6643 43.6607 35.9259 43.0901 35.0868C42.2174 33.8114 41.5798 32.3345 41.2777 30.7234C41.2106 30.4885 41.1769 30.22 41.1433 29.9515C41.0762 29.3473 41.0427 28.7431 41.0427 28.1054C41.0763 26.6621 41.4119 25.3195 42.016 24.1448C42.251 23.6749 42.5195 23.2722 42.8551 22.8694C43.023 22.668 43.1909 22.5002 43.3587 22.3323C44.9698 20.8219 47.6214 20.1842 50.1052 20.7213C50.5751 20.822 51.0449 20.9562 51.5148 21.124H51.4812ZM27.9861 66.1674C25.9052 65.194 24.1933 63.4823 23.0857 61.3006C23.4549 61.0992 23.7905 60.8643 24.1262 60.5958C24.1597 60.5958 24.1934 60.5286 24.2605 60.4951C24.6298 60.193 24.999 59.8909 25.3346 59.5888C25.4353 59.4881 25.5359 59.3874 25.6366 59.3203C26.0058 58.9511 26.3414 58.5819 26.6435 58.1791C26.9456 57.7764 27.2143 57.3735 27.4492 56.9708C27.5163 56.8365 27.5833 56.7023 27.684 56.568C27.8518 56.2659 27.9861 55.9974 28.1203 55.6953C28.1875 55.5275 28.2546 55.3933 28.3217 55.2254C28.456 54.9234 28.5568 54.6213 28.6575 54.3527C28.691 54.2185 28.7581 54.0506 28.7917 53.9164C28.8923 53.5136 28.9931 53.1109 29.0602 52.7081C29.0602 52.6746 29.0602 52.641 29.0602 52.5738C29.1274 52.5738 29.1944 52.5738 29.228 52.5738C29.5972 52.641 29.9665 52.7081 30.3357 52.7752C30.4028 52.7752 30.4699 52.7752 30.5371 52.7752C30.9734 52.8423 31.4098 52.8423 31.8461 52.8759C31.9804 52.8759 32.1146 52.8759 32.2489 52.8759C32.5845 52.8759 32.9201 52.8759 33.2558 52.8759C33.39 52.8759 33.5243 52.8759 33.6585 52.8759C34.0949 52.8423 34.5649 52.7752 35.0012 52.7081C35.3033 52.641 35.6053 52.5738 35.8403 52.5402C36.0417 52.5067 36.2095 52.4396 36.4108 52.3725C36.6122 52.3053 36.8136 52.2718 36.9814 52.2047C36.9814 52.2047 37.0486 52.2047 37.0822 52.2047C37.25 52.1375 37.4177 52.1039 37.5519 52.0368C38.1561 52.6409 38.7268 53.2787 39.1631 53.95C39.1631 53.95 39.1631 53.95 39.1631 53.9836C39.3645 54.2857 39.5659 54.6213 39.7337 54.9234C39.7337 54.9569 39.7673 55.024 39.8009 55.0576C39.9687 55.3261 40.1029 55.6282 40.2036 55.9303C40.2036 55.9974 40.2707 56.0645 40.3042 56.1652C40.4049 56.4338 40.5057 56.7022 40.5728 56.9372C40.5728 57.0379 40.64 57.1386 40.64 57.2057C40.7071 57.4407 40.7406 57.7092 40.7742 57.9442C40.7742 58.0448 40.8078 58.1455 40.8414 58.2462C40.8749 58.5819 40.9083 58.884 40.9083 59.2196C40.9083 60.73 40.3378 62.2068 39.2973 63.5829C36.8471 66.7716 31.7789 67.9128 27.9525 66.1339L27.9861 66.1674ZM45.4397 57.3735C45.4397 57.3735 45.3724 57.105 45.3389 57.0044C45.2717 56.568 45.1712 56.0981 45.0369 55.6618C44.9698 55.4604 44.9027 55.2589 44.8355 55.0576C44.6677 54.5877 44.4998 54.1514 44.2984 53.6815C44.2313 53.5473 44.1641 53.3794 44.097 53.2452C43.7949 52.641 43.4593 52.0704 43.0565 51.4663C43.023 51.3991 42.9559 51.332 42.8887 51.2649C42.5531 50.7614 42.1502 50.2915 41.7475 49.788C41.6803 49.7209 41.6468 49.6538 41.6133 49.5867C41.7811 49.4524 41.9154 49.2846 42.0832 49.1503C42.1839 49.0496 42.3181 48.9489 42.4188 48.8482C42.7544 48.5126 43.0902 48.1434 43.3587 47.7741C43.6272 47.4049 43.8956 47.0357 44.097 46.6665C44.1641 46.5323 44.2313 46.4316 44.2984 46.2973C44.4326 46.0288 44.6004 45.7939 44.7011 45.5253C44.7683 45.3575 44.8354 45.2233 44.9025 45.0554C45.0032 44.8205 45.104 44.5855 45.2047 44.3506C45.2718 44.1827 45.3053 44.0149 45.3725 43.8471C45.4396 43.6122 45.5067 43.4107 45.5738 43.1758C45.5738 43.1087 45.6075 43.0415 45.641 42.9744C45.9096 43.0751 46.178 43.1758 46.4466 43.2765C46.6144 43.3436 46.7487 43.4107 46.9165 43.4443C47.42 43.6121 47.9235 43.7464 48.4269 43.8135C48.8968 43.9142 49.4003 43.9813 49.8702 44.0149C50.0044 44.0149 50.1387 44.0149 50.3065 44.0149C50.6758 44.0149 51.0114 44.0149 51.3806 44.0149C51.5484 44.0149 51.6826 44.0149 51.8504 44.0149C52.2531 44.0149 52.6225 43.9478 53.0252 43.9142C53.1259 43.9142 53.2265 43.9142 53.3272 43.9142C53.3272 43.9142 53.3272 43.9142 53.3608 43.9142C53.4279 44.0149 53.5287 44.1156 53.5958 44.2163C53.73 44.3842 53.8307 44.5855 53.9313 44.7533C54.1327 45.0554 54.3007 45.3575 54.4685 45.6931C54.5692 45.8609 54.6364 46.0623 54.7371 46.2302C54.8713 46.5658 54.9719 46.8679 55.0726 47.2036C55.1062 47.3714 55.1733 47.5391 55.2404 47.707C55.3411 48.1769 55.4418 48.6468 55.4418 49.1167V49.1503C55.5089 50.8285 54.972 52.4396 53.8308 53.95C52.0183 56.3331 48.6618 57.6421 45.4397 57.3064V57.3735ZM67.5585 43.6793C65.8803 45.8945 62.8259 47.17 59.8051 47.0693C59.8051 47.0021 59.7717 46.935 59.7381 46.8679C59.7046 46.6665 59.6373 46.4987 59.6037 46.2973C59.5366 46.0959 59.5031 45.8945 59.436 45.6931C59.3688 45.4917 59.3017 45.3239 59.2346 45.1225C59.1674 44.9211 59.1003 44.7198 58.9996 44.5184C58.9325 44.317 58.8317 44.1492 58.731 43.9478C58.6303 43.7464 58.5634 43.5786 58.4627 43.3772C58.362 43.1758 58.2612 43.008 58.1605 42.8066C58.0934 42.7059 58.0262 42.5717 57.9591 42.471C57.9591 42.471 57.9591 42.471 57.9927 42.471C58.3955 42.2696 58.7648 42.0346 59.134 41.7997C59.2347 41.7326 59.3017 41.6654 59.4024 41.6319C59.6709 41.4305 59.9395 41.2627 60.1745 41.0613C60.2752 40.9606 60.3758 40.8934 60.51 40.7928C60.745 40.5914 60.9464 40.39 61.1814 40.1886C61.2821 40.0879 61.3828 40.0207 61.4499 39.92C61.752 39.618 62.0205 39.2823 62.2891 38.9467C62.6918 38.4097 63.0609 37.8391 63.3965 37.2685C63.4972 37.0671 63.5644 36.8993 63.6651 36.6979C63.8665 36.2951 64.0342 35.8923 64.202 35.4896C64.2692 35.2546 64.3363 35.0532 64.4034 34.8183C64.5041 34.4155 64.6049 34.0463 64.672 33.6435C64.7056 33.4086 64.7392 33.1736 64.7728 32.9387C64.8063 32.5359 64.8398 32.1331 64.8398 31.6968C64.8398 31.529 64.8398 31.3947 64.8398 31.2269C68.599 34.3819 70.915 39.383 67.5921 43.7128L67.5585 43.6793ZM78.8697 5.41586C80.0444 5.24804 81.085 5.41587 81.8569 5.85221C82.5618 6.25498 83.0318 6.95985 83.0318 7.59757C83.0318 8.77233 81.6556 10.0478 80.4137 11.0547C74.5735 15.7202 68.1627 19.6136 61.3156 22.6679C61.1142 22.433 60.9128 22.1981 60.6778 21.9631C63.8664 19.8486 66.1823 16.8278 68.3976 13.8406L69.3711 12.5315C71.687 9.47718 74.8757 5.91932 78.8363 5.41586H78.8697ZM39.8009 6.52349C41.412 5.01309 44.03 4.37536 46.5473 4.94596C48.6955 5.41586 50.8435 6.55708 52.5889 8.06747C54.2336 9.47718 55.5424 11.2225 56.2137 13.035C56.9186 14.881 56.9186 16.6599 56.2809 18.3382C55.8446 18.0697 55.4083 17.8347 54.9384 17.6333C54.8713 17.5997 54.7706 17.5662 54.7035 17.5326C54.2336 17.2977 53.7301 17.0963 53.2602 16.9285C53.126 16.8613 52.9581 16.8278 52.8239 16.7606C52.2533 16.5592 51.6826 16.3914 51.1121 16.2572C47.1179 15.3845 42.9559 16.425 40.2372 19.0094C40.0694 19.1773 39.9351 19.3115 39.7673 19.4793C39.7337 19.4122 39.7002 19.3451 39.6331 19.3115C39.3981 18.9759 39.1967 18.6402 38.9954 18.271C38.9282 18.1703 38.8945 18.0696 38.8274 17.969C38.5924 17.5326 38.3911 17.0627 38.2232 16.5928C38.2232 16.5257 38.1898 16.4921 38.1563 16.425C38.022 15.9886 37.8876 15.5523 37.7869 15.116C37.7869 15.0153 37.7535 14.881 37.7199 14.7803C37.6192 14.2769 37.5521 13.7734 37.5185 13.27C37.5185 12.9679 37.5185 12.6322 37.5185 12.3302C37.5856 9.94709 38.4247 7.8325 39.8009 6.52349ZM22.1796 14.5454C23.7907 13.035 26.4423 12.3973 28.926 12.9343C30.3357 13.2364 31.7454 13.8406 33.0544 14.6797C33.0544 14.7804 33.0544 14.8475 33.088 14.9482C33.088 15.0824 33.1214 15.2502 33.155 15.3845C33.2221 15.7201 33.2892 16.0893 33.3564 16.425C33.3899 16.5592 33.4236 16.7271 33.4572 16.8613C33.5578 17.2641 33.6921 17.6669 33.8263 18.0361C33.8263 18.1032 33.8599 18.1703 33.8935 18.271C34.0613 18.7409 34.2627 19.1773 34.464 19.6136C34.5312 19.7479 34.5983 19.8486 34.6318 19.9828C34.7996 20.3185 34.9676 20.6206 35.169 20.9226C35.2361 21.0569 35.3369 21.1911 35.4375 21.3254C35.6389 21.6275 35.8403 21.9296 36.0417 22.2316C36.1088 22.3323 36.2095 22.4666 36.2767 22.5673C36.5787 22.9365 36.8471 23.3057 37.1828 23.6413C37.1828 23.7085 37.1493 23.8092 37.1158 23.9099C36.9479 24.4133 36.8135 24.9168 36.7128 25.4538C36.6792 25.6216 36.6458 25.7895 36.6122 25.9573C36.5115 26.595 36.4108 27.2328 36.4108 27.904C36.4108 28.3739 36.4108 28.8438 36.4108 29.3137C36.4108 29.3137 36.4108 29.3137 36.4108 29.3473C36.3101 29.448 36.2094 29.5151 36.1087 29.5823C35.9744 29.683 35.8402 29.7836 35.7059 29.8843C35.5381 30.0186 35.3704 30.1192 35.2026 30.2199C35.0683 30.3206 34.934 30.3878 34.7662 30.4885C34.5648 30.5892 34.3969 30.6899 34.1955 30.7906C34.0612 30.8577 33.9271 30.9248 33.7593 30.992C33.5579 31.0926 33.3229 31.1598 33.088 31.2269C32.9537 31.2604 32.8195 31.3276 32.6852 31.3612C32.4503 31.4283 32.1817 31.4954 31.9467 31.5289C31.8125 31.5289 31.7118 31.5961 31.5776 31.5961C31.2755 31.6297 31.0069 31.6632 30.7049 31.6968C30.6042 31.6968 30.537 31.6968 30.4363 31.6968C30.0671 31.6968 29.6978 31.6968 29.3622 31.6968C29.3622 31.6968 29.2952 31.6968 29.2616 31.6968C28.8588 31.6968 28.4561 31.6296 28.0869 31.5289C27.3821 31.3947 26.7107 31.1598 26.073 30.8913C25.5695 30.6563 25.0996 30.3878 24.6633 30.0857C24.227 29.7836 23.7906 29.4144 23.3878 29.0116C23.1193 28.7431 22.8843 28.4746 22.6493 28.2061C22.2465 27.7026 21.8775 27.1656 21.5418 26.595C21.4411 26.4272 21.3404 26.2594 21.2733 26.0915C20.6355 24.8496 20.1656 23.5071 19.9978 22.131C19.9642 21.8624 19.9306 21.5604 19.9306 21.2918C19.9306 21.1912 19.9306 21.124 19.9306 21.0233C19.9306 20.7884 19.9306 20.5199 19.9306 20.2849C19.9642 18.8416 20.2999 17.499 20.9041 16.3243C21.2398 15.6194 21.7095 14.9817 22.2466 14.4783L22.1796 14.5454ZM8.51884 24.4469C10.1299 22.9365 12.7816 22.2988 15.2653 22.8358C15.3324 22.8358 15.3996 22.8358 15.4667 22.8694C15.4667 22.9365 15.4667 22.97 15.5003 23.0372C15.601 23.6413 15.7016 24.2119 15.8695 24.8161C15.903 24.9839 15.9701 25.1517 16.0036 25.3196C16.1715 25.9237 16.3728 26.4943 16.6078 27.0649C16.6078 27.0985 16.6414 27.1656 16.675 27.1992C16.9435 27.8033 17.2456 28.4075 17.5813 28.9781C17.6484 29.1123 17.7489 29.2466 17.8496 29.3808C18.1517 29.8507 18.4875 30.3206 18.8231 30.757C18.8903 30.8241 18.9238 30.8912 18.9909 30.9584C18.8902 31.1597 18.7895 31.3947 18.7223 31.6297C18.6216 31.8646 18.5211 32.066 18.4204 32.301C18.3532 32.4688 18.3195 32.6701 18.2524 32.838C18.1517 33.14 18.0512 33.4421 17.984 33.7442C17.9505 33.8785 17.9168 34.0463 17.9168 34.1806C17.8497 34.5162 17.7826 34.8854 17.7155 35.221C17.6483 35.7245 17.6148 36.228 17.5813 36.765C17.5477 37.9734 17.6483 39.2152 17.8832 40.3899C17.9504 40.7592 18.0511 41.1284 18.1518 41.4976C18.0847 41.4976 18.0176 41.4976 17.9504 41.4976C17.5812 41.5647 17.2455 41.5983 16.8763 41.5983C16.7756 41.5983 16.6415 41.5983 16.5408 41.5983C16.1044 41.5983 15.7017 41.5983 15.2653 41.5312C15.1982 41.5312 15.1645 41.5312 15.0973 41.5312C14.7281 41.464 14.3591 41.3969 13.9899 41.2962C13.8892 41.2962 13.7548 41.2291 13.6541 41.1955C13.2513 41.0612 12.8486 40.927 12.4794 40.7592C11.0697 40.1214 9.79434 39.0809 8.78741 37.7719C7.10919 35.6238 6.20296 32.8715 6.27008 30.1864C6.33721 28.7431 6.63922 27.4006 7.24338 26.2258C7.57902 25.521 8.049 24.9168 8.58604 24.3798L8.51884 24.4469Z" fill="#E2E2E2"/>
</g>
</svg>
