<svg width="71" height="77" viewBox="0 0 71 77" fill="none" xmlns="http://www.w3.org/2000/svg">
<g style="mix-blend-mode:multiply">
<path d="M65.5059 1.5378C59.4643 5.53197 52.7849 8.92212 46.3405 12.1779C43.1184 13.8225 39.762 15.5006 36.5398 17.2795C28.0144 21.9114 17.2402 28.5236 9.65469 38.5258C4.21726 45.7422 -1.95856 60.4769 2.1363 69.1701C3.51244 72.1238 6.66743 75.7487 13.8166 76.0844C14.2194 76.0844 14.6558 76.0844 15.0586 76.0844C29.4242 76.0844 47.5824 64.4376 55.2687 53.4956C61.6459 44.4668 63.9954 33.3905 66.0764 23.6232L70.1042 4.59228C70.3727 3.41752 69.8692 2.1757 68.8623 1.50441C67.8554 0.833123 66.5463 0.799558 65.5394 1.50441L65.5059 1.5378ZM60.1691 22.4486C58.2223 31.6452 56.0071 42.0837 50.3347 50.1056C43.454 59.8393 26.1684 70.714 14.0516 70.1434C12.2056 70.0427 10.8966 69.6736 9.95676 69.1701C18.8513 57.3219 30.4982 47.6218 43.7897 41.1103C45.2666 40.3719 45.8707 38.593 45.1659 37.1162C44.4275 35.6393 42.6485 35.0351 41.1717 35.7399C27.8131 42.285 16.0319 51.8845 6.8017 63.4977C6.33179 57.0869 10.4267 47.454 14.4209 42.1508C21.3016 33.0549 31.3709 26.9125 39.3928 22.5491C42.5814 20.8374 45.8706 19.1592 49.0592 17.5481C53.5904 15.2321 58.256 12.8827 62.7872 10.2647L60.2026 22.4486H60.1691Z" fill="#E2E2E2"/>
</g>
</svg>
