<svg width="50" height="51" viewBox="0 0 50 51" fill="none" xmlns="http://www.w3.org/2000/svg">
<rect width="50" height="50" transform="translate(0 0.207031)" fill="white"/>
<path fill-rule="evenodd" clip-rule="evenodd" d="M35.9276 23.2596C35.9075 21.2885 35.3132 19.3659 34.2173 17.7273C33.1215 16.0887 31.5717 14.8051 29.7576 14.0336C29.7356 14.0336 29.7136 14.0336 29.6916 14.0196C29.6828 14.014 29.674 14.0075 29.665 14.0007C29.6514 13.9906 29.6372 13.98 29.6216 13.9716C29.2676 13.8036 28.9116 13.6416 28.5496 13.4916C26.8602 12.7715 25.046 12.3897 23.2096 12.3676C21.3429 12.3493 19.5055 12.8328 17.8896 13.7676C14.2316 15.9096 11.8196 20.3676 11.0896 26.3336C10.7859 28.4444 9.96866 30.4484 8.70964 32.1696C7.52364 34.0196 6.66564 35.3576 7.61964 37.7916C8.05588 38.6171 8.66981 39.3355 9.41718 39.8951C10.1645 40.4547 11.0267 40.8415 11.9416 41.0276C14.9695 41.7391 18.1161 41.7821 21.1622 41.1534C24.2083 40.5248 27.0808 39.2397 29.5796 37.3876C31.7314 35.7465 33.4391 33.5939 34.5476 31.1253C35.6562 28.6566 36.1306 25.9502 35.9276 23.2516V23.2596ZM34.4016 25.8356L34.4196 25.6356C34.4263 25.5421 34.4134 25.4481 34.3818 25.3598C34.3502 25.2715 34.3006 25.1907 34.2361 25.1226C34.1715 25.0545 34.0935 25.0006 34.007 24.9642C33.9206 24.9279 33.8274 24.91 33.7336 24.9116C33.5238 24.9087 33.3209 24.987 33.1674 25.1301C33.0138 25.2732 32.9215 25.4701 32.9096 25.6796C32.8889 25.8774 32.9473 26.0753 33.0721 26.2301C33.1969 26.3849 33.378 26.484 33.5756 26.5056H33.6556C33.8406 26.5053 34.019 26.4367 34.1566 26.3131C34.2942 26.1895 34.3815 26.0195 34.4016 25.8356ZM30.9257 18.0765C30.9358 17.8778 31.0243 17.6913 31.1716 17.5576C31.2446 17.4914 31.33 17.4402 31.4228 17.407C31.5155 17.3737 31.614 17.3591 31.7124 17.3639C31.8109 17.3688 31.9074 17.3929 31.9965 17.4351C32.0856 17.4773 32.1655 17.5366 32.2316 17.6096C33.5431 19.1675 34.3087 21.1118 34.4116 23.1456C34.4312 23.3435 34.3714 23.541 34.2454 23.6947C34.1194 23.8485 33.9375 23.9459 33.7396 23.9656H33.6636C33.4779 23.9647 33.299 23.8951 33.1613 23.7704C33.0236 23.6456 32.9369 23.4744 32.9176 23.2896C32.8473 21.5768 32.2147 19.9349 31.1176 18.6176C30.9846 18.4697 30.9156 18.2752 30.9257 18.0765Z" fill="#FDC602"/>
<path d="M42.5276 9.69764C41.679 9.96434 40.7723 9.98652 39.9116 9.76164C34.3116 8.51764 31.8456 11.5056 30.9896 12.9936L31.1377 13.0716C31.3991 13.2091 31.6616 13.3472 31.9156 13.5036C33.7457 11.709 36.1801 10.6626 38.7416 10.5696C38.9394 10.5774 39.1259 10.6633 39.2605 10.8083C39.3951 10.9534 39.4667 11.1459 39.4596 11.3436C39.4513 11.5419 39.3656 11.7289 39.2209 11.8647C39.0762 12.0004 38.884 12.074 38.6856 12.0696C36.6308 12.1719 34.6774 12.9939 33.1676 14.3916C33.7172 14.8371 34.2217 15.3355 34.6736 15.8796C35.5308 16.0878 36.4227 16.1087 37.2887 15.941C38.1546 15.7733 38.9742 15.4208 39.6916 14.9076C41.2024 13.5402 42.2043 11.7005 42.5336 9.68964L42.5276 9.69764Z" fill="#00B115"/>
<path fill-rule="evenodd" clip-rule="evenodd" d="M44.2816 8.05964C44.1327 11.1014 42.8244 13.9706 40.6256 16.0776C39.3593 17.0527 37.7975 17.5651 36.1996 17.5296C36.1269 17.5296 36.05 17.5184 35.9731 17.5072C35.9084 17.4978 35.8438 17.4884 35.7816 17.4856C36.7329 19.2234 37.2913 21.1486 37.4176 23.1256C37.6374 26.0831 37.1147 29.0485 35.8971 31.7526C34.6795 34.4567 32.8056 36.8138 30.4456 38.6096C26.3771 41.4988 21.5233 43.0765 16.5336 43.1316C14.8363 43.1493 13.1455 42.9209 11.5136 42.4536C10.3806 42.2063 9.31765 41.7074 8.40338 40.994C7.48911 40.2805 6.7469 39.3706 6.23164 38.3316C5.76889 37.1687 5.63829 35.9001 5.85441 34.6672C6.07054 33.4344 6.62489 32.2858 7.45564 31.3496C8.58743 29.8182 9.32697 28.0328 9.60964 26.1496C10.3856 19.7116 13.0576 14.8536 17.1296 12.4676C18.9607 11.4691 21.0011 10.9156 23.0857 10.8516C25.1704 10.7877 27.2408 11.2152 29.1296 12.0996C29.2395 12.1446 29.3501 12.1958 29.4606 12.2469C29.5271 12.2776 29.5935 12.3083 29.6596 12.3376C30.6316 10.6536 33.6256 6.82364 40.2596 8.29164C42.1795 8.71827 42.8207 7.77039 42.8871 7.67229L42.8916 7.66564C42.9764 7.51911 43.1075 7.40498 43.2643 7.34124C43.4211 7.2775 43.5947 7.26779 43.7576 7.31364C43.9154 7.36226 44.0524 7.46193 44.1473 7.59698C44.2421 7.73203 44.2894 7.89479 44.2816 8.05964ZM34.2173 17.7273C35.3132 19.3659 35.9075 21.2885 35.9276 23.2596V23.2516C36.1306 25.9502 35.6562 28.6566 34.5476 31.1253C33.4391 33.5939 31.7314 35.7465 29.5796 37.3876C27.0808 39.2397 24.2083 40.5248 21.1622 41.1534C18.1161 41.7821 14.9695 41.7391 11.9416 41.0276C11.0267 40.8415 10.1645 40.4547 9.41718 39.8951C8.66981 39.3355 8.05588 38.6171 7.61964 37.7916C6.66564 35.3576 7.52364 34.0196 8.70964 32.1696C9.96866 30.4484 10.7859 28.4444 11.0896 26.3336C11.8196 20.3676 14.2316 15.9096 17.8896 13.7676C19.5055 12.8328 21.3429 12.3493 23.2096 12.3676C25.046 12.3897 26.8602 12.7715 28.5496 13.4916C28.9116 13.6416 29.2676 13.8036 29.6216 13.9716C29.6372 13.98 29.6514 13.9906 29.665 14.0007C29.674 14.0075 29.6828 14.014 29.6916 14.0196C29.7136 14.0336 29.7356 14.0336 29.7576 14.0336C31.5717 14.8051 33.1215 16.0887 34.2173 17.7273ZM39.9116 9.76164C40.7723 9.98652 41.679 9.96434 42.5276 9.69764L42.5336 9.68964C42.2043 11.7005 41.2024 13.5402 39.6916 14.9076C38.9742 15.4208 38.1546 15.7733 37.2887 15.941C36.4227 16.1087 35.5308 16.0878 34.6736 15.8796C34.2217 15.3355 33.7172 14.8371 33.1676 14.3916C34.6774 12.9939 36.6308 12.1719 38.6856 12.0696C38.884 12.074 39.0762 12.0004 39.2209 11.8647C39.3656 11.7289 39.4513 11.5419 39.4596 11.3436C39.4667 11.1459 39.3951 10.9534 39.2605 10.8083C39.1259 10.6633 38.9394 10.5774 38.7416 10.5696C36.1801 10.6626 33.7457 11.709 31.9156 13.5036C31.6616 13.3472 31.3991 13.2091 31.1377 13.0716L30.9896 12.9936C31.8456 11.5056 34.3116 8.51764 39.9116 9.76164Z" fill="black"/>
</svg>
