<svg width="24" height="25" viewBox="0 0 24 25" fill="none" xmlns="http://www.w3.org/2000/svg">
<path d="M21.6602 10.7354L20.6802 14.9154C19.8402 18.5254 18.1802 19.9854 15.0602 19.6854C14.5602 19.6454 14.0202 19.5554 13.4402 19.4154L11.7602 19.0154C7.59018 18.0254 6.30018 15.9654 7.28018 11.7854L8.26018 7.59542C8.46018 6.74542 8.70018 6.00542 9.00018 5.39542C10.1702 2.97542 12.1602 2.32542 15.5002 3.11542L17.1702 3.50542C21.3602 4.48542 22.6402 6.55542 21.6602 10.7354Z" fill="white" stroke="white" stroke-width="1.5" stroke-linecap="round" stroke-linejoin="round"/>
<path d="M15.0599 19.6884C14.4399 20.1084 13.6599 20.4584 12.7099 20.7684L11.1299 21.2884C7.15985 22.5684 5.06985 21.4984 3.77985 17.5284L2.49985 13.5784C1.21985 9.60844 2.27985 7.50844 6.24985 6.22844L7.82985 5.70844C8.23985 5.57844 8.62985 5.46844 8.99985 5.39844C8.69985 6.00844 8.45985 6.74844 8.25985 7.59844L7.27985 11.7884C6.29985 15.9684 7.58985 18.0284 11.7599 19.0184L13.4399 19.4184C14.0199 19.5584 14.5599 19.6484 15.0599 19.6884Z" stroke="white" stroke-width="1.5" stroke-linecap="round" stroke-linejoin="round"/>
<path d="M12.6401 8.82812L17.4901 10.0581" stroke="#FF3184" stroke-width="1.5" stroke-linecap="round" stroke-linejoin="round"/>
<path d="M11.6602 12.6953L14.5602 13.4353" stroke="#FF3184" stroke-width="1.5" stroke-linecap="round" stroke-linejoin="round"/>
</svg>
