<svg width="24" height="25" viewBox="0 0 24 25" fill="none" xmlns="http://www.w3.org/2000/svg">
<path d="M21.6602 10.6456L20.6802 14.8256C19.8402 18.4356 18.1802 19.8956 15.0602 19.5956C14.5602 19.5556 14.0202 19.4656 13.4402 19.3256L11.7602 18.9256C7.59018 17.9356 6.30018 15.8756 7.28018 11.6956L8.26018 7.50557C8.46018 6.65557 8.70018 5.91557 9.00018 5.30557C10.1702 2.88557 12.1602 2.23557 15.5002 3.02557L17.1702 3.41557C21.3602 4.39557 22.6402 6.46557 21.6602 10.6456Z" fill="white" stroke="white" stroke-width="1.5" stroke-linecap="round" stroke-linejoin="round"/>
<path d="M15.0599 19.5986C14.4399 20.0186 13.6599 20.3686 12.7099 20.6786L11.1299 21.1986C7.15985 22.4786 5.06985 21.4086 3.77985 17.4386L2.49985 13.4886C1.21985 9.51859 2.27985 7.41859 6.24985 6.13859L7.82985 5.61859C8.23985 5.48859 8.62985 5.37859 8.99985 5.30859C8.69985 5.91859 8.45985 6.65859 8.25985 7.50859L7.27985 11.6986C6.29985 15.8786 7.58985 17.9386 11.7599 18.9286L13.4399 19.3286C14.0199 19.4686 14.5599 19.5586 15.0599 19.5986Z" stroke="white" stroke-width="1.5" stroke-linecap="round" stroke-linejoin="round"/>
<path d="M12.6401 8.73828L17.4901 9.96828" stroke="#FF3184" stroke-width="1.5" stroke-linecap="round" stroke-linejoin="round"/>
<path d="M11.6602 12.6055L14.5602 13.3455" stroke="#FF3184" stroke-width="1.5" stroke-linecap="round" stroke-linejoin="round"/>
</svg>
