<svg width="86" height="69" viewBox="0 0 86 69" fill="none" xmlns="http://www.w3.org/2000/svg">
<g style="mix-blend-mode:multiply">
<path d="M77.6216 53.6405C83.4618 46.3235 86.0798 37.4962 84.7708 29.4071C83.4954 21.4188 78.4271 15.0414 70.1703 11.0137C63.3567 7.69084 55.167 4.03238 46.0711 2.05208C40.7343 0.877325 35.3305 0.239545 29.9266 0.105287C25.0262 -0.0289705 17.877 0.306714 12.2382 4.13305C7.6734 7.25454 4.35054 12.457 2.33668 19.6062C0.22212 27.2253 0.188574 34.5089 2.30313 40.7183C5.76026 50.9555 14.6213 57.6011 21.4348 61.3939C29.7588 65.9922 38.5191 68.3753 46.8095 68.3753C49.0919 68.3753 51.3071 68.2074 53.4888 67.8382C62.8869 66.2607 71.6807 61.0918 77.6552 53.6405H77.6216ZM67.6865 14.9407C62.2491 16.0147 56.8452 17.156 51.4078 18.3643C52.1126 15.2093 52.784 12.0878 53.3881 8.93274C58.5906 10.7116 63.3903 12.8933 67.6865 14.9407ZM21.7705 25.6143C19.9244 24.1375 18.3805 22.6606 17.0714 21.1166C14.8562 18.4315 13.3793 15.4778 12.7081 12.5577C21.4684 15.3436 30.2287 18.2636 38.9554 21.2844C33.3837 22.627 27.8456 23.9697 22.3075 25.413C22.1061 25.4801 21.9047 25.547 21.7369 25.6477L21.7705 25.6143ZM45.1984 24.5067C44.1915 28.4337 43.1174 32.3271 41.9427 36.1534C37.143 34.6094 32.3432 32.3943 27.6107 29.5749C27.3086 29.3735 27.0065 29.2056 26.7045 29.0042C32.8467 27.4266 38.989 25.9164 45.1984 24.5067ZM49.4947 26.2521C53.3881 30.3805 57.1473 34.6095 60.8058 38.9057C58.3556 39.0064 55.8719 38.9728 53.3545 38.6707C51.0386 38.4358 48.6891 37.9995 46.3731 37.4289C47.5143 33.7368 48.5213 29.9777 49.4947 26.2185V26.2521ZM66.3104 38.3016C66.3104 38.3016 66.2097 38.1673 66.1761 38.0666C63.1889 34.5088 60.1346 31.0181 57.0131 27.5609C63.7595 29.9776 70.4724 32.4614 77.1517 34.9787C73.7953 36.5563 70.1368 37.6639 66.344 38.3016H66.3104ZM80.2396 30.1455C80.3067 30.5147 80.3067 30.8839 80.3403 31.2531C72.1506 28.1652 63.8938 25.1444 55.6033 22.1907C61.3764 20.9488 67.1495 19.7405 72.889 18.5993C73.0568 18.5993 73.1911 18.5322 73.3253 18.4651C76.514 21.0831 79.367 24.8423 80.2061 30.1455H80.2396ZM48.9576 7.55669C48.3535 10.7117 47.6822 13.8668 46.9773 17.0219C42.916 12.927 38.754 8.89923 34.4914 5.00576C38.0156 5.30784 41.5735 5.81121 45.0306 6.58319C46.3396 6.88527 47.6486 7.22104 48.9241 7.55669H48.9576ZM27.3757 4.73719C27.3757 4.73719 27.4093 4.77082 27.4428 4.80438C31.8062 8.66429 36.1025 12.692 40.2644 16.7869C31.672 13.8332 23.0795 10.9801 14.4534 8.22781C14.5877 8.12712 14.6884 8.02657 14.8226 7.95944C17.877 5.87845 21.8376 4.87145 27.3421 4.73719H27.3757ZM52.6833 63.2735C43.6544 64.8175 33.3166 62.7028 23.6501 57.3325C17.5414 53.9425 9.65371 48.0689 6.63291 39.2415C4.35054 32.5286 5.42459 25.5471 6.7336 20.8481C7.3042 18.8678 7.97552 17.0889 8.71394 15.4778C9.68731 18.4651 11.2648 21.3851 13.4801 24.0031C16.2995 27.3931 19.9915 30.414 25.194 33.5019C34.3235 38.9729 43.6209 42.2287 52.8511 43.2356C54.7643 43.437 56.6775 43.5376 58.5906 43.5376C66.1762 43.5376 73.5268 41.893 79.8704 38.7379C78.9306 42.8999 76.9839 47.0284 73.9967 50.7204C68.7271 57.2655 60.9737 61.8302 52.6833 63.2399V63.2735Z" fill="#E2E2E2"/>
</g>
</svg>
