<svg width="104" height="70" viewBox="0 0 104 70" fill="none" xmlns="http://www.w3.org/2000/svg">
<g style="mix-blend-mode:multiply">
<path d="M65.8378 69.1322C76.3434 68.3267 85.9428 64.2319 92.8907 57.5526C94.1661 56.3442 95.3408 55.0352 96.4149 53.6591C101.718 46.8455 104.437 38.3537 103.765 30.164C103.296 24.2902 101.013 19.4905 97.3882 16.604C94.2667 14.1538 90.5411 13.2811 86.9497 12.442C85.54 12.1064 84.1974 11.8043 82.8883 11.4015C82.5527 11.3008 82.1835 11.1666 81.8479 11.0659C79.8676 10.4281 77.6188 9.68971 75.2022 10.0589C72.7855 10.4617 70.9059 11.8714 69.2612 13.1133C68.8249 13.4489 68.3885 13.751 67.9521 14.0866C60.7358 19.0877 49.6932 17.3424 44.3229 10.3946C43.7523 9.65617 43.2153 8.8506 42.6783 8.01149C41.1007 5.62842 39.3554 2.94329 36.4017 1.53359C32.911 -0.178196 28.9168 0.493079 26.0303 0.996545L25.6275 1.06369C18.2769 2.30557 3.00522 4.85646 0.99136 14.5901C-0.854681 23.5854 5.254 35.8699 11.0271 43.6569C17.3372 52.1486 26.3324 59.0965 37.0059 63.7955C46.6389 68.0246 56.6075 69.8707 65.8042 69.1658L65.8378 69.1322ZM70.4361 17.7116C70.9396 17.376 71.4094 17.0068 71.8793 16.6376C72.752 15.9998 73.5575 15.3957 74.3967 14.9593C73.6247 20.2961 69.2613 25.3307 63.656 27.0089C57.6144 28.7879 50.2974 26.9754 44.9942 22.377C40.6309 18.5843 37.4421 12.9455 35.8646 6.40041C37.0394 7.44091 38.0127 8.88417 39.0197 10.4281C39.5903 11.3008 40.1946 12.2071 40.8659 13.0797C47.5787 21.8065 61.4071 23.9546 70.4695 17.7116H70.4361ZM26.7688 5.29278C28.3127 5.02427 29.7559 4.82288 31.0985 4.82288C31.0985 4.95714 31.0985 5.05785 31.0985 5.15855C32.6425 13.5496 36.5694 20.8667 42.1411 25.6664C48.6526 31.3052 57.4131 33.4533 64.9315 31.2045C68.9928 29.9962 72.4834 27.5124 74.9672 24.2902C77.1489 21.4708 78.5585 18.148 78.8606 14.6908C79.3976 14.8251 79.9348 14.9929 80.5054 15.1943C80.8746 15.3285 81.2437 15.4292 81.6465 15.5635C83.0897 15.9998 84.5665 16.369 86.0098 16.6711C89.2991 17.4431 92.3871 18.148 94.7031 19.994C97.019 21.84 98.1937 24.5252 98.8314 26.9418C98.4287 27.1432 98.1267 27.4789 97.8917 27.9152C94.9381 34.2253 91.9172 40.7703 87.5202 46.2078C82.7877 52.0815 76.981 55.8743 71.1072 56.8812C64.5957 58.0224 57.7823 55.8744 52.5462 53.8941C41.4364 49.6649 32.1725 44.1268 24.9562 37.3803C16.8336 29.7612 11.1948 20.2961 9.04669 10.6631C13.9135 7.40736 22.2039 5.99763 26.433 5.29278L26.8358 5.22564L26.7688 5.29278ZM14.5849 41.0053C8.91251 33.3862 3.84426 22.5449 5.32109 15.4628C5.35466 15.2278 5.45534 15.0264 5.52247 14.8251C8.30831 24.2231 14.0143 33.2855 21.9019 40.6697C29.521 47.8189 39.2883 53.6591 50.9352 58.0896C56.7083 60.2713 64.2601 62.6208 71.8121 61.3118C78.7264 60.1034 85.5064 55.7401 90.9103 49.0608C91.0445 48.8594 91.2124 48.6915 91.3466 48.4901C94.5688 44.3282 97.0862 39.7299 99.335 35.098C98.6972 42.1801 95.3072 49.1279 89.8362 54.4311C83.6268 60.4056 74.9671 64.0641 65.4684 64.8025C56.9766 65.4402 47.7465 63.7284 38.7513 59.7678C28.7827 55.4045 20.3915 48.9265 14.5177 41.0388L14.5849 41.0053Z" fill="#E2E2E2"/>
</g>
</svg>
