<svg width="24" height="24" viewBox="0 0 24 24" fill="none" xmlns="http://www.w3.org/2000/svg">
<path d="M22.8809 18.9041C22.8809 19.2976 22.7934 19.702 22.6076 20.0955C22.4218 20.489 22.1813 20.8607 21.8643 21.2104C21.3287 21.8007 20.7385 22.227 20.0717 22.5002C19.4159 22.7735 18.7054 22.9156 17.9403 22.9156C16.8254 22.9156 15.634 22.6533 14.377 22.1177C13.12 21.5821 11.863 20.8607 10.6169 19.9534C9.35988 19.0353 8.16846 18.0188 7.03169 16.8929C5.90586 15.7561 4.88932 14.5647 3.9821 13.3187C3.0858 12.0726 2.36439 10.8265 1.83973 9.59137C1.31507 8.3453 1.05273 7.15388 1.05273 6.01711C1.05273 5.27384 1.1839 4.56336 1.44623 3.90754C1.70856 3.24078 2.12392 2.62867 2.70323 2.08215C3.40278 1.39353 4.16791 1.05469 4.97677 1.05469C5.28282 1.05469 5.58887 1.12027 5.86213 1.25144C6.14633 1.3826 6.39773 1.57935 6.59448 1.86354L9.13034 5.4378C9.32709 5.71106 9.46918 5.96246 9.56756 6.20293C9.66593 6.43247 9.72059 6.66201 9.72059 6.86969C9.72059 7.13202 9.64407 7.39435 9.49105 7.64575C9.34895 7.89715 9.14127 8.15948 8.87894 8.42181L8.04822 9.28532C7.92799 9.40555 7.87334 9.54765 7.87334 9.72254C7.87334 9.80998 7.88427 9.88649 7.90613 9.97394C7.93892 10.0614 7.97171 10.127 7.99357 10.1925C8.19032 10.5533 8.52917 11.0233 9.01011 11.5916C9.50198 12.16 10.0266 12.7393 10.595 13.3187C11.1853 13.898 11.7536 14.4336 12.333 14.9254C12.9013 15.4064 13.3714 15.7343 13.743 15.931C13.7976 15.9529 13.8632 15.9857 13.9397 16.0185C14.0272 16.0513 14.1146 16.0622 14.213 16.0622C14.3988 16.0622 14.5409 15.9966 14.6612 15.8764L15.4919 15.0566C15.7651 14.7833 16.0275 14.5757 16.2789 14.4445C16.5303 14.2915 16.7817 14.215 17.0549 14.215C17.2626 14.215 17.4812 14.2587 17.7217 14.3571C17.9621 14.4554 18.2135 14.5975 18.4868 14.7833L22.1048 17.352C22.389 17.5487 22.5857 17.7783 22.706 18.0515C22.8153 18.3248 22.8809 18.5981 22.8809 18.9041Z" stroke="white" stroke-width="1.8" stroke-miterlimit="10"/>
<path d="M19.0874 8.70847C19.0874 8.05264 18.5736 7.04704 17.8085 6.22726C17.109 5.47306 16.1799 4.88281 15.2617 4.88281" stroke="white" stroke-width="1.8" stroke-linecap="round" stroke-linejoin="round"/>
<path d="M22.913 8.70601C22.913 4.47592 19.4918 1.05469 15.2617 1.05469" stroke="white" stroke-width="1.8" stroke-linecap="round" stroke-linejoin="round"/>
</svg>
