<svg width="25" height="25" viewBox="0 0 25 25" fill="none" xmlns="http://www.w3.org/2000/svg">
<path d="M23.3809 19.1112C23.3809 19.5046 23.2934 19.9091 23.1076 20.3026C22.9218 20.6961 22.6813 21.0677 22.3643 21.4175C21.8287 22.0077 21.2385 22.434 20.5717 22.7073C19.9159 22.9805 19.2054 23.1226 18.4403 23.1226C17.3254 23.1226 16.134 22.8603 14.877 22.3247C13.62 21.7891 12.363 21.0677 11.1169 20.1605C9.85988 19.2423 8.66846 18.2258 7.53169 17.0999C6.40586 15.9632 5.38932 14.7718 4.4821 13.5257C3.5858 12.2796 2.86439 11.0335 2.33973 9.7984C1.81507 8.55233 1.55273 7.36091 1.55273 6.22415C1.55273 5.48087 1.6839 4.77039 1.94623 4.11457C2.20856 3.44781 2.62392 2.8357 3.20323 2.28918C3.90278 1.60056 4.66791 1.26172 5.47677 1.26172C5.78282 1.26172 6.08887 1.3273 6.36213 1.45847C6.64633 1.58963 6.89773 1.78638 7.09448 2.07057L9.63034 5.64483C9.82709 5.91809 9.96918 6.16949 10.0676 6.40996C10.1659 6.6395 10.2206 6.86904 10.2206 7.07672C10.2206 7.33905 10.1441 7.60138 9.99105 7.85278C9.84895 8.10418 9.64127 8.36651 9.37894 8.62884L8.54822 9.49235C8.42799 9.61259 8.37334 9.75468 8.37334 9.92957C8.37334 10.017 8.38427 10.0935 8.40613 10.181C8.43892 10.2684 8.47171 10.334 8.49357 10.3996C8.69032 10.7603 9.02917 11.2303 9.51011 11.7987C10.002 12.3671 10.5266 12.9464 11.095 13.5257C11.6853 14.105 12.2536 14.6406 12.833 15.1325C13.4013 15.6134 13.8714 15.9413 14.243 16.1381C14.2976 16.1599 14.3632 16.1927 14.4397 16.2255C14.5272 16.2583 14.6146 16.2692 14.713 16.2692C14.8988 16.2692 15.0409 16.2037 15.1612 16.0834L15.9919 15.2636C16.2651 14.9904 16.5275 14.7827 16.7789 14.6515C17.0303 14.4985 17.2817 14.422 17.5549 14.422C17.7626 14.422 17.9812 14.4657 18.2217 14.5641C18.4621 14.6625 18.7135 14.8046 18.9868 14.9904L22.6048 17.559C22.889 17.7558 23.0857 17.9853 23.206 18.2586C23.3153 18.5318 23.3809 18.8051 23.3809 19.1112Z" stroke="white" stroke-width="1.8" stroke-miterlimit="10"/>
<path d="M19.5884 8.9116C19.5884 8.25577 19.0746 7.25017 18.3095 6.43038C17.6099 5.67618 16.6809 5.08594 15.7627 5.08594" stroke="white" stroke-width="1.8" stroke-linecap="round" stroke-linejoin="round"/>
<path d="M23.414 8.91304C23.414 4.68295 19.9928 1.26172 15.7627 1.26172" stroke="white" stroke-width="1.8" stroke-linecap="round" stroke-linejoin="round"/>
</svg>
