<svg width="25" height="25" viewBox="0 0 25 25" fill="none" xmlns="http://www.w3.org/2000/svg">
<path d="M23.5449 19.4471C23.5449 19.8406 23.4575 20.245 23.2717 20.6385C23.0858 21.032 22.8454 21.4036 22.5284 21.7534C21.9928 22.3437 21.4025 22.7699 20.7358 23.0432C20.08 23.3165 19.3695 23.4586 18.6044 23.4586C17.4894 23.4586 16.298 23.1962 15.041 22.6606C13.784 22.1251 12.527 21.4036 11.2809 20.4964C10.0239 19.5783 8.83252 18.5617 7.69576 17.4359C6.56992 16.2991 5.55339 15.1077 4.64616 13.8616C3.74986 12.6156 3.02845 11.3695 2.50379 10.1343C1.97913 8.88827 1.7168 7.69685 1.7168 6.56008C1.7168 5.81681 1.84796 5.10633 2.11029 4.45051C2.37262 3.78375 2.78798 3.17164 3.3673 2.62512C4.06684 1.9365 4.83198 1.59766 5.64083 1.59766C5.94688 1.59766 6.25294 1.66324 6.5262 1.7944C6.81039 1.92557 7.06179 2.12232 7.25854 2.40651L9.7944 5.98077C9.99115 6.25403 10.1332 6.50543 10.2316 6.7459C10.33 6.97544 10.3846 7.20498 10.3846 7.41266C10.3846 7.67499 10.3081 7.93732 10.1551 8.18872C10.013 8.44012 9.80533 8.70245 9.543 8.96478L8.71229 9.82829C8.59205 9.94852 8.5374 10.0906 8.5374 10.2655C8.5374 10.353 8.54833 10.4295 8.57019 10.5169C8.60298 10.6044 8.63578 10.6699 8.65764 10.7355C8.85438 11.0962 9.19323 11.5662 9.67417 12.1346C10.166 12.703 10.6907 13.2823 11.2591 13.8616C11.8493 14.4409 12.4177 14.9765 12.997 15.4684C13.5654 15.9493 14.0354 16.2773 14.4071 16.474C14.4617 16.4959 14.5273 16.5287 14.6038 16.5614C14.6912 16.5942 14.7787 16.6052 14.8771 16.6052C15.0629 16.6052 15.205 16.5396 15.3252 16.4194L16.1559 15.5996C16.4292 15.3263 16.6915 15.1186 16.9429 14.9875C17.1943 14.8344 17.4457 14.7579 17.719 14.7579C17.9267 14.7579 18.1453 14.8016 18.3857 14.9C18.6262 14.9984 18.8776 15.1405 19.1509 15.3263L22.7689 17.895C23.053 18.0917 23.2498 18.3213 23.37 18.5945C23.4793 18.8678 23.5449 19.141 23.5449 19.4471Z" stroke="black" stroke-width="1.8" stroke-miterlimit="10"/>
<path d="M19.7514 9.24753C19.7514 8.59171 19.2377 7.58611 18.4726 6.76632C17.773 6.01212 16.8439 5.42188 15.9258 5.42188" stroke="black" stroke-width="1.8" stroke-linecap="round" stroke-linejoin="round"/>
<path d="M23.5771 9.24897C23.5771 5.01889 20.1559 1.59766 15.9258 1.59766" stroke="black" stroke-width="1.8" stroke-linecap="round" stroke-linejoin="round"/>
</svg>
