<svg width="71" height="71" viewBox="0 0 71 71" fill="none" xmlns="http://www.w3.org/2000/svg">
<g clip-path="url(#clip0_143_1077)">
<path d="M31.033 26.653C27.5641 23.7744 23.1797 20.5529 19.2516 18.3417C21.6991 23.3861 24.6498 28.1863 28.0457 32.6478" fill="#BED150"/>
<path d="M34.3206 28.7259C31.126 23.7389 29.5768 17.9041 28.0733 12.1757C25.8241 17.1703 26.2481 23.2788 29.1659 27.9146C30.0468 29.3142 30.6621 31.0193 31.7153 32.2944" fill="#BED150"/>
<path d="M27.9184 33.3997C24.5791 29.2253 18.2835 28.4201 11.2144 26.7656C16.5896 26.0275 22.3895 25.2853 27.2151 28.1865C29.1014 29.3205 30.8494 30.3297 32.4576 31.8323M32.521 31.2683C29.6032 26.6325 29.1792 20.524 31.4284 15.5294C32.9319 21.2578 34.4811 27.0926 37.6757 32.0796" fill="#BED150"/>
<path d="M31.1002 32.6903C26.4644 29.7725 20.3559 29.3484 15.3613 31.5977C21.0897 33.1011 26.9246 34.6503 31.9115 37.845" fill="#BED150"/>
<path d="M30.3637 33.8882C28.6984 34.7169 27.8351 36.6892 27.8612 38.5492C27.9342 43.7704 37.5412 58.5073 46.331 55.7674C48.9183 54.9608 53.6241 50.9324 54.8798 48.7085C57.0005 44.9529 55.7396 40.3501 52.932 36.9051C50.8512 34.3518 48.0991 32.4481 45.3862 30.5801C40.1013 26.9412 37.4237 27.0059 31.9908 32.4034L30.3637 33.8882Z" fill="#ED9B34"/>
<path d="M48.8291 32.4132L48.8379 32.3877C48.8146 32.3796 48.7904 32.3734 48.7671 32.3652C44.3729 29.0633 40.5248 26.1301 36.2303 28.3866C34.2588 24.2668 33.0611 19.7808 31.9115 15.4019C31.8583 15.1968 31.6809 15.0484 31.4696 15.0304C31.2583 15.0124 31.058 15.1312 30.9724 15.3232C30.627 16.0901 30.3496 16.8813 30.1247 17.6852C29.5616 15.8088 29.0479 13.9191 28.5562 12.0466C28.503 11.8415 28.3256 11.6931 28.1143 11.6751C27.903 11.6571 27.7034 11.7766 27.6171 11.9679C26.1325 15.2644 25.7702 18.9747 26.4785 22.4777C24.0197 20.681 21.6117 19.0973 19.4971 17.9072C19.3065 17.7994 19.0683 17.8291 18.9094 17.9783C18.7216 18.1633 18.7071 18.3643 18.8017 18.5611C20.0389 21.1103 21.4226 23.5925 22.9156 26.0081C19.0306 25.1949 14.9101 25.7527 11.1458 26.2695C10.9089 26.3006 10.7287 26.5001 10.7142 26.7411C10.7038 26.9821 10.8654 27.1962 11.1002 27.2514C12.125 27.4918 13.1338 27.7134 14.1206 27.9309C16.612 28.4795 18.9496 28.9998 21.0271 29.6924C19.0127 29.8254 17.0178 30.3013 15.1557 31.1399C14.9651 31.2269 14.8457 31.4264 14.8629 31.637C14.8809 31.8483 15.0293 32.0258 15.2344 32.079C19.4596 33.1881 23.7857 34.3398 27.7869 36.1872C25.7583 41.4415 32.6118 50.6428 37.3315 54.0656C40.5052 56.3664 43.6686 57.1198 46.4797 56.2435C48.4892 55.6165 51.3901 53.3453 53.2352 51.5002C53.9071 50.8283 54.8124 49.8416 55.3144 48.9529C57.3556 45.34 56.5912 40.6022 53.3195 36.5875C52.0121 34.9832 50.4574 33.6413 48.8291 32.4132ZM37.1155 52.6309L38.1572 52.6719C38.2378 52.9797 38.3214 53.2867 38.4126 53.5916C38.0002 53.3142 37.8798 53.2489 37.1155 52.6309ZM33.0633 48.4314L33.1248 48.4101C32.969 47.9617 32.8316 47.5066 32.6951 47.0513L37.1747 47.1793C37.3646 48.858 37.6305 50.5284 38.0283 52.1662L36.6755 52.1128L36.6699 52.2591C35.3489 51.1282 34.1343 49.8123 33.0633 48.4314ZM31.2959 33.6973C33.9008 31.2729 33.9394 31.2653 34.0156 31.1993C34.4267 31.1543 34.8399 31.1274 35.2527 31.098C35.6813 32.6692 35.9773 34.2797 36.1886 35.9053C34.5587 35.7098 32.9396 35.4429 31.3583 35.0429C31.3891 34.6001 31.4182 34.1571 31.4668 33.7163L31.2959 33.6973ZM30.8675 34.9122C30.5944 34.8378 30.3232 34.7575 30.0527 34.6745C30.2226 34.5447 30.3991 34.4276 30.5864 34.3343L30.9406 34.0163C30.9109 34.3143 30.8891 34.6132 30.8675 34.9122ZM34.6855 30.6428C34.8027 30.549 34.9232 30.4477 35.0379 30.3606C35.0627 30.4428 35.0857 30.5256 35.11 30.6081C34.9683 30.6187 34.8268 30.6305 34.6855 30.6428ZM52.403 37.0566L52.433 37.8144C50.7971 37.3859 49.1259 37.0982 47.4436 36.8926L47.3194 32.5444C49.1664 33.8756 50.948 35.3164 52.403 37.0566ZM46.9417 36.8313C45.3198 36.6474 43.6932 36.5262 42.0839 36.414C42.0666 34.839 42.0021 33.1247 41.8746 31.2807C43.5429 31.4918 45.196 31.8197 46.8115 32.2762L46.9417 36.8313ZM43.027 41.2189C42.7049 41.2293 42.3664 41.2395 42.0303 41.2497C42.0679 39.9221 42.0943 38.4777 42.0854 36.9151C43.6998 37.0279 45.3313 37.1506 46.956 37.3369L47.0647 41.1394C45.803 41.136 44.4763 41.1728 43.027 41.2189ZM41.4042 46.7999L37.6215 46.6917C37.4535 45.1103 37.3422 43.5236 37.2334 41.9564C37.2303 41.9114 37.2271 41.8658 37.2238 41.8207C38.7691 41.8289 40.1995 41.8029 41.5145 41.7656C41.5043 42.1017 41.494 42.4401 41.4837 42.7623C41.4376 44.2115 41.4007 45.5383 41.4042 46.7999ZM37.1884 41.3206C37.0756 39.7145 36.9491 38.092 36.758 36.4749C38.3713 36.6512 39.9881 36.7685 41.5852 36.8796C41.5949 38.462 41.568 39.9232 41.5297 41.2649C40.2007 41.3028 38.7535 41.3296 37.1884 41.3206ZM41.5829 36.3785C39.9663 36.2658 38.3294 36.1458 36.6985 35.9646C36.4872 34.3089 36.194 32.6644 35.7611 31.0565C37.6279 30.9524 39.5069 31.0051 41.369 31.2123C41.4994 33.0698 41.5647 34.7932 41.5829 36.3785ZM36.2478 36.4155C36.4442 38.05 36.5726 39.6928 36.6872 41.3191C35.09 41.3014 33.3513 41.2359 31.4771 41.1042C31.2716 39.2588 31.2168 37.3967 31.3172 35.5463C32.9356 35.9508 34.5875 36.22 36.2478 36.4155ZM36.7228 41.8197C36.7267 41.8766 36.7309 41.9341 36.7349 41.9909C36.8424 43.5414 36.9533 45.1109 37.1179 46.6774L32.5409 46.5467C32.0845 44.9312 31.7566 43.2782 31.5454 41.6098C33.4068 41.7385 35.1353 41.8029 36.7228 41.8197ZM32.0238 46.5409L32.0115 46.9899C30.6753 45.0433 29.645 43.0711 29.0258 41.3998C29.7127 41.4673 30.3852 41.5274 31.0362 41.5764C31.2437 43.2539 31.5721 44.9153 32.0238 46.5409ZM32.1663 47.0363C32.1982 47.1446 32.2354 47.2507 32.2683 47.3586C32.1915 47.25 32.1162 47.1415 32.0412 47.0328L32.1663 47.0363ZM38.6784 52.6925L42.0371 52.8251C42.259 53.7088 42.5497 54.5915 42.9366 55.4905C41.5154 55.2666 40.196 54.6838 39.0704 54.0078C38.9291 53.5725 38.7966 53.1346 38.6784 52.6925ZM38.5497 52.1868C38.1443 50.551 37.8734 48.8781 37.6805 47.1939L41.4096 47.3003C41.4331 49.0687 41.5637 50.7082 41.9188 52.3197L38.5497 52.1868ZM41.91 47.3147L47.2453 47.467L47.3902 52.5356L42.4321 52.34C42.0656 50.7302 41.9349 49.0893 41.91 47.3147ZM41.9047 46.8141C41.9005 45.5549 41.9372 44.2291 41.9836 42.7788C41.9942 42.4464 42.0049 42.0978 42.0154 41.7506C42.3625 41.7401 42.7112 41.7295 43.0436 41.7189C44.4939 41.6724 45.8196 41.6357 47.0789 41.64L47.2311 46.9663L41.9047 46.8141ZM47.5795 41.6452C49.354 41.6702 50.9949 41.8009 52.6047 42.1674L52.8003 47.1254L47.7318 46.9806L47.5795 41.6452ZM47.565 41.1449L47.458 37.398C49.1463 37.6068 50.8205 37.8982 52.4535 38.3352L52.5844 41.654C50.9728 41.2988 49.3335 41.1683 47.565 41.1449ZM52.9595 38.4694C53.1666 38.5291 53.37 38.6013 53.5757 38.6663C54.294 39.8125 54.8811 41.1031 55.1959 42.4561C54.4897 42.18 53.789 41.9478 53.0898 41.7724L52.9595 38.4694ZM52.9388 37.9432L52.9297 37.7161C52.9987 37.8087 53.0651 37.9046 53.1325 37.9998C53.0678 37.9811 53.0034 37.9614 52.9388 37.9432ZM45.8655 31.5187C44.5409 31.1911 43.1971 30.9392 41.8413 30.7714C41.7992 30.2105 41.7459 29.6285 41.69 29.0412C42.7223 29.4527 43.827 30.1131 45.1021 30.9914C45.3558 31.1661 45.6108 31.3424 45.8655 31.5187ZM41.1712 28.8556C41.2328 29.4859 41.2901 30.108 41.3358 30.708C39.4367 30.5016 37.5213 30.4541 35.6181 30.5666C35.5686 30.3951 35.5213 30.2232 35.4683 30.0528C37.5811 28.5628 39.278 28.2473 41.1712 28.8556ZM31.3356 17.1393C32.3897 21.1182 33.5595 25.1409 35.3651 28.8938C34.582 29.4027 33.7583 30.0675 32.8739 30.8744C30.3966 26.8509 29.8338 21.6266 31.3356 17.1393ZM27.9796 13.7833C28.5009 15.7505 29.0536 17.7272 29.6926 19.6781C29.1341 23.2845 29.7196 27.0445 31.4034 30.3045C31.2085 30.1567 31.0107 30.016 30.8126 29.876C30.1719 28.673 29.9626 28.2391 29.5892 27.6472C27.0467 23.6075 26.4639 18.3167 27.9796 13.7833ZM20.4473 19.6225C22.4488 20.8374 24.6488 22.3504 26.8648 24.0126C27.566 26.3586 28.4019 27.5581 29.0504 28.7114C27.2631 27.611 26.2045 26.9408 24.2984 26.3603C22.914 24.1719 21.622 21.9252 20.4473 19.6225ZM14.3353 26.9539C14.249 26.9352 14.1613 26.9166 14.0736 26.8965C18.4385 26.389 23.0554 26.2689 26.9576 28.6146C28.5826 29.5977 30.2378 30.5517 31.7805 31.9116C31.6464 32.044 31.5203 32.1539 31.3828 32.2807C30.9843 32.0935 28.3164 30.1661 23.8718 29.7374C21.1826 28.468 17.9088 27.7414 14.3353 26.9539ZM16.9711 31.5024C21.4237 30.0133 26.5978 30.5598 30.6085 32.9874L30.0774 33.4718C29.3241 33.862 28.6979 34.5081 28.2318 35.2905C24.621 33.6192 20.7751 32.5104 16.9711 31.5024ZM29.6236 35.0695C30.0216 35.1969 30.4229 35.3123 30.826 35.4205C30.7186 37.3015 30.7688 39.1944 30.9728 41.0711C30.2831 41.0185 29.5721 40.955 28.8423 40.8813C28.1826 38.8907 28.0334 36.755 29.6236 35.0695ZM43.1686 55.5168L43.4358 55.3997C43.0593 54.5395 42.7838 53.6939 42.5637 52.8458L47.4045 53.0369L47.4478 54.5531L47.7594 54.5445C47.1709 54.886 46.6284 55.1502 46.1828 55.2892C45.1575 55.6088 44.1445 55.6419 43.1686 55.5168ZM47.9055 53.0566L49.8459 53.1332C49.188 53.6355 48.5451 54.0736 47.9447 54.4338L47.9055 53.0566ZM50.4478 52.6562L47.8911 52.5553L47.7461 47.4814L52.8201 47.6263L52.9265 50.3243L52.9793 50.3222C52.8334 50.4777 52.6883 50.633 52.5281 50.7932C51.8712 51.45 51.161 52.0781 50.4478 52.6562ZM53.4083 49.8473L53.3213 47.6407L54.8041 47.683L54.8179 47.1831L53.3016 47.1397L53.1105 42.2989C53.8407 42.4884 54.5709 42.7306 55.3083 43.0342C55.7835 45.7882 55.0657 47.9472 53.4083 49.8473Z" fill="#353535"/>
</g>
<defs>
<clipPath id="clip0_143_1077">
<rect width="50" height="50" fill="white" transform="translate(0 35.457) rotate(-45)"/>
</clipPath>
</defs>
</svg>
