<svg width="28" height="27" viewBox="0 0 28 27" fill="none" xmlns="http://www.w3.org/2000/svg">
<path d="M13.0347 0.77721C13.3011 -0.208103 14.6989 -0.208103 14.9653 0.77721L17.2555 9.24719C17.3483 9.5905 17.6165 9.85868 17.9598 9.95151L26.4298 12.2417C27.4151 12.5081 27.4151 13.9059 26.4298 14.1724L17.9598 16.4626C17.6165 16.5554 17.3483 16.8236 17.2555 17.1669L14.9653 25.6369C14.6989 26.6222 13.3011 26.6222 13.0347 25.6369L10.7445 17.1669C10.6517 16.8236 10.3835 16.5554 10.0402 16.4626L1.57018 14.1724C0.584866 13.9059 0.584866 12.5081 1.57018 12.2417L10.0402 9.95151C10.3835 9.85868 10.6517 9.59051 10.7445 9.24719L13.0347 0.77721Z" fill="#FF3184"/>
</svg>
