<svg width="66" height="99" viewBox="0 0 66 99" fill="none" xmlns="http://www.w3.org/2000/svg">
<g style="mix-blend-mode:multiply">
<path d="M30.1476 95.0554C33.3698 96.3979 37.2298 97.8075 41.3582 98.2774C42.1302 98.3445 42.9692 98.4118 43.909 98.4118C46.8291 98.4118 50.3198 97.8412 53.5756 95.8609C60.4563 91.6653 62.638 83.3078 63.6785 77.3669C65.3232 68.1367 65.6587 58.7386 64.6518 49.4077C64.1819 44.9436 63.3428 39.7747 60.6241 35.3106C55.9922 27.725 49.2457 26.8523 43.4727 27.3222C43.2713 24.0329 41.3246 20.8444 38.2702 19.4683C35.8536 18.3607 33.0342 18.5285 30.6846 19.6361L28.0666 6.64668C27.8317 5.53905 27.496 3.86072 26.2877 2.55171C24.9787 1.14201 21.958 -0.704033 16.1513 2.55171C14.4731 3.49152 10.5796 5.67322 10.3446 9.70094C10.2439 11.4463 10.8817 12.9568 11.3516 14.0309L15.6814 24.0666C14.2045 24.5365 12.6941 25.1405 11.2844 26.0468C8.43146 27.8593 6.51833 30.5445 6.082 33.431C5.64566 36.1161 6.61903 38.8013 8.39795 40.5466C3.7325 45.5142 0.778855 51.623 0.241825 57.8324C-0.463027 65.9885 2.82619 74.6146 9.27055 81.5288C14.2381 86.8656 21.0517 91.2626 30.1141 95.0218L30.1476 95.0554ZM14.1374 30.5109C15.8492 29.4368 18.0309 28.8327 19.9441 28.3963C20.7161 28.2285 21.3538 27.7251 21.6894 27.0203C22.0251 26.3154 22.0586 25.5098 21.7565 24.8049L16.2184 11.9835C15.9163 11.3122 15.5807 10.5066 15.6143 10.0367C15.6814 8.89552 17.9302 7.62012 18.7693 7.15022C20.8503 5.97547 22.1929 5.84105 22.4614 6.14313C22.6628 6.37808 22.8306 7.21726 22.9313 7.68716L26.4556 25.0735C26.6906 26.1476 27.5296 26.9866 28.6373 27.1545C29.7449 27.3223 30.8189 26.7852 31.3224 25.8454C32.1951 24.2679 34.4774 23.5296 36.1221 24.268C37.4646 24.8721 38.3038 26.4496 38.2366 27.96C30.9196 28.8662 23.9718 30.0076 17.1582 33.8004C15.4464 34.7402 13.8354 35.8141 12.3585 37.0224C11.6201 36.5189 11.1502 35.3778 11.318 34.3037C11.5194 32.9276 12.5935 31.5179 14.1374 30.5445V30.5109ZM5.51136 58.3023C6.18264 50.5154 11.6201 42.8627 19.7091 38.3651C26.3884 34.6394 33.6384 33.7667 41.3246 32.8605L42.4658 32.7263C43.7077 32.592 44.8153 32.4913 45.8558 32.4913C50.7562 32.4913 53.777 34.1694 56.1265 38.0293C58.3082 41.6207 59.013 46.0513 59.4158 49.9448C60.3556 58.7723 60.0199 67.7003 58.476 76.4606C57.0998 84.2811 54.6497 89.0137 50.7898 91.3632C48.4403 92.8064 45.2851 93.377 41.8951 93.0078C38.438 92.6386 35.0145 91.3632 32.128 90.1549C23.6362 86.6306 17.5946 82.7371 13.0969 77.9038C7.69307 72.0972 4.90727 64.9144 5.47786 58.2351L5.51136 58.3023Z" fill="#E2E2E2"/>
</g>
</svg>
